<svg width="200" height="200" viewBox="0 0 200 200" fill="none" xmlns="http://www.w3.org/2000/svg">
<path d="M4.7012 155.5L14.1171 146.08L4.81566 136.778C0.737266 132.7 0.737266 126.082 4.81566 122.004L7.83842 118.981C11.9168 114.903 18.5347 114.903 22.6131 118.981L47.0199 143.388L143.341 47.0663L118.934 22.6595C114.856 18.5811 114.856 11.9633 118.934 7.88489L121.957 4.86213C126.036 0.78373 132.653 0.78373 136.732 4.86213L146.033 14.1636L155.453 4.74766C159.536 0.665023 166.15 0.665023 170.232 4.74766L177.944 12.4551L188.416 1.98775C189.738 0.665024 191.477 0.00366211 193.21 0.00366211C199.214 0.00366211 202.283 7.30789 198.005 11.586L187.534 22.049L195.25 29.7649C199.332 33.8476 199.332 40.4612 195.25 44.5438L185.829 53.9597L195.135 63.2654C199.214 67.3438 199.214 73.9617 195.135 78.0401L192.112 81.0629C188.034 85.1413 181.416 85.1413 177.338 81.0629L152.931 56.6561L56.6096 152.977L81.0164 177.384C85.0948 181.463 85.0948 188.08 81.0164 192.159L77.9936 195.182C73.9152 199.26 67.2974 199.26 63.219 195.182L53.9133 185.876L44.4974 195.296C40.4147 199.379 33.8011 199.379 29.7185 195.296L22.0068 187.584C9.03396 200.557 35.2269 174.355 11.5819 198.009C8.93221 200.659 4.6376 200.659 1.98792 198.014C-0.661769 195.364 -0.661769 191.069 1.98368 188.42L12.4086 177.99C12.4518 177.99 12.4955 178.073 4.7012 170.279C0.618559 166.196 0.618559 159.582 4.7012 155.5Z" fill="#6C63FF"/>
<path d="M4.7012 170.278C0.618562 166.195 0.618562 159.582 4.7012 155.499L14.1192 146.081L53.9154 185.877L44.4974 195.295C40.4147 199.378 33.8011 199.378 29.7185 195.295C27.0658 192.643 7.34368 172.921 4.7012 170.278Z" fill="#37474F"/>
<path d="M4.816 136.778C0.737603 132.699 0.737603 126.081 4.816 122.003L7.83876 118.98C11.9172 114.902 18.535 114.902 22.6134 118.98L81.0167 177.384C85.0951 181.462 85.0951 188.08 81.0167 192.158L77.994 195.181C73.9156 199.259 67.2977 199.259 63.2193 195.181L4.816 136.778Z" fill="#37474F"/>
<path d="M118.934 22.6588C114.856 18.5804 114.856 11.9626 118.934 7.88417L121.957 4.86141C126.036 0.783013 132.653 0.783013 136.732 4.86141L195.135 63.2647C199.214 67.3431 199.214 73.961 195.135 78.0394L192.112 81.0621C188.034 85.1405 181.416 85.1405 177.338 81.0621C174.771 78.4956 121.495 25.2199 118.934 22.6588Z" fill="#37474F"/>
<path d="M195.25 29.7642C199.332 33.8468 199.332 40.4604 195.25 44.5431L185.832 53.9611L146.035 14.165L155.453 4.74691C159.536 0.664277 166.15 0.664277 170.232 4.74691C172.882 7.3966 192.6 27.1149 195.25 29.7642Z" fill="#455A64"/>
<path d="M74.1399 197.622C70.4515 198.949 66.1696 198.131 63.219 195.181L4.81563 136.777C0.737236 132.699 0.737236 126.081 4.81563 122.003L7.8384 118.98C11.9168 114.901 18.5346 114.901 22.613 118.98L24.4106 120.777C21.738 121.727 20.6781 123.098 17.5341 126.242C13.4557 130.32 13.4557 136.938 17.5341 141.017L74.1399 197.622Z" fill="#455A64"/>
<path d="M188.259 83.5046C184.57 84.8315 180.288 84.0133 177.338 81.0626L118.934 22.6593C114.856 18.5809 114.856 11.9631 118.934 7.88466L121.957 4.8619C126.036 0.783501 132.653 0.783501 136.732 4.8619L138.529 6.65944C135.857 7.60952 134.797 8.98057 131.653 12.1242C127.575 16.2026 127.575 22.8204 131.653 26.8988L188.259 83.5046Z" fill="#455A64"/>
<path d="M41.3474 197.461C37.5107 199.161 32.8642 198.441 29.7185 195.295L4.7012 170.278C0.618562 166.195 0.618562 159.581 4.7012 155.499L14.1214 146.083L18.3609 150.322L13.1802 155.499C9.09756 159.581 9.09756 166.195 13.1802 170.278C40.1964 197.294 38.925 196.394 41.3474 197.461Z" fill="#455A64"/>
</svg>
