<svg width="200" height="200" viewBox="0 0 200 200" fill="none" xmlns="http://www.w3.org/2000/svg">
<path d="M54.1668 87.5H145.834C148.135 87.5 150 89.3656 150 91.6668V108.334C150 110.635 148.135 112.5 145.834 112.5H54.1668C51.8656 112.5 50 110.635 50 108.334V91.6668C50 89.3656 51.8656 87.5 54.1668 87.5Z" fill="#7B69E6"/>
<path d="M12.5 54.1669H20.8332C27.7367 54.1669 33.3332 59.7634 33.3332 66.6669V133.334C33.3332 140.237 27.7367 145.834 20.8332 145.834H12.5C5.59648 145.834 0 140.237 0 133.334V66.6669C0 59.7634 5.59648 54.1669 12.5 54.1669Z" fill="#37474F"/>
<path d="M37.5 29.1669H45.8332C52.7367 29.1669 58.3332 34.7634 58.3332 41.6669V158.334C58.3332 165.237 52.7367 170.834 45.8332 170.834H37.5C30.5965 170.834 25 165.237 25 158.334V41.6669C25 34.7634 30.5965 29.1669 37.5 29.1669Z" fill="#455A64"/>
<path d="M179.167 54.1669H187.5C194.404 54.1669 200 59.7634 200 66.6669V133.334C200 140.237 194.404 145.834 187.5 145.834H179.167C172.263 145.834 166.667 140.237 166.667 133.334V66.6669C166.667 59.7634 172.263 54.1669 179.167 54.1669Z" fill="#37474F"/>
<path d="M154.167 29.1669H162.5C169.404 29.1669 175 34.7634 175 41.6669V158.334C175 165.237 169.404 170.834 162.5 170.834H154.167C147.263 170.834 141.667 165.237 141.667 158.334V41.6669C141.667 34.7634 147.263 29.1669 154.167 29.1669Z" fill="#455A64"/>
</svg>
