<svg width="200" height="200" viewBox="0 0 200 200" fill="none" xmlns="http://www.w3.org/2000/svg">
<g clip-path="url(#clip0)">
<path d="M197.212 44.7989L159.711 19.7984C158.686 19.1109 157.486 18.7484 156.248 18.7484H43.7462C42.5087 18.7484 41.3086 19.1109 40.2836 19.7984L2.78289 44.7989C0.432845 46.3615 -0.567174 49.299 0.320343 51.9741L12.8206 89.4748C13.3831 91.1873 14.6831 92.5749 16.3582 93.2749C18.0332 93.9624 19.9207 93.8999 21.5458 93.0874L37.4961 85.1122V187.502C37.4961 190.952 40.2961 193.752 43.7462 193.752H156.248C159.698 193.752 162.499 190.952 162.499 187.502V85.1122L178.449 93.0874C180.074 93.8999 181.936 93.9624 183.636 93.2749C185.311 92.5749 186.599 91.1873 187.174 89.4748L199.674 51.9741C200.574 49.299 199.562 46.3615 197.212 44.7989Z" fill="#6C63FF"/>
<path d="M135.673 20.5734L123.173 8.0732C121.998 6.91068 120.41 6.24817 118.748 6.24817H81.2469C79.5844 6.24817 77.9968 6.91068 76.8218 8.0732L64.3216 20.5734C63.0715 21.836 62.409 23.5735 62.509 25.3485C62.609 27.1236 63.459 28.7736 64.8466 29.8861L96.0972 54.8866C97.2347 55.7866 98.6222 56.2491 99.9973 56.2491C101.372 56.2491 102.76 55.7866 103.91 54.8866L135.16 29.8861C136.548 28.7736 137.398 27.1236 137.498 25.3485C137.586 23.5735 136.923 21.836 135.673 20.5734ZM99.9973 41.9989L78.1093 24.4735L83.8344 18.7484H116.16L121.885 24.4735L99.9973 41.9989Z" fill="#DB5431"/>
<path d="M131.248 156.251H106.247C102.797 156.251 99.9973 153.451 99.9973 150.001V100C99.9973 96.5499 102.797 93.7499 106.247 93.7499H131.248C134.698 93.7499 137.498 96.5499 137.498 100V150.001C137.498 153.451 134.698 156.251 131.248 156.251ZM112.498 143.751H124.998V106.25H112.498V143.751Z" fill="#FAFAFA"/>
<path d="M81.2469 156.251C77.7969 156.251 74.9968 153.451 74.9968 150.001V106.25H68.7467C65.2966 106.25 62.4966 103.45 62.4966 100C62.4966 96.5374 65.2966 93.7499 68.7467 93.7499H81.2469C84.697 93.7499 87.4971 96.5499 87.4971 100V150.001C87.4971 153.451 84.697 156.251 81.2469 156.251Z" fill="#FAFAFA"/>
</g>
<defs>
<clipPath id="clip0">
<rect width="200" height="200" fill="white"/>
</clipPath>
</defs>
</svg>
