<svg width="191" height="67" viewBox="0 0 191 67" fill="none" xmlns="http://www.w3.org/2000/svg">
<path d="M35.1755 66.3169C54.0501 66.3169 69.3509 51.6402 69.3509 33.5356C69.3509 15.4309 54.0501 0.754196 35.1755 0.754196C16.3009 0.754196 1 15.4309 1 33.5356C1 51.6402 16.3009 66.3169 35.1755 66.3169Z" fill="white"/>
<path d="M35.1755 65.9646C53.8471 65.9646 68.9835 51.4457 68.9835 33.5357C68.9835 15.6258 53.8471 1.10686 35.1755 1.10686C16.5038 1.10686 1.36749 15.6258 1.36749 33.5357C1.36749 51.4457 16.5038 65.9646 35.1755 65.9646Z" stroke="#707070"/>
<path d="M42.9035 4.59103C44.4608 4.59103 46.027 6.7398 46.2357 9.03238C46.3261 10.0193 45.3604 10.5664 45.3604 11.7677C45.3604 13.337 44.2249 15.3109 43.7435 16.491C42.2854 18.3557 43.0681 18.7469 41.7187 18.7469C39.4866 18.7455 38.8612 15.7296 38.8612 11.767C38.8612 9.80785 39.164 10.3239 39.8813 9.03238C40.617 7.70702 41.7782 4.59103 42.9035 4.59103Z" fill="#DB5431"/>
<path d="M39.866 8.94006L34.7041 19.1918L39.866 30.6793L48.4691 42.5371V36.9826L51.101 32.6554L43.2063 22.6504V19.1918L46.3446 8.94006H39.866Z" fill="#DB5431"/>
<path d="M32.8662 28.1195L31.6213 28.7915L20.4871 23.041L18.4631 23.937H20.4871L31.6213 29.9116L32.8662 28.1195Z" fill="black"/>
<path d="M36.2939 28.1195L37.5435 28.7915L48.6766 23.041L50.7006 23.937H48.6766L37.5435 29.9116L36.2939 28.1195Z" fill="black"/>
<path d="M29.3096 20.1308L28.2453 21.493L27.3248 27.0675L24.9376 32.2008L22.6152 36.0942L23.0103 38.1406C22.6625 38.4712 22.356 38.8395 22.0969 39.2381C22.0365 39.3602 22.263 39.638 22.2724 39.6216" stroke="#DB5431" stroke-width="2" stroke-linecap="round"/>
<path d="M34.9358 63.0518L33.9208 62.2764V62.0233L33.6533 62.0726L32.7566 61.3888L33.2241 60.2489L32.3105 61.0511V60.6183L31.8696 60.7134L29.7566 58.5717L29.2421 58.7127L29.0848 58.2763L28.4447 58.3348L27.7435 57.3704C27.0171 56.4731 26.3953 55.5022 25.8892 54.4751C25.4798 53.6754 25.2246 52.8113 25.1359 51.9245C25.0882 51.5066 25.1308 51.0838 25.261 50.6825C25.3913 50.2811 25.6064 49.9098 25.8929 49.5917C26.2197 50.6342 26.7929 51.5903 27.5679 52.3856C29.137 54.0563 31.9842 54.1409 32.5391 54.1409C32.6214 54.1409 32.6684 54.1409 32.6684 54.1409C32.6721 54.1156 33.0521 51.443 31.774 49.579C32.9347 49.7234 34.1035 49.7985 35.2739 49.8039C35.8545 49.8039 36.4167 49.7821 36.9444 49.7391C35.9155 51.7673 36.6923 54.3919 36.7004 54.4173C36.7328 54.4173 40.0298 54.086 41.4967 51.9992C42.2295 51.013 42.6724 49.8559 42.7792 48.6492C43.1827 48.9692 43.3819 49.6531 43.3716 50.6809C43.3345 51.7253 43.1937 52.764 42.9512 53.7828C42.64 55.1625 42.2546 56.5259 41.7966 57.8674C41.7966 57.8674 41.6276 57.9746 41.3916 58.1494C41.3781 58.1592 41.3615 58.1642 41.3446 58.1635C41.3154 58.1617 41.2867 58.1557 41.2594 58.1459C41.23 58.1357 41.1994 58.1295 41.1682 58.1276C41.1441 58.1269 41.1206 58.1346 41.1021 58.1494C41.0568 58.2054 41.0283 58.2722 41.0198 58.3426C41.0091 58.4261 40.9736 58.5049 40.9176 58.5696C40.9147 58.5705 40.9116 58.5705 40.9088 58.5696C40.8206 58.5431 40.7361 58.5061 40.6574 58.4596L40.6383 58.4498C40.5524 58.3989 40.46 58.3588 40.3634 58.3306C40.3599 58.3294 40.356 58.3294 40.3524 58.3306C40.3201 58.356 40.3906 58.4603 40.4656 58.5703C40.5406 58.6803 40.6214 58.7994 40.5839 58.8283C40.0371 59.2591 39.5322 59.6489 39.0839 59.9873C39.0765 59.9934 39.0671 59.9968 39.0574 59.9972C39.017 59.9972 38.9773 59.9337 38.9391 59.8724C38.9009 59.8111 38.8605 59.7483 38.8193 59.7483C38.809 59.7487 38.7991 59.7524 38.7914 59.7589C38.7362 59.8005 38.7274 59.8999 38.7179 59.9986C38.7083 60.0973 38.7002 60.2009 38.6444 60.2446C38.6394 60.2478 38.6334 60.2493 38.6275 60.2489C38.4177 60.1516 38.2248 60.0239 38.0557 59.8703C37.8863 59.716 37.6929 59.5881 37.4824 59.491C37.4764 59.4908 37.4704 59.4925 37.4655 59.4959C37.3994 59.5453 37.5559 59.8484 37.7066 60.1389C37.8572 60.4293 38.0094 60.724 37.9454 60.7734L36.5828 61.8026C36.5777 61.8061 36.5715 61.8078 36.5652 61.8076C36.52 61.7974 36.4775 61.7785 36.4402 61.7519C36.4032 61.7251 36.3606 61.7061 36.3153 61.6962C36.3084 61.6959 36.3017 61.6979 36.2962 61.7018C36.2741 61.718 36.2852 61.7864 36.2962 61.859C36.3072 61.9316 36.319 62 36.2962 62.019L34.9387 63.0448L34.9358 63.0518Z" fill="black"/>
<path d="M87.375 19.3184L88.9688 18.209L89.0938 18.2403C89.5208 17.959 89.8594 17.6934 90.1094 17.4434L90.3906 17.5059C90.4427 17.5059 90.5104 17.5007 90.5938 17.4903C90.6354 17.4903 90.6667 17.4903 90.6875 17.4903C90.8021 17.4903 90.901 17.5319 90.9844 17.6153C91.0677 17.7194 91.1094 17.8184 91.1094 17.9121L91.0781 18.4434V19.2246C90.9844 19.7559 90.9375 20.0944 90.9375 20.2403C90.9375 20.4486 90.9688 20.7559 91.0312 21.1621L90.5469 21.7715L90.125 21.6934L90.1875 22.1153V22.5996L90.2812 22.8809H90.3594L90.6562 22.6621C90.7708 22.8184 90.8281 22.9434 90.8281 23.0371C90.8281 23.0684 90.8177 23.1309 90.7969 23.2246C90.7656 23.3184 90.75 23.3965 90.75 23.459L90.7969 26.5996L90.7656 27.2559C90.7552 27.9955 90.724 28.3861 90.6719 28.4278L90.2969 28.7715C90.2448 28.8236 90.2188 28.8965 90.2188 28.9903C90.2188 29.1465 90.3333 29.3288 90.5625 29.5371C90.5938 29.7559 90.6771 30.0007 90.8125 30.2715L90.6875 30.8184L90.7344 31.3184L90.7031 32.1153C90.7448 32.6569 90.7656 33.0632 90.7656 33.334L90.9844 33.4434V33.7403L91.0938 33.8496C91.5729 33.6517 91.8438 33.5267 91.9062 33.4746C92.5104 33.0371 92.901 32.7663 93.0781 32.6621L93.1562 32.709L93.625 32.1465L95.9531 29.709L96.1719 29.209L97.7969 27.1309C97.9635 26.9121 98.1562 26.7038 98.375 26.5059C98.5312 26.3392 98.7969 26.0111 99.1719 25.5215L98.9844 25.2403V25.2246C99.151 24.8601 99.5625 24.2871 100.219 23.5059L100.484 23.4278C100.516 23.2298 100.625 22.9851 100.812 22.6934L101.125 22.1621L101.391 21.7715L101.812 21.0059C102.115 20.7038 102.375 20.3653 102.594 19.9903C102.823 19.6048 103 19.3132 103.125 19.1153C103.406 19.0736 103.578 19.0267 103.641 18.9746L103.984 18.709C104.286 18.4903 104.453 18.3705 104.484 18.3496C104.505 18.3288 104.583 18.3132 104.719 18.3028C104.823 18.3028 104.964 18.2298 105.141 18.084C105.359 17.9069 105.547 17.8184 105.703 17.8184L105.828 18.0371V18.0528C105.828 18.1153 105.719 18.3028 105.5 18.6153C105.292 19.0423 105.182 19.2663 105.172 19.2871C105.172 19.2871 105.005 19.4278 104.672 19.709C104.214 20.2923 103.948 20.6465 103.875 20.7715C103.729 21.0736 103.589 21.308 103.453 21.4746L102.5 21.3809L102.453 22.0684L102.719 22.1778C102.719 22.4382 102.656 22.6517 102.531 22.8184C102.438 22.9538 102.276 23.1309 102.047 23.3496C102.016 23.4955 101.958 23.6048 101.875 23.6778C101.76 23.8028 101.646 23.9278 101.531 24.0528L101.031 24.4278C100.896 24.8028 100.818 25.0111 100.797 25.0528C100.776 25.084 100.677 25.1569 100.5 25.2715C100.5 25.4694 100.479 25.5996 100.438 25.6621C100.396 25.7455 100.229 25.9069 99.9375 26.1465C99.4167 26.6673 98.8333 27.3757 98.1875 28.2715L97.3438 29.1934C96.9062 29.7767 96.5885 30.1673 96.3906 30.3653L96.2812 30.8028C96.0312 30.9486 95.8802 31.0528 95.8281 31.1153C95.776 31.1673 95.6042 31.4382 95.3125 31.9278C95.0208 32.1153 94.8542 32.2298 94.8125 32.2715C94.7708 32.3132 94.7135 32.4486 94.6406 32.6778L94.2188 32.7246C94.1146 32.8601 94.0469 32.9486 94.0156 32.9903C93.8594 33.1673 93.7812 33.2767 93.7812 33.3184C93.7812 33.3288 93.7865 33.3444 93.7969 33.3653L93.8125 33.4278L95.2969 35.209C95.6198 35.584 95.7812 35.9226 95.7812 36.2246C95.7812 36.2871 95.776 36.3653 95.7656 36.459C95.9948 36.459 96.1615 36.4694 96.2656 36.4903C96.3802 36.5215 96.5625 36.6673 96.8125 36.9278C97.0625 37.1673 97.2396 37.3913 97.3438 37.5996C97.4792 37.6101 97.599 37.6517 97.7031 37.7246C98.099 38.0163 98.2969 38.2611 98.2969 38.459C98.2969 38.5632 98.25 38.6934 98.1562 38.8496C98.3125 38.9955 98.5469 39.1517 98.8594 39.3184L99.3125 39.6309L99.6719 39.7246C99.7031 39.683 99.8229 39.7923 100.031 40.0528H100.359C100.672 40.4069 101.125 40.8028 101.719 41.2403L103.688 42.6465L104.188 42.9278C104.177 43.0215 104.172 43.1048 104.172 43.1778C104.172 43.3548 104.255 43.459 104.422 43.4903C104.599 43.5215 104.74 43.558 104.844 43.5996V43.8809C104.896 43.9226 105.042 43.9694 105.281 44.0215C105.5 44.1048 105.766 44.1778 106.078 44.2403C106.349 44.3028 106.589 44.433 106.797 44.6309C107.953 45.3288 108.547 45.6934 108.578 45.7246C108.651 45.7871 108.708 45.9434 108.75 46.1934C109.052 46.2663 109.318 46.3705 109.547 46.5059L109.875 46.2246C110.125 46.3392 110.458 46.4382 110.875 46.5215C111.292 46.6048 111.646 46.6465 111.938 46.6465C111.948 46.6465 111.969 46.6465 112 46.6465C112.729 46.5423 113.094 46.4903 113.094 46.4903C113.115 46.4903 113.161 46.5319 113.234 46.6153L113.281 46.7403C113.344 47.2194 112.859 47.5684 111.828 47.7871L111.578 48.1153C111.276 48.1361 111.078 48.1673 110.984 48.209C110.953 48.2194 110.792 48.3132 110.5 48.4903L110.156 48.4434C109.865 48.4121 109.698 48.3913 109.656 48.3809C109.625 48.3705 109.542 48.3132 109.406 48.209L108.844 48.2871C108.542 48.0371 108.318 47.8653 108.172 47.7715C108.078 47.6986 107.802 47.5528 107.344 47.334C107.073 47.1778 106.849 47.0736 106.672 47.0215C106.536 46.9903 106.318 46.8861 106.016 46.709C105.672 46.5007 105.469 46.3913 105.406 46.3809C105.115 46.2455 104.948 46.1517 104.906 46.0996L104.562 45.7246L104.312 45.5996C104.094 45.3809 103.885 45.2246 103.688 45.1309C103.719 44.9851 103.734 44.8601 103.734 44.7559C103.734 44.683 103.714 44.6205 103.672 44.5684C103.536 44.4121 103.344 44.334 103.094 44.334C103.042 44.334 102.823 44.3965 102.438 44.5215C102.417 44.5319 102.401 44.5371 102.391 44.5371C102.193 44.5371 102.016 44.4017 101.859 44.1309C101.828 44.0684 101.776 43.8757 101.703 43.5528C101.682 43.4486 101.615 43.3548 101.5 43.2715C101.417 43.209 101.349 43.1778 101.297 43.1778C101.297 43.1778 101.167 43.1986 100.906 43.2403C100.885 43.2403 100.865 43.2403 100.844 43.2403C100.677 43.2403 100.312 43.0319 99.75 42.6153C99.5729 42.4798 99.1198 42.1361 98.3906 41.584L97.6719 40.834C97.4948 40.6569 97.3958 40.5528 97.375 40.5215C97.2812 40.4069 97.1302 40.308 96.9219 40.2246C96.526 39.9538 96.0417 39.6465 95.4688 39.3028C95.5312 39.0423 95.6042 38.808 95.6875 38.5996C95.2708 38.4226 95.0208 38.334 94.9375 38.334C94.875 38.334 94.7969 38.3392 94.7031 38.3496C94.5469 38.2038 94.3333 38.0215 94.0625 37.8028L93.4062 37.0684C93.1875 36.8496 93.0573 36.709 93.0156 36.6465C92.9531 36.5423 92.8802 36.3705 92.7969 36.1309C92.5677 36.1309 92.401 36.1101 92.2969 36.0684C92.1719 36.0163 91.9115 35.7923 91.5156 35.3965C91.3698 35.2611 91.2031 35.1934 91.0156 35.1934C90.8698 35.1934 90.7448 35.2403 90.6406 35.334C90.5469 35.4278 90.5 35.5423 90.5 35.6778C90.5 35.709 90.5 35.7455 90.5 35.7871L90.875 35.7559C90.875 35.8809 90.875 35.9798 90.875 36.0528C90.875 36.1465 90.8542 36.334 90.8125 36.6153C90.8021 36.6986 90.7969 36.7819 90.7969 36.8653C90.7969 36.9382 90.8281 37.2767 90.8906 37.8809V38.459L90.9062 38.959C90.9062 39.0423 90.875 39.1153 90.8125 39.1778C90.7083 39.2819 90.651 39.3601 90.6406 39.4121C90.6094 39.5371 90.5625 39.6882 90.5 39.8653C90.7188 39.8861 90.875 39.9486 90.9688 40.0528C90.8646 40.4798 90.8125 41.2403 90.8125 42.334C90.8021 42.5319 90.7396 42.6309 90.625 42.6309C90.5208 42.6309 90.3958 42.5528 90.25 42.3965H90.1094C90.0573 42.4486 90.0312 42.5007 90.0312 42.5528C90.0312 42.9382 90.276 43.1361 90.7656 43.1465C90.8073 43.2611 90.8333 43.5267 90.8438 43.9434L90.8594 44.2246C90.849 44.3392 90.776 44.4955 90.6406 44.6934L90.3281 44.8809L90.4688 45.3028C90.625 45.1569 90.7448 45.084 90.8281 45.084C90.9427 45.084 91 45.3288 91 45.8184C90.9896 45.9017 91.0104 46.0215 91.0625 46.1778C91.1042 46.334 91.125 46.4538 91.125 46.5371C91.125 46.558 91.1198 46.5996 91.1094 46.6621C90.8177 46.8288 90.6302 47.0163 90.5469 47.2246C90.2031 47.2246 89.9271 47.3236 89.7188 47.5215L89.7812 47.7246C89.3646 47.8601 89.0625 47.9955 88.875 48.1309C88.5521 48.3913 88.3438 48.5215 88.25 48.5215C88.1354 48.5215 87.9948 48.4903 87.8281 48.4278C87.8906 48.1465 87.9219 47.959 87.9219 47.8653V47.8184C87.9219 47.7663 87.9219 47.7142 87.9219 47.6621C87.9115 47.5996 87.9062 47.5684 87.9062 47.5684L89.5469 46.6309L88.0312 45.8028C88.0312 45.8028 88.0781 45.7663 88.1719 45.6934C88.3802 45.5267 88.4792 45.3653 88.4688 45.209L88.4219 44.5684L89.7188 43.8965L88.5469 43.2559L88.5938 42.6778L88.5781 41.1778L88.6094 40.8184C88.4844 40.5371 88.4219 40.3705 88.4219 40.3184C88.4219 40.2455 88.4323 40.1621 88.4531 40.0684C88.6094 39.4851 88.6875 39.1621 88.6875 39.0996L88.7812 36.7246L89.625 35.8028C89.1979 35.5632 88.8906 35.3392 88.7031 35.1309L88.8125 35.0215H88.9375L89.0469 35.1309H89.1094V35.0059C89.276 34.8392 89.375 34.6621 89.4062 34.4746L88.9062 34.5371C88.8021 33.7351 88.75 33.0944 88.75 32.6153L88.8281 31.7559V31.7403L88.7969 31.1621L88.8438 30.8965C88.8438 30.4173 88.8698 30.1361 88.9219 30.0528C89.0156 29.9173 89.0625 29.7871 89.0625 29.6621L88.5938 29.4278C88.6771 29.2298 88.724 28.9434 88.7344 28.5684L88.75 28.1309L88.7031 27.6309C88.7031 27.0476 88.6927 26.6778 88.6719 26.5215C88.6302 26.3548 88.5469 26.1778 88.4219 25.9903C88.4948 25.8132 88.5417 25.6934 88.5625 25.6309C88.6042 25.5059 88.6562 25.4017 88.7188 25.3184C88.6562 25.1934 88.625 25.0476 88.625 24.8809C88.7396 24.7871 88.8646 24.7246 89 24.6934V24.0215C88.8542 24.1569 88.7188 24.2298 88.5938 24.2403C88.5521 24.084 88.5208 23.7455 88.5 23.2246C88.4583 22.5267 88.4062 21.9798 88.3438 21.584C88.4792 21.4486 88.5677 21.308 88.6094 21.1621C88.3281 20.9121 88.1875 20.6621 88.1875 20.4121C88.1875 20.2767 88.2135 20.0736 88.2656 19.8028C87.7031 19.7507 87.4115 19.6205 87.3906 19.4121L87.375 19.3184ZM115.312 33.0215C115.375 32.834 115.474 32.6621 115.609 32.5059C115.714 32.3913 115.984 32.2298 116.422 32.0215C116.87 31.7403 117.125 31.5996 117.188 31.5996C117.375 31.5996 117.516 31.6673 117.609 31.8028L117.672 32.0684L117.797 32.5528C117.766 32.6673 117.75 32.7559 117.75 32.8184C117.75 32.9121 117.807 33.0215 117.922 33.1465C118.13 33.084 118.411 32.9538 118.766 32.7559L119.422 32.5371L120.078 32.0996L120.5 31.9278C120.729 31.8132 120.854 31.7559 120.875 31.7559C120.875 31.7559 120.99 31.7767 121.219 31.8184C121.24 31.8184 121.255 31.8184 121.266 31.8184C121.318 31.8184 121.672 31.709 122.328 31.4903C122.401 31.4694 122.557 31.459 122.797 31.459C122.974 31.459 123.099 31.4851 123.172 31.5371C123.182 31.5476 123.292 31.6517 123.5 31.8496C123.625 31.8809 123.698 31.8965 123.719 31.8965C123.74 31.8965 123.891 31.8236 124.172 31.6778C124.193 31.6673 124.219 31.6621 124.25 31.6621C124.385 31.6621 124.542 31.7403 124.719 31.8965C124.885 32.0423 125.005 32.2663 125.078 32.5684C124.922 32.7246 124.609 32.9694 124.141 33.3028C123.911 33.5944 123.745 33.7403 123.641 33.7403C123.474 33.7403 123.255 33.5736 122.984 33.2403C122.797 33.2611 122.641 33.2715 122.516 33.2715C122.38 33.2715 122.156 33.209 121.844 33.084C121.594 32.9903 121.339 32.9278 121.078 32.8965C120.974 33.1048 120.802 33.2194 120.562 33.2403C120.271 33.2611 120.089 33.2819 120.016 33.3028C119.599 33.4278 119.391 33.4903 119.391 33.4903C119.349 33.4903 119.266 33.4538 119.141 33.3809C118.932 33.5684 118.568 33.8496 118.047 34.2246C117.714 34.4642 117.552 34.8861 117.562 35.4903V35.5371C117.562 35.6621 117.562 35.8288 117.562 36.0371C117.573 36.2246 117.578 36.3809 117.578 36.5059C117.578 36.6205 117.458 36.7923 117.219 37.0215C117.396 37.209 117.484 37.3705 117.484 37.5059C117.484 37.5788 117.474 37.6673 117.453 37.7715L117.688 37.834L117.734 38.3028L117.812 41.0996L117.75 41.2715L117.344 41.4903C116.76 41.6048 116.469 41.683 116.469 41.7246C116.469 41.7663 116.797 41.834 117.453 41.9278L117.719 41.8653C117.823 42.209 117.875 42.4434 117.875 42.5684C117.875 42.808 117.755 42.9955 117.516 43.1309C117.422 43.183 117.156 43.2351 116.719 43.2871C116.635 43.308 116.411 43.4382 116.047 43.6778C115.984 43.7194 115.911 43.7403 115.828 43.7403C115.578 43.7403 115.453 43.6309 115.453 43.4121C115.453 43.3496 115.531 43.0528 115.688 42.5215C115.708 42.459 115.719 42.3965 115.719 42.334C115.719 42.3132 115.693 42.0788 115.641 41.6309C115.641 41.5996 115.661 41.5111 115.703 41.3653L116.078 41.2559C116.089 41.1621 116.094 41.0788 116.094 41.0059C116.094 40.8705 116.016 40.709 115.859 40.5215C115.859 40.3757 115.859 40.2455 115.859 40.1309C115.859 40.0371 115.828 39.7923 115.766 39.3965C115.797 39.0528 115.812 38.7611 115.812 38.5215C116.198 38.3861 116.391 38.2194 116.391 38.0215C116.391 37.959 116.375 37.8757 116.344 37.7715C116.219 37.8028 116.115 37.8184 116.031 37.8184C115.958 37.8184 115.87 37.7767 115.766 37.6934C115.766 37.4851 115.766 37.2559 115.766 37.0059V36.6778V36.2559V36.1309C115.766 36.0476 115.76 35.9538 115.75 35.8496C115.75 35.7455 115.75 35.6621 115.75 35.5996C115.75 35.433 115.818 35.209 115.953 34.9278C115.818 34.8132 115.74 34.7142 115.719 34.6309C115.708 34.5996 115.688 34.2611 115.656 33.6153C115.646 33.4903 115.531 33.2923 115.312 33.0215ZM129.031 38.1621C129.156 37.9642 129.276 37.8288 129.391 37.7559C129.474 37.7038 129.786 37.6205 130.328 37.5059C130.724 37.308 130.99 37.1882 131.125 37.1465C131.219 37.1257 131.531 37.0892 132.062 37.0371L132.562 36.8653L132.859 36.834L133.141 36.8028H133.75L134.984 36.6465C135.349 36.6153 135.578 36.5684 135.672 36.5059C135.859 36.3705 135.953 36.1726 135.953 35.9121C135.953 35.8601 135.911 35.6934 135.828 35.4121L136.641 34.3965C136.641 34.3861 136.318 34.2819 135.672 34.084C135.62 34.0632 135.464 34.0528 135.203 34.0528C134.755 33.4798 134.49 33.1621 134.406 33.0996C134.302 33.058 133.906 32.9851 133.219 32.8809H132.719C132.49 32.8184 132.339 32.7871 132.266 32.7871C132.182 32.7871 132.062 32.7976 131.906 32.8184L131.609 32.4434C131.38 32.5267 131.203 32.6413 131.078 32.7871C130.974 32.9017 130.812 33.0007 130.594 33.084C130.052 33.3132 129.604 33.5684 129.25 33.8496L129.031 33.9903C128.896 34.1882 128.807 34.2976 128.766 34.3184C128.641 34.3913 128.495 34.4278 128.328 34.4278C128.266 34.4278 128.073 34.3705 127.75 34.2559C127.396 34.1726 127.177 34.1048 127.094 34.0528C127 33.9903 126.88 33.8601 126.734 33.6621C126.911 33.5267 127.036 33.4278 127.109 33.3653C127.286 33.209 127.406 33.1257 127.469 33.1153L128.203 32.9434L128.672 32.6934L129.672 32.3809L130.297 32.1153H130.938L131.641 31.9121L131.938 31.8965L132.484 31.8028C132.995 31.8132 133.318 31.8184 133.453 31.8184C133.599 31.8288 133.88 31.9017 134.297 32.0371L134.672 32.084C135.078 32.1569 135.365 32.209 135.531 32.2403C135.677 32.2507 135.865 32.3653 136.094 32.584C135.917 32.7403 135.828 32.8705 135.828 32.9746C135.828 33.1205 135.891 33.1934 136.016 33.1934C136.099 33.1934 136.219 33.1517 136.375 33.0684C136.479 33.0267 136.625 32.9798 136.812 32.9278C136.948 33.0632 137.021 33.2403 137.031 33.459L137.422 33.7403C137.443 33.8548 137.453 33.9278 137.453 33.959L137.406 34.5684C137.521 35.0267 137.635 35.3132 137.75 35.4278H137.812C137.844 35.6569 137.885 35.9069 137.938 36.1778C137.969 36.7819 137.99 37.183 138 37.3809C137.76 37.5267 137.641 37.6673 137.641 37.8028C137.641 37.959 137.781 38.0996 138.062 38.2246C138.073 38.3601 138.078 38.4746 138.078 38.5684C138.078 38.6621 138.057 38.8444 138.016 39.1153C138.005 39.2298 138 39.3444 138 39.459C138 39.8028 138.057 40.2298 138.172 40.7403C137.984 40.9278 137.891 41.1153 137.891 41.3028C137.891 41.459 137.979 41.6621 138.156 41.9121C138.177 41.9538 138.214 42.0528 138.266 42.209C138.297 42.2819 138.354 42.4226 138.438 42.6309C138.323 42.7663 138.24 42.8965 138.188 43.0215C138.104 43.0944 137.943 43.1778 137.703 43.2715L137.109 43.5371L136.734 43.6465C136.349 43.7819 136.135 43.8496 136.094 43.8496C135.99 43.8496 135.875 43.7923 135.75 43.6778L135.984 42.6309C135.682 42.7038 135.245 42.8653 134.672 43.1153L134.219 43.209C133.948 43.2715 133.807 43.3028 133.797 43.3028L133.219 43.2403L132.641 43.5371L132.328 43.5684L131.062 43.834L130.406 43.7871C130.083 43.9017 129.865 43.959 129.75 43.959C129.604 43.959 129.198 43.8913 128.531 43.7559L127.875 43.6934L127.391 43.4903C127.026 43.3548 126.755 43.2194 126.578 43.084C126.422 42.9694 126.297 42.7715 126.203 42.4903L125.844 42.3653C125.802 42.2611 125.755 42.0736 125.703 41.8028L125.547 41.1309V41.1153C125.536 41.0215 125.604 40.8705 125.75 40.6621C125.865 40.5059 126.01 40.2403 126.188 39.8653C126.698 39.3653 127.036 39.0423 127.203 38.8965C127.349 38.7819 127.677 38.6205 128.188 38.4121C128.479 38.2246 128.661 38.1309 128.734 38.1309C128.818 38.1309 128.917 38.1413 129.031 38.1621ZM128.062 41.4746C127.979 41.6101 127.901 41.7507 127.828 41.8965C127.714 42.084 127.661 42.209 127.672 42.2715L127.828 42.5684L128.266 42.1934C128.62 42.4434 128.865 42.5788 129 42.5996C129.385 42.7038 129.594 42.7611 129.625 42.7715C129.688 42.8132 129.776 42.9226 129.891 43.0996C130.13 43.1309 130.292 43.1517 130.375 43.1621C130.458 43.1726 130.526 43.1778 130.578 43.1778C130.693 43.1778 130.833 43.1048 131 42.959C131.146 43.0632 131.271 43.1153 131.375 43.1153C131.396 43.1153 131.51 43.0476 131.719 42.9121L132.156 43.0059C132.156 43.0059 132.438 42.9069 133 42.709L133.406 42.5215L133.75 42.584L134.344 42.334L135.031 42.0684C135.208 41.7976 135.318 41.6413 135.359 41.5996C135.453 41.5059 135.635 41.4226 135.906 41.3496L136 40.8496C136.188 40.7455 136.302 40.5996 136.344 40.4121C136.198 40.308 136.094 40.1986 136.031 40.084C136.042 39.9069 136.047 39.7767 136.047 39.6934V39.4434C136.036 39.1621 136.026 38.9226 136.016 38.7246C136.005 38.6621 136 38.6048 136 38.5528C136 38.4278 136.042 38.2455 136.125 38.0059C136.031 37.9955 135.911 37.933 135.766 37.8184L135.094 37.834L134.484 37.8028L134.016 37.8184H133.719C133.677 37.8184 133.521 37.7351 133.25 37.5684L132.906 37.6778C132.49 37.6778 132.182 37.709 131.984 37.7715C131.859 37.8236 131.755 37.8496 131.672 37.8496C131.651 37.8496 131.531 37.8184 131.312 37.7559C131.302 37.7559 131.292 37.7559 131.281 37.7559C131.229 37.7559 131.062 37.8496 130.781 38.0371C130.74 38.0684 130.469 38.1726 129.969 38.3496C129.302 38.6413 128.823 38.9173 128.531 39.1778C128.5 39.209 128.385 39.3653 128.188 39.6465C128.125 39.7403 127.943 39.8288 127.641 39.9121C127.599 39.9851 127.578 40.0423 127.578 40.084C127.578 40.1153 127.62 40.1778 127.703 40.2715L127.812 41.1153C127.833 41.1882 127.917 41.308 128.062 41.4746ZM141.859 32.6778C141.943 32.2715 142.083 32.0684 142.281 32.0684H142.297L143.062 32.1153H143.094C143.677 32.0319 144.01 31.9851 144.094 31.9746C144.094 31.7871 144.094 31.6621 144.094 31.5996C144.094 30.6205 144.073 29.8184 144.031 29.1934C144.01 28.9226 143.948 28.6778 143.844 28.459L143.688 28.1309C143.646 28.0476 143.625 27.959 143.625 27.8653C143.625 27.709 143.75 27.5215 144 27.3028C144.385 26.9486 144.875 26.7142 145.469 26.5996C145.604 26.3184 145.75 26.1778 145.906 26.1778C145.969 26.1778 146.021 26.2038 146.062 26.2559C146.208 26.4121 146.281 26.6153 146.281 26.8653C146.281 26.8757 146.234 27.6986 146.141 29.334C146.016 29.7611 145.938 30.0111 145.906 30.084C145.865 30.2298 145.745 30.3809 145.547 30.5371C145.547 30.7455 145.578 30.9486 145.641 31.1465H146L145.906 31.9434C146.167 31.9642 146.708 32.0892 147.531 32.3184C147.583 32.3288 147.76 32.334 148.062 32.334C148.25 32.334 148.557 32.2715 148.984 32.1465L150.016 32.0528C150.547 31.8444 150.859 31.7403 150.953 31.7403C151.089 31.7403 151.255 31.7559 151.453 31.7871C151.432 32.0788 151.401 32.2871 151.359 32.4121C151.318 32.5684 150.99 32.834 150.375 33.209C150.229 33.2923 150.125 33.3705 150.062 33.4434C149.906 33.6309 149.823 33.7246 149.812 33.7246C149.76 33.7663 149.635 33.7871 149.438 33.7871C149.281 33.7871 149.167 33.7663 149.094 33.7246L148.453 33.3809L148.062 33.2871L147.594 32.9434L146.797 33.5528L146.109 33.459C146.057 33.459 145.953 33.5111 145.797 33.6153C145.88 34.1153 145.922 34.5371 145.922 34.8809C145.922 35.0476 145.917 35.2923 145.906 35.6153C145.521 35.6778 145.328 35.834 145.328 36.084C145.328 36.1778 145.349 36.2923 145.391 36.4278C145.62 36.4486 145.812 36.4798 145.969 36.5215L145.938 38.4746C145.781 38.433 145.651 38.4121 145.547 38.4121C145.359 38.4121 145.266 38.4903 145.266 38.6465C145.266 38.7715 145.312 38.9226 145.406 39.0996C145.552 39.0059 145.677 38.959 145.781 38.959C145.938 38.959 146.016 39.058 146.016 39.2559L145.969 39.8809V39.9121C145.99 40.3392 146.005 40.6465 146.016 40.834C146.036 41.0319 146.099 41.2298 146.203 41.4278L146.391 41.7559C146.411 41.7976 146.422 41.8601 146.422 41.9434C146.422 42.0371 146.411 42.1569 146.391 42.3028C146.714 42.4903 147.073 42.584 147.469 42.584C147.802 42.584 148.135 42.5007 148.469 42.334C148.74 42.1882 148.885 42.1048 148.906 42.084L149.766 41.3028C150.193 40.9486 150.453 40.7715 150.547 40.7715C150.641 40.7715 150.771 40.8184 150.938 40.9121C150.906 41.1101 150.885 41.2455 150.875 41.3184C150.802 41.8601 150.729 42.1778 150.656 42.2715C150.583 42.3548 150.266 42.4851 149.703 42.6621C149.276 42.8809 148.63 43.1361 147.766 43.4278L147.234 43.5996C146.88 43.7976 146.677 43.8965 146.625 43.8965C146.531 43.8965 146.427 43.8028 146.312 43.6153L146.031 43.5371L145.859 43.9278C145.714 43.9486 145.589 43.959 145.484 43.959C145.214 43.959 144.891 43.7819 144.516 43.4278C144.349 43.2611 144.214 43.0892 144.109 42.9121C144.099 42.9017 144.057 42.7663 143.984 42.5059C143.87 42.1621 143.812 41.9642 143.812 41.9121C143.812 41.8184 143.823 41.6673 143.844 41.459C143.865 41.2923 143.875 40.9434 143.875 40.4121C143.885 40.0684 143.979 39.808 144.156 39.6309C144.094 39.433 144.062 39.1934 144.062 38.9121C144.01 38.433 143.979 37.5215 143.969 36.1778C144.219 36.0215 144.344 35.8705 144.344 35.7246C144.344 35.6413 144.333 35.5423 144.312 35.4278L143.859 35.3184L143.828 35.1778V35.1621C143.828 35.1101 143.844 35.0007 143.875 34.834C143.938 34.5632 143.969 34.0944 143.969 33.4278C143.542 33.334 143.229 33.2871 143.031 33.2871C142.969 33.2871 142.698 33.3184 142.219 33.3809L141.891 33.4121C141.599 33.5059 141.443 33.5528 141.422 33.5528C141.276 33.5528 141.203 33.4851 141.203 33.3496C141.203 33.1413 141.422 32.9173 141.859 32.6778ZM153.203 39.334C153.203 38.6465 153.245 38.1465 153.328 37.834C153.411 37.5632 153.557 37.1517 153.766 36.5996C154.193 35.808 154.438 35.3601 154.5 35.2559C154.562 35.1621 154.802 34.9798 155.219 34.709C155.229 34.6986 155.307 34.5423 155.453 34.2403C155.547 34.0736 155.625 33.9746 155.688 33.9434C155.802 33.8496 156.203 33.6361 156.891 33.3028C157.109 33.1986 157.359 33.0007 157.641 32.709C157.682 32.6673 158.307 32.4226 159.516 31.9746C160.141 31.7351 161.052 31.6153 162.25 31.6153C162.49 31.6153 162.802 31.6569 163.188 31.7403L163.25 32.0684C163.396 32.1309 163.521 32.2038 163.625 32.2871C163.781 32.2351 163.906 32.0996 164 31.8809C164.573 32.0059 165.073 32.2142 165.5 32.5059C165.823 32.7038 166.005 32.8288 166.047 32.8809C166.068 32.9121 166.172 33.0944 166.359 33.4278C166.568 33.7507 166.922 33.9173 167.422 33.9278C167.672 34.3444 167.828 34.6517 167.891 34.8496C167.964 35.0476 168.031 35.3809 168.094 35.8496C168.156 36.3288 168.203 36.7038 168.234 36.9746H167.984V37.1621L167.672 37.5215C167.714 37.6986 167.859 37.8653 168.109 38.0215C168.078 38.4798 168.047 38.7923 168.016 38.959C167.995 39.0319 167.917 39.2142 167.781 39.5059C167.396 40.4121 167.125 40.9903 166.969 41.2403C166.417 41.9069 165.911 42.3132 165.453 42.459L164.609 42.8809L163.812 43.2559C163.396 43.4851 163.151 43.6101 163.078 43.6309C163.005 43.6413 162.5 43.6726 161.562 43.7246L160.469 43.959H159.359L158.859 44.0215C157.943 43.8653 157.37 43.7819 157.141 43.7715C156.995 43.6048 156.885 43.5059 156.812 43.4746C156.792 43.4642 156.589 43.4278 156.203 43.3653C155.995 43.3236 155.583 43.0996 154.969 42.6934C154.875 42.6413 154.688 42.5371 154.406 42.3809C154.344 42.1934 154.302 42.0632 154.281 41.9903C154.24 41.8757 154.198 41.7976 154.156 41.7559C154.146 41.7559 154.036 41.683 153.828 41.5371C153.818 41.5371 153.781 41.4903 153.719 41.3965C153.49 41.0319 153.375 40.6673 153.375 40.3028C153.375 40.1257 153.484 39.959 153.703 39.8028C153.609 39.6361 153.448 39.5007 153.219 39.3965L153.203 39.334ZM154.922 39.0215V39.1778L155.062 39.3184C155.167 39.2246 155.271 39.1726 155.375 39.1621C155.458 39.5163 155.531 39.7871 155.594 39.9746C155.646 40.0892 155.917 40.5423 156.406 41.334C156.417 41.3548 156.422 41.3861 156.422 41.4278C156.422 41.5215 156.37 41.6726 156.266 41.8809C156.307 42.0267 156.448 42.1048 156.688 42.1153C156.792 42.0111 156.88 41.959 156.953 41.959C157.016 41.959 157.474 42.1778 158.328 42.6153C158.693 42.7923 159.062 42.8809 159.438 42.8809H160.359L160.828 42.9903C161.026 43.0423 161.198 43.0684 161.344 43.0684C161.583 43.0684 161.854 43.0319 162.156 42.959C162.354 42.9069 162.641 42.8444 163.016 42.7715C163.12 42.7403 163.474 42.5163 164.078 42.0996C164.484 41.9642 164.714 41.8705 164.766 41.8184C164.839 41.7351 165.036 41.4278 165.359 40.8965L165.75 40.1153C166.01 39.8653 166.161 39.709 166.203 39.6465C166.245 39.5736 166.266 39.4746 166.266 39.3496C166.099 39.0996 166.021 38.933 166.031 38.8496V38.834L166.094 38.5215C166.115 38.0423 166.177 37.6517 166.281 37.3496C166.198 37.1517 166.099 36.8392 165.984 36.4121L165.734 35.5996C165.714 35.4955 165.698 35.2819 165.688 34.959L165.625 34.8965H165.25C165.135 34.6778 164.901 34.3496 164.547 33.9121C164.339 33.6517 164.219 33.5111 164.188 33.4903C164.167 33.459 164.068 33.4069 163.891 33.334C163.745 33.2715 163.484 33.1673 163.109 33.0215C163.005 32.6569 162.839 32.4746 162.609 32.4746C162.547 32.4746 162.385 32.5267 162.125 32.6309C161.802 32.5476 161.62 32.5059 161.578 32.5059C161.036 32.5059 160.682 32.5163 160.516 32.5371C160.339 32.5476 160.068 32.6673 159.703 32.8965L159.375 32.6621C159.219 32.8705 159.099 32.9955 159.016 33.0371L158.344 33.3809L158.234 33.5059L156.359 35.084L156.219 35.1934C156.198 35.4851 156.167 35.6673 156.125 35.7403L155.812 36.2871C155.708 36.5788 155.578 36.8236 155.422 37.0215C155.432 37.1048 155.438 37.1778 155.438 37.2403C155.438 37.4798 155.255 37.6726 154.891 37.8184C154.891 37.8496 154.932 37.9694 155.016 38.1778C155.297 38.3757 155.438 38.5059 155.438 38.5684C155.438 38.683 155.266 38.834 154.922 39.0215ZM179.609 37.7871L179.203 38.084C178.797 37.9694 178.474 37.9121 178.234 37.9121C177.953 37.9121 177.615 37.933 177.219 37.9746C177.104 37.7351 176.948 37.5528 176.75 37.4278L176.453 37.8184C176.234 37.8496 175.974 37.9069 175.672 37.9903C175.547 38.0215 175.438 38.0371 175.344 38.0371C175.323 38.0371 175.292 38.0319 175.25 38.0215C174.854 37.9382 174.656 37.8965 174.656 37.8965C174.646 37.8965 174.63 37.9121 174.609 37.9434L174.312 37.6309C174.146 37.7038 174.005 37.7403 173.891 37.7403C173.849 37.7403 173.719 37.6882 173.5 37.584C173.448 37.5632 173.354 37.5267 173.219 37.4746C172.417 37.1934 172.016 36.7351 172.016 36.0996C172.016 35.5476 172.229 35.0007 172.656 34.459C172.771 34.3028 173.062 34.0267 173.531 33.6309L173.844 33.334L174.578 32.8965C175.328 32.4382 175.88 32.1361 176.234 31.9903C177.047 31.6569 177.698 31.4903 178.188 31.4903C178.271 31.4903 178.74 31.5996 179.594 31.8184L180.406 31.6778C180.917 31.709 181.214 31.7455 181.297 31.7871C181.505 31.8913 181.609 31.9955 181.609 32.0996C181.609 32.2038 181.557 32.308 181.453 32.4121C181.422 32.433 181.167 32.5892 180.688 32.8809C180.188 33.183 179.906 33.334 179.844 33.334C179.167 33.334 178.672 33.2871 178.359 33.1934C178.255 32.9746 178.146 32.7976 178.031 32.6621H177.938L177.641 32.9746C177.464 32.9851 177.333 32.9903 177.25 32.9903C177.156 32.9903 177.068 32.9851 176.984 32.9746C176.87 32.9642 176.786 32.959 176.734 32.959C176.714 32.959 176.578 32.9903 176.328 33.0528C176.245 32.9903 176.089 32.959 175.859 32.959C175.651 33.1153 175.307 33.3236 174.828 33.584C174.578 33.7194 174.359 33.9226 174.172 34.1934C173.995 34.4642 173.906 34.7194 173.906 34.959C173.906 35.0736 174.005 35.2194 174.203 35.3965C174.234 35.4278 174.417 35.5111 174.75 35.6465C174.948 35.7403 175.151 35.8548 175.359 35.9903C175.349 36.0736 175.344 36.1413 175.344 36.1934C175.344 36.4121 175.432 36.5215 175.609 36.5215C175.776 36.5215 175.964 36.3861 176.172 36.1153C176.411 36.1465 176.615 36.1621 176.781 36.1621C176.844 36.1621 177.141 36.1153 177.672 36.0215L178.172 36.0684C178.63 36.0059 178.88 35.9746 178.922 35.9746C178.995 35.9746 179.26 36.0476 179.719 36.1934L180.281 36.1309L180.844 36.5215C181.448 36.8028 181.859 37.0684 182.078 37.3184C182.245 37.5267 182.339 37.6934 182.359 37.8184L182.469 38.334C182.615 38.959 182.688 39.3184 182.688 39.4121C182.688 39.4746 182.667 39.6569 182.625 39.959C182.573 40.6257 182.38 40.959 182.047 40.959C181.943 40.959 181.823 40.9434 181.688 40.9121C181.562 41.433 181.458 41.7298 181.375 41.8028C180.906 42.3444 180.604 42.709 180.469 42.8965C179.938 42.9694 179.5 43.1309 179.156 43.3809C179 43.5059 178.906 43.5736 178.875 43.584C178.844 43.5944 178.714 43.6101 178.484 43.6309L177.219 43.9746C176.802 43.9017 176.573 43.8653 176.531 43.8653C176.469 43.8653 176.156 43.9486 175.594 44.1153L175.219 44.0684C174.719 44.0371 174.344 43.9955 174.094 43.9434C173.552 43.808 173.266 43.709 173.234 43.6465L172.734 43.3184C172.12 42.9434 171.74 42.6726 171.594 42.5059C171.281 42.1413 171.125 41.7871 171.125 41.4434C171.125 41.3705 171.24 41.2455 171.469 41.0684L171.891 40.6778C172.286 40.3861 172.516 40.2403 172.578 40.2403C172.62 40.2403 172.656 40.2559 172.688 40.2871C172.927 40.5163 173.047 40.7663 173.047 41.0371L172.984 41.5371V41.5528C172.974 41.6465 173 41.7194 173.062 41.7715C173.104 41.8132 173.292 41.9278 173.625 42.1153C173.698 42.1569 173.792 42.2246 173.906 42.3184C174.167 42.5476 174.302 42.6621 174.312 42.6621L174.891 42.8965L175.422 43.1778H176.016L176.391 43.2559C176.776 43.1413 177.12 43.0788 177.422 43.0684C177.714 43.058 177.927 43.0163 178.062 42.9434L178.672 42.6465C179.005 42.5319 179.198 42.4538 179.25 42.4121C179.448 42.2559 179.708 41.9121 180.031 41.3809C180.365 40.8288 180.531 40.1986 180.531 39.4903C180.531 39.334 180.484 39.1882 180.391 39.0528C179.984 38.4382 179.724 38.0163 179.609 37.7871Z" fill="white"/>
</svg>
