<svg width="190" height="69" viewBox="0 0 190 69" fill="none" xmlns="http://www.w3.org/2000/svg">
<path d="M34.5 69C53.5538 69 69 53.5538 69 34.5C69 15.4462 53.5538 0 34.5 0C15.4462 0 0 15.4462 0 34.5C0 53.5538 15.4462 69 34.5 69Z" fill="white"/>
<path d="M42.4403 5C43.9977 5 45.5639 7.14876 45.7726 9.44134C45.863 10.4283 44.8973 10.9754 44.8973 12.1766C44.8973 13.7459 43.7618 15.7199 43.2804 16.9C41.8222 18.7646 42.6049 19.1559 41.2556 19.1559C39.0235 19.1545 38.3981 16.1386 38.3981 12.1759C38.3981 10.2168 38.7009 10.7329 39.4182 9.44134C40.1539 8.11599 41.3151 5 42.4403 5Z" fill="#DB5431"/>
<path d="M39.4029 9.34903L34.241 19.6008L39.4029 31.0883L48.006 42.946V37.3916L50.6379 33.0643L42.7432 23.0594V19.6008L45.8815 9.34903H39.4029Z" fill="#DB5431"/>
<path d="M32.4031 28.5285L31.1582 29.2004L20.024 23.45L18 24.346H20.024L31.1582 30.3205L32.4031 28.5285Z" fill="black"/>
<path d="M35.8308 28.5285L37.0804 29.2004L48.2135 23.45L50.2375 24.346H48.2135L37.0804 30.3205L35.8308 28.5285Z" fill="black"/>
<path d="M28.8464 20.5397L27.7821 21.9019L26.8617 27.4765L24.4745 32.6098L22.1521 36.5031L22.5472 38.5496C22.1994 38.8802 21.8928 39.2485 21.6337 39.647C21.5734 39.7692 21.7999 40.047 21.8093 40.0306" stroke="#DB5431" stroke-linecap="round"/>
<path d="M34.4727 63.4608L33.4577 62.6853V62.4322L33.1902 62.4816L32.2935 61.7978L32.7609 60.6578L31.8474 61.4601V61.0272L31.4064 61.1224L29.2934 58.9807L28.7789 59.1217L28.6217 58.6853L27.9815 58.7438L27.2804 57.7794C26.5539 56.8821 25.9321 55.9112 25.4261 54.8841C25.0167 54.0844 24.7614 53.2203 24.6728 52.3335C24.6251 51.9156 24.6677 51.4928 24.7979 51.0914C24.9282 50.6901 25.1432 50.3188 25.4298 50.0007C25.7565 51.0432 26.3297 51.9993 27.1047 52.7945C28.6739 54.4653 31.5211 54.5499 32.076 54.5499C32.1583 54.5499 32.2053 54.5499 32.2053 54.5499C32.209 54.5245 32.589 51.852 31.3109 49.988C32.4715 50.1324 33.6404 50.2075 34.8107 50.2129C35.3913 50.2129 35.9536 50.191 36.4813 50.148C35.4524 52.1763 36.2292 54.8009 36.2373 54.8263C36.2696 54.8263 39.5666 54.4949 41.0336 52.4082C41.7663 51.4219 42.2093 50.2649 42.3161 49.0582C42.7196 49.3782 42.9188 50.062 42.9085 51.0899C42.8714 52.1343 42.7306 53.173 42.4881 54.1918C42.1769 55.5715 41.7915 56.9349 41.3335 58.2764C41.3335 58.2764 41.1644 58.3836 40.9285 58.5584C40.915 58.5682 40.8984 58.5731 40.8815 58.5725C40.8523 58.5706 40.8236 58.5647 40.7962 58.5549C40.7669 58.5446 40.7362 58.5385 40.7051 58.5365C40.681 58.5358 40.6575 58.5436 40.6389 58.5584C40.5937 58.6144 40.5652 58.6812 40.5566 58.7516C40.546 58.8351 40.5105 58.9139 40.4545 58.9786C40.4516 58.9795 40.4485 58.9795 40.4456 58.9786C40.3574 58.952 40.273 58.9151 40.1943 58.8686L40.1752 58.8587C40.0893 58.8079 39.9969 58.7678 39.9003 58.7396C39.8967 58.7384 39.8929 58.7384 39.8893 58.7396C39.8569 58.765 39.9275 58.8693 40.0025 58.9793C40.0774 59.0892 40.1583 59.2084 40.1208 59.2373C39.574 59.668 39.0691 60.0579 38.6207 60.3963C38.6133 60.4023 38.604 60.4058 38.5943 60.4061C38.5539 60.4061 38.5142 60.3427 38.476 60.2814C38.4377 60.22 38.3973 60.1573 38.3562 60.1573C38.3459 60.1576 38.336 60.1614 38.3282 60.1679C38.2731 60.2095 38.2643 60.3089 38.2547 60.4076C38.2452 60.5062 38.2371 60.6099 38.1812 60.6536C38.1763 60.6568 38.1703 60.6583 38.1643 60.6578C37.9546 60.5606 37.7617 60.4329 37.5925 60.2792C37.4232 60.125 37.2298 59.997 37.0193 59.9C37.0132 59.8998 37.0073 59.9015 37.0024 59.9049C36.9362 59.9543 37.0928 60.2574 37.2434 60.5478C37.3941 60.8383 37.5462 61.133 37.4823 61.1823L36.1197 62.2116C36.1145 62.215 36.1083 62.2168 36.1021 62.2165C36.0569 62.2064 36.0143 62.1874 35.9771 62.1608C35.94 62.134 35.8974 62.115 35.8522 62.1051C35.8453 62.1049 35.8386 62.1069 35.8331 62.1108C35.811 62.127 35.822 62.1954 35.8331 62.268C35.8441 62.3406 35.8558 62.409 35.8331 62.428L34.4756 63.4538L34.4727 63.4608Z" fill="black"/>
<path d="M86.375 18.3184L87.9688 17.209L88.0938 17.2403C88.5208 16.959 88.8594 16.6934 89.1094 16.4434L89.3906 16.5059C89.4427 16.5059 89.5104 16.5007 89.5938 16.4903C89.6354 16.4903 89.6667 16.4903 89.6875 16.4903C89.8021 16.4903 89.901 16.5319 89.9844 16.6153C90.0677 16.7194 90.1094 16.8184 90.1094 16.9121L90.0781 17.4434V18.2246C89.9844 18.7559 89.9375 19.0944 89.9375 19.2403C89.9375 19.4486 89.9688 19.7559 90.0312 20.1621L89.5469 20.7715L89.125 20.6934L89.1875 21.1153V21.5996L89.2812 21.8809H89.3594L89.6562 21.6621C89.7708 21.8184 89.8281 21.9434 89.8281 22.0371C89.8281 22.0684 89.8177 22.1309 89.7969 22.2246C89.7656 22.3184 89.75 22.3965 89.75 22.459L89.7969 25.5996L89.7656 26.2559C89.7552 26.9955 89.724 27.3861 89.6719 27.4278L89.2969 27.7715C89.2448 27.8236 89.2188 27.8965 89.2188 27.9903C89.2188 28.1465 89.3333 28.3288 89.5625 28.5371C89.5938 28.7559 89.6771 29.0007 89.8125 29.2715L89.6875 29.8184L89.7344 30.3184L89.7031 31.1153C89.7448 31.6569 89.7656 32.0632 89.7656 32.334L89.9844 32.4434V32.7403L90.0938 32.8496C90.5729 32.6517 90.8438 32.5267 90.9062 32.4746C91.5104 32.0371 91.901 31.7663 92.0781 31.6621L92.1562 31.709L92.625 31.1465L94.9531 28.709L95.1719 28.209L96.7969 26.1309C96.9635 25.9121 97.1562 25.7038 97.375 25.5059C97.5312 25.3392 97.7969 25.0111 98.1719 24.5215L97.9844 24.2403V24.2246C98.151 23.8601 98.5625 23.2871 99.2188 22.5059L99.4844 22.4278C99.5156 22.2298 99.625 21.9851 99.8125 21.6934L100.125 21.1621L100.391 20.7715L100.812 20.0059C101.115 19.7038 101.375 19.3653 101.594 18.9903C101.823 18.6048 102 18.3132 102.125 18.1153C102.406 18.0736 102.578 18.0267 102.641 17.9746L102.984 17.709C103.286 17.4903 103.453 17.3705 103.484 17.3496C103.505 17.3288 103.583 17.3132 103.719 17.3028C103.823 17.3028 103.964 17.2298 104.141 17.084C104.359 16.9069 104.547 16.8184 104.703 16.8184L104.828 17.0371V17.0528C104.828 17.1153 104.719 17.3028 104.5 17.6153C104.292 18.0423 104.182 18.2663 104.172 18.2871C104.172 18.2871 104.005 18.4278 103.672 18.709C103.214 19.2923 102.948 19.6465 102.875 19.7715C102.729 20.0736 102.589 20.308 102.453 20.4746L101.5 20.3809L101.453 21.0684L101.719 21.1778C101.719 21.4382 101.656 21.6517 101.531 21.8184C101.438 21.9538 101.276 22.1309 101.047 22.3496C101.016 22.4955 100.958 22.6048 100.875 22.6778C100.76 22.8028 100.646 22.9278 100.531 23.0528L100.031 23.4278C99.8958 23.8028 99.8177 24.0111 99.7969 24.0528C99.776 24.084 99.6771 24.1569 99.5 24.2715C99.5 24.4694 99.4792 24.5996 99.4375 24.6621C99.3958 24.7455 99.2292 24.9069 98.9375 25.1465C98.4167 25.6673 97.8333 26.3757 97.1875 27.2715L96.3438 28.1934C95.9062 28.7767 95.5885 29.1673 95.3906 29.3653L95.2812 29.8028C95.0312 29.9486 94.8802 30.0528 94.8281 30.1153C94.776 30.1673 94.6042 30.4382 94.3125 30.9278C94.0208 31.1153 93.8542 31.2298 93.8125 31.2715C93.7708 31.3132 93.7135 31.4486 93.6406 31.6778L93.2188 31.7246C93.1146 31.8601 93.0469 31.9486 93.0156 31.9903C92.8594 32.1673 92.7812 32.2767 92.7812 32.3184C92.7812 32.3288 92.7865 32.3444 92.7969 32.3653L92.8125 32.4278L94.2969 34.209C94.6198 34.584 94.7812 34.9226 94.7812 35.2246C94.7812 35.2871 94.776 35.3653 94.7656 35.459C94.9948 35.459 95.1615 35.4694 95.2656 35.4903C95.3802 35.5215 95.5625 35.6673 95.8125 35.9278C96.0625 36.1673 96.2396 36.3913 96.3438 36.5996C96.4792 36.6101 96.599 36.6517 96.7031 36.7246C97.099 37.0163 97.2969 37.2611 97.2969 37.459C97.2969 37.5632 97.25 37.6934 97.1562 37.8496C97.3125 37.9955 97.5469 38.1517 97.8594 38.3184L98.3125 38.6309L98.6719 38.7246C98.7031 38.683 98.8229 38.7923 99.0312 39.0528H99.3594C99.6719 39.4069 100.125 39.8028 100.719 40.2403L102.688 41.6465L103.188 41.9278C103.177 42.0215 103.172 42.1048 103.172 42.1778C103.172 42.3548 103.255 42.459 103.422 42.4903C103.599 42.5215 103.74 42.558 103.844 42.5996V42.8809C103.896 42.9226 104.042 42.9694 104.281 43.0215C104.5 43.1048 104.766 43.1778 105.078 43.2403C105.349 43.3028 105.589 43.433 105.797 43.6309C106.953 44.3288 107.547 44.6934 107.578 44.7246C107.651 44.7871 107.708 44.9434 107.75 45.1934C108.052 45.2663 108.318 45.3705 108.547 45.5059L108.875 45.2246C109.125 45.3392 109.458 45.4382 109.875 45.5215C110.292 45.6048 110.646 45.6465 110.938 45.6465C110.948 45.6465 110.969 45.6465 111 45.6465C111.729 45.5423 112.094 45.4903 112.094 45.4903C112.115 45.4903 112.161 45.5319 112.234 45.6153L112.281 45.7403C112.344 46.2194 111.859 46.5684 110.828 46.7871L110.578 47.1153C110.276 47.1361 110.078 47.1673 109.984 47.209C109.953 47.2194 109.792 47.3132 109.5 47.4903L109.156 47.4434C108.865 47.4121 108.698 47.3913 108.656 47.3809C108.625 47.3705 108.542 47.3132 108.406 47.209L107.844 47.2871C107.542 47.0371 107.318 46.8653 107.172 46.7715C107.078 46.6986 106.802 46.5528 106.344 46.334C106.073 46.1778 105.849 46.0736 105.672 46.0215C105.536 45.9903 105.318 45.8861 105.016 45.709C104.672 45.5007 104.469 45.3913 104.406 45.3809C104.115 45.2455 103.948 45.1517 103.906 45.0996L103.562 44.7246L103.312 44.5996C103.094 44.3809 102.885 44.2246 102.688 44.1309C102.719 43.9851 102.734 43.8601 102.734 43.7559C102.734 43.683 102.714 43.6205 102.672 43.5684C102.536 43.4121 102.344 43.334 102.094 43.334C102.042 43.334 101.823 43.3965 101.438 43.5215C101.417 43.5319 101.401 43.5371 101.391 43.5371C101.193 43.5371 101.016 43.4017 100.859 43.1309C100.828 43.0684 100.776 42.8757 100.703 42.5528C100.682 42.4486 100.615 42.3548 100.5 42.2715C100.417 42.209 100.349 42.1778 100.297 42.1778C100.297 42.1778 100.167 42.1986 99.9062 42.2403C99.8854 42.2403 99.8646 42.2403 99.8438 42.2403C99.6771 42.2403 99.3125 42.0319 98.75 41.6153C98.5729 41.4798 98.1198 41.1361 97.3906 40.584L96.6719 39.834C96.4948 39.6569 96.3958 39.5528 96.375 39.5215C96.2812 39.4069 96.1302 39.308 95.9219 39.2246C95.526 38.9538 95.0417 38.6465 94.4688 38.3028C94.5312 38.0423 94.6042 37.808 94.6875 37.5996C94.2708 37.4226 94.0208 37.334 93.9375 37.334C93.875 37.334 93.7969 37.3392 93.7031 37.3496C93.5469 37.2038 93.3333 37.0215 93.0625 36.8028L92.4062 36.0684C92.1875 35.8496 92.0573 35.709 92.0156 35.6465C91.9531 35.5423 91.8802 35.3705 91.7969 35.1309C91.5677 35.1309 91.401 35.1101 91.2969 35.0684C91.1719 35.0163 90.9115 34.7923 90.5156 34.3965C90.3698 34.2611 90.2031 34.1934 90.0156 34.1934C89.8698 34.1934 89.7448 34.2403 89.6406 34.334C89.5469 34.4278 89.5 34.5423 89.5 34.6778C89.5 34.709 89.5 34.7455 89.5 34.7871L89.875 34.7559C89.875 34.8809 89.875 34.9798 89.875 35.0528C89.875 35.1465 89.8542 35.334 89.8125 35.6153C89.8021 35.6986 89.7969 35.7819 89.7969 35.8653C89.7969 35.9382 89.8281 36.2767 89.8906 36.8809V37.459L89.9062 37.959C89.9062 38.0423 89.875 38.1153 89.8125 38.1778C89.7083 38.2819 89.651 38.3601 89.6406 38.4121C89.6094 38.5371 89.5625 38.6882 89.5 38.8653C89.7188 38.8861 89.875 38.9486 89.9688 39.0528C89.8646 39.4798 89.8125 40.2403 89.8125 41.334C89.8021 41.5319 89.7396 41.6309 89.625 41.6309C89.5208 41.6309 89.3958 41.5528 89.25 41.3965H89.1094C89.0573 41.4486 89.0312 41.5007 89.0312 41.5528C89.0312 41.9382 89.276 42.1361 89.7656 42.1465C89.8073 42.2611 89.8333 42.5267 89.8438 42.9434L89.8594 43.2246C89.849 43.3392 89.776 43.4955 89.6406 43.6934L89.3281 43.8809L89.4688 44.3028C89.625 44.1569 89.7448 44.084 89.8281 44.084C89.9427 44.084 90 44.3288 90 44.8184C89.9896 44.9017 90.0104 45.0215 90.0625 45.1778C90.1042 45.334 90.125 45.4538 90.125 45.5371C90.125 45.558 90.1198 45.5996 90.1094 45.6621C89.8177 45.8288 89.6302 46.0163 89.5469 46.2246C89.2031 46.2246 88.9271 46.3236 88.7188 46.5215L88.7812 46.7246C88.3646 46.8601 88.0625 46.9955 87.875 47.1309C87.5521 47.3913 87.3438 47.5215 87.25 47.5215C87.1354 47.5215 86.9948 47.4903 86.8281 47.4278C86.8906 47.1465 86.9219 46.959 86.9219 46.8653V46.8184C86.9219 46.7663 86.9219 46.7142 86.9219 46.6621C86.9115 46.5996 86.9062 46.5684 86.9062 46.5684L88.5469 45.6309L87.0312 44.8028C87.0312 44.8028 87.0781 44.7663 87.1719 44.6934C87.3802 44.5267 87.4792 44.3653 87.4688 44.209L87.4219 43.5684L88.7188 42.8965L87.5469 42.2559L87.5938 41.6778L87.5781 40.1778L87.6094 39.8184C87.4844 39.5371 87.4219 39.3705 87.4219 39.3184C87.4219 39.2455 87.4323 39.1621 87.4531 39.0684C87.6094 38.4851 87.6875 38.1621 87.6875 38.0996L87.7812 35.7246L88.625 34.8028C88.1979 34.5632 87.8906 34.3392 87.7031 34.1309L87.8125 34.0215H87.9375L88.0469 34.1309H88.1094V34.0059C88.276 33.8392 88.375 33.6621 88.4062 33.4746L87.9062 33.5371C87.8021 32.7351 87.75 32.0944 87.75 31.6153L87.8281 30.7559V30.7403L87.7969 30.1621L87.8438 29.8965C87.8438 29.4173 87.8698 29.1361 87.9219 29.0528C88.0156 28.9173 88.0625 28.7871 88.0625 28.6621L87.5938 28.4278C87.6771 28.2298 87.724 27.9434 87.7344 27.5684L87.75 27.1309L87.7031 26.6309C87.7031 26.0476 87.6927 25.6778 87.6719 25.5215C87.6302 25.3548 87.5469 25.1778 87.4219 24.9903C87.4948 24.8132 87.5417 24.6934 87.5625 24.6309C87.6042 24.5059 87.6562 24.4017 87.7188 24.3184C87.6562 24.1934 87.625 24.0476 87.625 23.8809C87.7396 23.7871 87.8646 23.7246 88 23.6934V23.0215C87.8542 23.1569 87.7188 23.2298 87.5938 23.2403C87.5521 23.084 87.5208 22.7455 87.5 22.2246C87.4583 21.5267 87.4062 20.9798 87.3438 20.584C87.4792 20.4486 87.5677 20.308 87.6094 20.1621C87.3281 19.9121 87.1875 19.6621 87.1875 19.4121C87.1875 19.2767 87.2135 19.0736 87.2656 18.8028C86.7031 18.7507 86.4115 18.6205 86.3906 18.4121L86.375 18.3184ZM114.312 32.0215C114.375 31.834 114.474 31.6621 114.609 31.5059C114.714 31.3913 114.984 31.2298 115.422 31.0215C115.87 30.7403 116.125 30.5996 116.188 30.5996C116.375 30.5996 116.516 30.6673 116.609 30.8028L116.672 31.0684L116.797 31.5528C116.766 31.6673 116.75 31.7559 116.75 31.8184C116.75 31.9121 116.807 32.0215 116.922 32.1465C117.13 32.084 117.411 31.9538 117.766 31.7559L118.422 31.5371L119.078 31.0996L119.5 30.9278C119.729 30.8132 119.854 30.7559 119.875 30.7559C119.875 30.7559 119.99 30.7767 120.219 30.8184C120.24 30.8184 120.255 30.8184 120.266 30.8184C120.318 30.8184 120.672 30.709 121.328 30.4903C121.401 30.4694 121.557 30.459 121.797 30.459C121.974 30.459 122.099 30.4851 122.172 30.5371C122.182 30.5476 122.292 30.6517 122.5 30.8496C122.625 30.8809 122.698 30.8965 122.719 30.8965C122.74 30.8965 122.891 30.8236 123.172 30.6778C123.193 30.6673 123.219 30.6621 123.25 30.6621C123.385 30.6621 123.542 30.7403 123.719 30.8965C123.885 31.0423 124.005 31.2663 124.078 31.5684C123.922 31.7246 123.609 31.9694 123.141 32.3028C122.911 32.5944 122.745 32.7403 122.641 32.7403C122.474 32.7403 122.255 32.5736 121.984 32.2403C121.797 32.2611 121.641 32.2715 121.516 32.2715C121.38 32.2715 121.156 32.209 120.844 32.084C120.594 31.9903 120.339 31.9278 120.078 31.8965C119.974 32.1048 119.802 32.2194 119.562 32.2403C119.271 32.2611 119.089 32.2819 119.016 32.3028C118.599 32.4278 118.391 32.4903 118.391 32.4903C118.349 32.4903 118.266 32.4538 118.141 32.3809C117.932 32.5684 117.568 32.8496 117.047 33.2246C116.714 33.4642 116.552 33.8861 116.562 34.4903V34.5371C116.562 34.6621 116.562 34.8288 116.562 35.0371C116.573 35.2246 116.578 35.3809 116.578 35.5059C116.578 35.6205 116.458 35.7923 116.219 36.0215C116.396 36.209 116.484 36.3705 116.484 36.5059C116.484 36.5788 116.474 36.6673 116.453 36.7715L116.688 36.834L116.734 37.3028L116.812 40.0996L116.75 40.2715L116.344 40.4903C115.76 40.6048 115.469 40.683 115.469 40.7246C115.469 40.7663 115.797 40.834 116.453 40.9278L116.719 40.8653C116.823 41.209 116.875 41.4434 116.875 41.5684C116.875 41.808 116.755 41.9955 116.516 42.1309C116.422 42.183 116.156 42.2351 115.719 42.2871C115.635 42.308 115.411 42.4382 115.047 42.6778C114.984 42.7194 114.911 42.7403 114.828 42.7403C114.578 42.7403 114.453 42.6309 114.453 42.4121C114.453 42.3496 114.531 42.0528 114.688 41.5215C114.708 41.459 114.719 41.3965 114.719 41.334C114.719 41.3132 114.693 41.0788 114.641 40.6309C114.641 40.5996 114.661 40.5111 114.703 40.3653L115.078 40.2559C115.089 40.1621 115.094 40.0788 115.094 40.0059C115.094 39.8705 115.016 39.709 114.859 39.5215C114.859 39.3757 114.859 39.2455 114.859 39.1309C114.859 39.0371 114.828 38.7923 114.766 38.3965C114.797 38.0528 114.812 37.7611 114.812 37.5215C115.198 37.3861 115.391 37.2194 115.391 37.0215C115.391 36.959 115.375 36.8757 115.344 36.7715C115.219 36.8028 115.115 36.8184 115.031 36.8184C114.958 36.8184 114.87 36.7767 114.766 36.6934C114.766 36.4851 114.766 36.2559 114.766 36.0059V35.6778V35.2559V35.1309C114.766 35.0476 114.76 34.9538 114.75 34.8496C114.75 34.7455 114.75 34.6621 114.75 34.5996C114.75 34.433 114.818 34.209 114.953 33.9278C114.818 33.8132 114.74 33.7142 114.719 33.6309C114.708 33.5996 114.688 33.2611 114.656 32.6153C114.646 32.4903 114.531 32.2923 114.312 32.0215ZM128.031 37.1621C128.156 36.9642 128.276 36.8288 128.391 36.7559C128.474 36.7038 128.786 36.6205 129.328 36.5059C129.724 36.308 129.99 36.1882 130.125 36.1465C130.219 36.1257 130.531 36.0892 131.062 36.0371L131.562 35.8653L131.859 35.834L132.141 35.8028H132.75L133.984 35.6465C134.349 35.6153 134.578 35.5684 134.672 35.5059C134.859 35.3705 134.953 35.1726 134.953 34.9121C134.953 34.8601 134.911 34.6934 134.828 34.4121L135.641 33.3965C135.641 33.3861 135.318 33.2819 134.672 33.084C134.62 33.0632 134.464 33.0528 134.203 33.0528C133.755 32.4798 133.49 32.1621 133.406 32.0996C133.302 32.058 132.906 31.9851 132.219 31.8809H131.719C131.49 31.8184 131.339 31.7871 131.266 31.7871C131.182 31.7871 131.062 31.7976 130.906 31.8184L130.609 31.4434C130.38 31.5267 130.203 31.6413 130.078 31.7871C129.974 31.9017 129.812 32.0007 129.594 32.084C129.052 32.3132 128.604 32.5684 128.25 32.8496L128.031 32.9903C127.896 33.1882 127.807 33.2976 127.766 33.3184C127.641 33.3913 127.495 33.4278 127.328 33.4278C127.266 33.4278 127.073 33.3705 126.75 33.2559C126.396 33.1726 126.177 33.1048 126.094 33.0528C126 32.9903 125.88 32.8601 125.734 32.6621C125.911 32.5267 126.036 32.4278 126.109 32.3653C126.286 32.209 126.406 32.1257 126.469 32.1153L127.203 31.9434L127.672 31.6934L128.672 31.3809L129.297 31.1153H129.938L130.641 30.9121L130.938 30.8965L131.484 30.8028C131.995 30.8132 132.318 30.8184 132.453 30.8184C132.599 30.8288 132.88 30.9017 133.297 31.0371L133.672 31.084C134.078 31.1569 134.365 31.209 134.531 31.2403C134.677 31.2507 134.865 31.3653 135.094 31.584C134.917 31.7403 134.828 31.8705 134.828 31.9746C134.828 32.1205 134.891 32.1934 135.016 32.1934C135.099 32.1934 135.219 32.1517 135.375 32.0684C135.479 32.0267 135.625 31.9798 135.812 31.9278C135.948 32.0632 136.021 32.2403 136.031 32.459L136.422 32.7403C136.443 32.8548 136.453 32.9278 136.453 32.959L136.406 33.5684C136.521 34.0267 136.635 34.3132 136.75 34.4278H136.812C136.844 34.6569 136.885 34.9069 136.938 35.1778C136.969 35.7819 136.99 36.183 137 36.3809C136.76 36.5267 136.641 36.6673 136.641 36.8028C136.641 36.959 136.781 37.0996 137.062 37.2246C137.073 37.3601 137.078 37.4746 137.078 37.5684C137.078 37.6621 137.057 37.8444 137.016 38.1153C137.005 38.2298 137 38.3444 137 38.459C137 38.8028 137.057 39.2298 137.172 39.7403C136.984 39.9278 136.891 40.1153 136.891 40.3028C136.891 40.459 136.979 40.6621 137.156 40.9121C137.177 40.9538 137.214 41.0528 137.266 41.209C137.297 41.2819 137.354 41.4226 137.438 41.6309C137.323 41.7663 137.24 41.8965 137.188 42.0215C137.104 42.0944 136.943 42.1778 136.703 42.2715L136.109 42.5371L135.734 42.6465C135.349 42.7819 135.135 42.8496 135.094 42.8496C134.99 42.8496 134.875 42.7923 134.75 42.6778L134.984 41.6309C134.682 41.7038 134.245 41.8653 133.672 42.1153L133.219 42.209C132.948 42.2715 132.807 42.3028 132.797 42.3028L132.219 42.2403L131.641 42.5371L131.328 42.5684L130.062 42.834L129.406 42.7871C129.083 42.9017 128.865 42.959 128.75 42.959C128.604 42.959 128.198 42.8913 127.531 42.7559L126.875 42.6934L126.391 42.4903C126.026 42.3548 125.755 42.2194 125.578 42.084C125.422 41.9694 125.297 41.7715 125.203 41.4903L124.844 41.3653C124.802 41.2611 124.755 41.0736 124.703 40.8028L124.547 40.1309V40.1153C124.536 40.0215 124.604 39.8705 124.75 39.6621C124.865 39.5059 125.01 39.2403 125.188 38.8653C125.698 38.3653 126.036 38.0423 126.203 37.8965C126.349 37.7819 126.677 37.6205 127.188 37.4121C127.479 37.2246 127.661 37.1309 127.734 37.1309C127.818 37.1309 127.917 37.1413 128.031 37.1621ZM127.062 40.4746C126.979 40.6101 126.901 40.7507 126.828 40.8965C126.714 41.084 126.661 41.209 126.672 41.2715L126.828 41.5684L127.266 41.1934C127.62 41.4434 127.865 41.5788 128 41.5996C128.385 41.7038 128.594 41.7611 128.625 41.7715C128.688 41.8132 128.776 41.9226 128.891 42.0996C129.13 42.1309 129.292 42.1517 129.375 42.1621C129.458 42.1726 129.526 42.1778 129.578 42.1778C129.693 42.1778 129.833 42.1048 130 41.959C130.146 42.0632 130.271 42.1153 130.375 42.1153C130.396 42.1153 130.51 42.0476 130.719 41.9121L131.156 42.0059C131.156 42.0059 131.438 41.9069 132 41.709L132.406 41.5215L132.75 41.584L133.344 41.334L134.031 41.0684C134.208 40.7976 134.318 40.6413 134.359 40.5996C134.453 40.5059 134.635 40.4226 134.906 40.3496L135 39.8496C135.188 39.7455 135.302 39.5996 135.344 39.4121C135.198 39.308 135.094 39.1986 135.031 39.084C135.042 38.9069 135.047 38.7767 135.047 38.6934V38.4434C135.036 38.1621 135.026 37.9226 135.016 37.7246C135.005 37.6621 135 37.6048 135 37.5528C135 37.4278 135.042 37.2455 135.125 37.0059C135.031 36.9955 134.911 36.933 134.766 36.8184L134.094 36.834L133.484 36.8028L133.016 36.8184H132.719C132.677 36.8184 132.521 36.7351 132.25 36.5684L131.906 36.6778C131.49 36.6778 131.182 36.709 130.984 36.7715C130.859 36.8236 130.755 36.8496 130.672 36.8496C130.651 36.8496 130.531 36.8184 130.312 36.7559C130.302 36.7559 130.292 36.7559 130.281 36.7559C130.229 36.7559 130.062 36.8496 129.781 37.0371C129.74 37.0684 129.469 37.1726 128.969 37.3496C128.302 37.6413 127.823 37.9173 127.531 38.1778C127.5 38.209 127.385 38.3653 127.188 38.6465C127.125 38.7403 126.943 38.8288 126.641 38.9121C126.599 38.9851 126.578 39.0423 126.578 39.084C126.578 39.1153 126.62 39.1778 126.703 39.2715L126.812 40.1153C126.833 40.1882 126.917 40.308 127.062 40.4746ZM140.859 31.6778C140.943 31.2715 141.083 31.0684 141.281 31.0684H141.297L142.062 31.1153H142.094C142.677 31.0319 143.01 30.9851 143.094 30.9746C143.094 30.7871 143.094 30.6621 143.094 30.5996C143.094 29.6205 143.073 28.8184 143.031 28.1934C143.01 27.9226 142.948 27.6778 142.844 27.459L142.688 27.1309C142.646 27.0476 142.625 26.959 142.625 26.8653C142.625 26.709 142.75 26.5215 143 26.3028C143.385 25.9486 143.875 25.7142 144.469 25.5996C144.604 25.3184 144.75 25.1778 144.906 25.1778C144.969 25.1778 145.021 25.2038 145.062 25.2559C145.208 25.4121 145.281 25.6153 145.281 25.8653C145.281 25.8757 145.234 26.6986 145.141 28.334C145.016 28.7611 144.938 29.0111 144.906 29.084C144.865 29.2298 144.745 29.3809 144.547 29.5371C144.547 29.7455 144.578 29.9486 144.641 30.1465H145L144.906 30.9434C145.167 30.9642 145.708 31.0892 146.531 31.3184C146.583 31.3288 146.76 31.334 147.062 31.334C147.25 31.334 147.557 31.2715 147.984 31.1465L149.016 31.0528C149.547 30.8444 149.859 30.7403 149.953 30.7403C150.089 30.7403 150.255 30.7559 150.453 30.7871C150.432 31.0788 150.401 31.2871 150.359 31.4121C150.318 31.5684 149.99 31.834 149.375 32.209C149.229 32.2923 149.125 32.3705 149.062 32.4434C148.906 32.6309 148.823 32.7246 148.812 32.7246C148.76 32.7663 148.635 32.7871 148.438 32.7871C148.281 32.7871 148.167 32.7663 148.094 32.7246L147.453 32.3809L147.062 32.2871L146.594 31.9434L145.797 32.5528L145.109 32.459C145.057 32.459 144.953 32.5111 144.797 32.6153C144.88 33.1153 144.922 33.5371 144.922 33.8809C144.922 34.0476 144.917 34.2923 144.906 34.6153C144.521 34.6778 144.328 34.834 144.328 35.084C144.328 35.1778 144.349 35.2923 144.391 35.4278C144.62 35.4486 144.812 35.4798 144.969 35.5215L144.938 37.4746C144.781 37.433 144.651 37.4121 144.547 37.4121C144.359 37.4121 144.266 37.4903 144.266 37.6465C144.266 37.7715 144.312 37.9226 144.406 38.0996C144.552 38.0059 144.677 37.959 144.781 37.959C144.938 37.959 145.016 38.058 145.016 38.2559L144.969 38.8809V38.9121C144.99 39.3392 145.005 39.6465 145.016 39.834C145.036 40.0319 145.099 40.2298 145.203 40.4278L145.391 40.7559C145.411 40.7976 145.422 40.8601 145.422 40.9434C145.422 41.0371 145.411 41.1569 145.391 41.3028C145.714 41.4903 146.073 41.584 146.469 41.584C146.802 41.584 147.135 41.5007 147.469 41.334C147.74 41.1882 147.885 41.1048 147.906 41.084L148.766 40.3028C149.193 39.9486 149.453 39.7715 149.547 39.7715C149.641 39.7715 149.771 39.8184 149.938 39.9121C149.906 40.1101 149.885 40.2455 149.875 40.3184C149.802 40.8601 149.729 41.1778 149.656 41.2715C149.583 41.3548 149.266 41.4851 148.703 41.6621C148.276 41.8809 147.63 42.1361 146.766 42.4278L146.234 42.5996C145.88 42.7976 145.677 42.8965 145.625 42.8965C145.531 42.8965 145.427 42.8028 145.312 42.6153L145.031 42.5371L144.859 42.9278C144.714 42.9486 144.589 42.959 144.484 42.959C144.214 42.959 143.891 42.7819 143.516 42.4278C143.349 42.2611 143.214 42.0892 143.109 41.9121C143.099 41.9017 143.057 41.7663 142.984 41.5059C142.87 41.1621 142.812 40.9642 142.812 40.9121C142.812 40.8184 142.823 40.6673 142.844 40.459C142.865 40.2923 142.875 39.9434 142.875 39.4121C142.885 39.0684 142.979 38.808 143.156 38.6309C143.094 38.433 143.062 38.1934 143.062 37.9121C143.01 37.433 142.979 36.5215 142.969 35.1778C143.219 35.0215 143.344 34.8705 143.344 34.7246C143.344 34.6413 143.333 34.5423 143.312 34.4278L142.859 34.3184L142.828 34.1778V34.1621C142.828 34.1101 142.844 34.0007 142.875 33.834C142.938 33.5632 142.969 33.0944 142.969 32.4278C142.542 32.334 142.229 32.2871 142.031 32.2871C141.969 32.2871 141.698 32.3184 141.219 32.3809L140.891 32.4121C140.599 32.5059 140.443 32.5528 140.422 32.5528C140.276 32.5528 140.203 32.4851 140.203 32.3496C140.203 32.1413 140.422 31.9173 140.859 31.6778ZM152.203 38.334C152.203 37.6465 152.245 37.1465 152.328 36.834C152.411 36.5632 152.557 36.1517 152.766 35.5996C153.193 34.808 153.438 34.3601 153.5 34.2559C153.562 34.1621 153.802 33.9798 154.219 33.709C154.229 33.6986 154.307 33.5423 154.453 33.2403C154.547 33.0736 154.625 32.9746 154.688 32.9434C154.802 32.8496 155.203 32.6361 155.891 32.3028C156.109 32.1986 156.359 32.0007 156.641 31.709C156.682 31.6673 157.307 31.4226 158.516 30.9746C159.141 30.7351 160.052 30.6153 161.25 30.6153C161.49 30.6153 161.802 30.6569 162.188 30.7403L162.25 31.0684C162.396 31.1309 162.521 31.2038 162.625 31.2871C162.781 31.2351 162.906 31.0996 163 30.8809C163.573 31.0059 164.073 31.2142 164.5 31.5059C164.823 31.7038 165.005 31.8288 165.047 31.8809C165.068 31.9121 165.172 32.0944 165.359 32.4278C165.568 32.7507 165.922 32.9173 166.422 32.9278C166.672 33.3444 166.828 33.6517 166.891 33.8496C166.964 34.0476 167.031 34.3809 167.094 34.8496C167.156 35.3288 167.203 35.7038 167.234 35.9746H166.984V36.1621L166.672 36.5215C166.714 36.6986 166.859 36.8653 167.109 37.0215C167.078 37.4798 167.047 37.7923 167.016 37.959C166.995 38.0319 166.917 38.2142 166.781 38.5059C166.396 39.4121 166.125 39.9903 165.969 40.2403C165.417 40.9069 164.911 41.3132 164.453 41.459L163.609 41.8809L162.812 42.2559C162.396 42.4851 162.151 42.6101 162.078 42.6309C162.005 42.6413 161.5 42.6726 160.562 42.7246L159.469 42.959H158.359L157.859 43.0215C156.943 42.8653 156.37 42.7819 156.141 42.7715C155.995 42.6048 155.885 42.5059 155.812 42.4746C155.792 42.4642 155.589 42.4278 155.203 42.3653C154.995 42.3236 154.583 42.0996 153.969 41.6934C153.875 41.6413 153.688 41.5371 153.406 41.3809C153.344 41.1934 153.302 41.0632 153.281 40.9903C153.24 40.8757 153.198 40.7976 153.156 40.7559C153.146 40.7559 153.036 40.683 152.828 40.5371C152.818 40.5371 152.781 40.4903 152.719 40.3965C152.49 40.0319 152.375 39.6673 152.375 39.3028C152.375 39.1257 152.484 38.959 152.703 38.8028C152.609 38.6361 152.448 38.5007 152.219 38.3965L152.203 38.334ZM153.922 38.0215V38.1778L154.062 38.3184C154.167 38.2246 154.271 38.1726 154.375 38.1621C154.458 38.5163 154.531 38.7871 154.594 38.9746C154.646 39.0892 154.917 39.5423 155.406 40.334C155.417 40.3548 155.422 40.3861 155.422 40.4278C155.422 40.5215 155.37 40.6726 155.266 40.8809C155.307 41.0267 155.448 41.1048 155.688 41.1153C155.792 41.0111 155.88 40.959 155.953 40.959C156.016 40.959 156.474 41.1778 157.328 41.6153C157.693 41.7923 158.062 41.8809 158.438 41.8809H159.359L159.828 41.9903C160.026 42.0423 160.198 42.0684 160.344 42.0684C160.583 42.0684 160.854 42.0319 161.156 41.959C161.354 41.9069 161.641 41.8444 162.016 41.7715C162.12 41.7403 162.474 41.5163 163.078 41.0996C163.484 40.9642 163.714 40.8705 163.766 40.8184C163.839 40.7351 164.036 40.4278 164.359 39.8965L164.75 39.1153C165.01 38.8653 165.161 38.709 165.203 38.6465C165.245 38.5736 165.266 38.4746 165.266 38.3496C165.099 38.0996 165.021 37.933 165.031 37.8496V37.834L165.094 37.5215C165.115 37.0423 165.177 36.6517 165.281 36.3496C165.198 36.1517 165.099 35.8392 164.984 35.4121L164.734 34.5996C164.714 34.4955 164.698 34.2819 164.688 33.959L164.625 33.8965H164.25C164.135 33.6778 163.901 33.3496 163.547 32.9121C163.339 32.6517 163.219 32.5111 163.188 32.4903C163.167 32.459 163.068 32.4069 162.891 32.334C162.745 32.2715 162.484 32.1673 162.109 32.0215C162.005 31.6569 161.839 31.4746 161.609 31.4746C161.547 31.4746 161.385 31.5267 161.125 31.6309C160.802 31.5476 160.62 31.5059 160.578 31.5059C160.036 31.5059 159.682 31.5163 159.516 31.5371C159.339 31.5476 159.068 31.6673 158.703 31.8965L158.375 31.6621C158.219 31.8705 158.099 31.9955 158.016 32.0371L157.344 32.3809L157.234 32.5059L155.359 34.084L155.219 34.1934C155.198 34.4851 155.167 34.6673 155.125 34.7403L154.812 35.2871C154.708 35.5788 154.578 35.8236 154.422 36.0215C154.432 36.1048 154.438 36.1778 154.438 36.2403C154.438 36.4798 154.255 36.6726 153.891 36.8184C153.891 36.8496 153.932 36.9694 154.016 37.1778C154.297 37.3757 154.438 37.5059 154.438 37.5684C154.438 37.683 154.266 37.834 153.922 38.0215ZM178.609 36.7871L178.203 37.084C177.797 36.9694 177.474 36.9121 177.234 36.9121C176.953 36.9121 176.615 36.933 176.219 36.9746C176.104 36.7351 175.948 36.5528 175.75 36.4278L175.453 36.8184C175.234 36.8496 174.974 36.9069 174.672 36.9903C174.547 37.0215 174.438 37.0371 174.344 37.0371C174.323 37.0371 174.292 37.0319 174.25 37.0215C173.854 36.9382 173.656 36.8965 173.656 36.8965C173.646 36.8965 173.63 36.9121 173.609 36.9434L173.312 36.6309C173.146 36.7038 173.005 36.7403 172.891 36.7403C172.849 36.7403 172.719 36.6882 172.5 36.584C172.448 36.5632 172.354 36.5267 172.219 36.4746C171.417 36.1934 171.016 35.7351 171.016 35.0996C171.016 34.5476 171.229 34.0007 171.656 33.459C171.771 33.3028 172.062 33.0267 172.531 32.6309L172.844 32.334L173.578 31.8965C174.328 31.4382 174.88 31.1361 175.234 30.9903C176.047 30.6569 176.698 30.4903 177.188 30.4903C177.271 30.4903 177.74 30.5996 178.594 30.8184L179.406 30.6778C179.917 30.709 180.214 30.7455 180.297 30.7871C180.505 30.8913 180.609 30.9955 180.609 31.0996C180.609 31.2038 180.557 31.308 180.453 31.4121C180.422 31.433 180.167 31.5892 179.688 31.8809C179.188 32.183 178.906 32.334 178.844 32.334C178.167 32.334 177.672 32.2871 177.359 32.1934C177.255 31.9746 177.146 31.7976 177.031 31.6621H176.938L176.641 31.9746C176.464 31.9851 176.333 31.9903 176.25 31.9903C176.156 31.9903 176.068 31.9851 175.984 31.9746C175.87 31.9642 175.786 31.959 175.734 31.959C175.714 31.959 175.578 31.9903 175.328 32.0528C175.245 31.9903 175.089 31.959 174.859 31.959C174.651 32.1153 174.307 32.3236 173.828 32.584C173.578 32.7194 173.359 32.9226 173.172 33.1934C172.995 33.4642 172.906 33.7194 172.906 33.959C172.906 34.0736 173.005 34.2194 173.203 34.3965C173.234 34.4278 173.417 34.5111 173.75 34.6465C173.948 34.7403 174.151 34.8548 174.359 34.9903C174.349 35.0736 174.344 35.1413 174.344 35.1934C174.344 35.4121 174.432 35.5215 174.609 35.5215C174.776 35.5215 174.964 35.3861 175.172 35.1153C175.411 35.1465 175.615 35.1621 175.781 35.1621C175.844 35.1621 176.141 35.1153 176.672 35.0215L177.172 35.0684C177.63 35.0059 177.88 34.9746 177.922 34.9746C177.995 34.9746 178.26 35.0476 178.719 35.1934L179.281 35.1309L179.844 35.5215C180.448 35.8028 180.859 36.0684 181.078 36.3184C181.245 36.5267 181.339 36.6934 181.359 36.8184L181.469 37.334C181.615 37.959 181.688 38.3184 181.688 38.4121C181.688 38.4746 181.667 38.6569 181.625 38.959C181.573 39.6257 181.38 39.959 181.047 39.959C180.943 39.959 180.823 39.9434 180.688 39.9121C180.562 40.433 180.458 40.7298 180.375 40.8028C179.906 41.3444 179.604 41.709 179.469 41.8965C178.938 41.9694 178.5 42.1309 178.156 42.3809C178 42.5059 177.906 42.5736 177.875 42.584C177.844 42.5944 177.714 42.6101 177.484 42.6309L176.219 42.9746C175.802 42.9017 175.573 42.8653 175.531 42.8653C175.469 42.8653 175.156 42.9486 174.594 43.1153L174.219 43.0684C173.719 43.0371 173.344 42.9955 173.094 42.9434C172.552 42.808 172.266 42.709 172.234 42.6465L171.734 42.3184C171.12 41.9434 170.74 41.6726 170.594 41.5059C170.281 41.1413 170.125 40.7871 170.125 40.4434C170.125 40.3705 170.24 40.2455 170.469 40.0684L170.891 39.6778C171.286 39.3861 171.516 39.2403 171.578 39.2403C171.62 39.2403 171.656 39.2559 171.688 39.2871C171.927 39.5163 172.047 39.7663 172.047 40.0371L171.984 40.5371V40.5528C171.974 40.6465 172 40.7194 172.062 40.7715C172.104 40.8132 172.292 40.9278 172.625 41.1153C172.698 41.1569 172.792 41.2246 172.906 41.3184C173.167 41.5476 173.302 41.6621 173.312 41.6621L173.891 41.8965L174.422 42.1778H175.016L175.391 42.2559C175.776 42.1413 176.12 42.0788 176.422 42.0684C176.714 42.058 176.927 42.0163 177.062 41.9434L177.672 41.6465C178.005 41.5319 178.198 41.4538 178.25 41.4121C178.448 41.2559 178.708 40.9121 179.031 40.3809C179.365 39.8288 179.531 39.1986 179.531 38.4903C179.531 38.334 179.484 38.1882 179.391 38.0528C178.984 37.4382 178.724 37.0163 178.609 36.7871Z" fill="white"/>
</svg>
