<svg width="200" height="200" viewBox="0 0 200 200" fill="none" xmlns="http://www.w3.org/2000/svg">
<g clip-path="url(#clip0)">
<path d="M169.921 200C173.157 200 175.781 197.377 175.781 194.141V183.594C175.781 180.358 173.157 177.735 169.921 177.735C166.685 177.735 164.062 180.358 164.062 183.594V194.141C164.062 197.377 166.685 200 169.921 200Z" fill="#596C76"/>
<path d="M28.5165 200C31.7524 200 34.3759 197.377 34.3759 194.141L34.3759 183.594C34.3759 180.358 31.7524 177.735 28.5165 177.735C25.2805 177.735 22.6571 180.358 22.6571 183.594L22.6571 194.141C22.6571 197.377 25.2802 200 28.5165 200Z" fill="#3B4A51"/>
<path d="M17.6147 146.619L29.3333 41.1512L58.5944 49.6109L58.5944 147.266L17.6147 146.619Z" fill="#3B4A51"/>
<path d="M23.4385 141.407C23.6689 141.407 23.9424 141.407 100 147.004C121.367 148.575 148.718 150.59 183.73 153.172C183.734 153.172 183.734 153.172 183.734 153.172C192.855 153.852 199.999 161.551 199.999 170.703C199.999 180.395 192.113 188.281 182.421 188.281L23.4385 188.281C10.5167 188.281 0.0012207 177.766 0.0012207 164.844C0.0012207 151.922 10.5167 141.407 23.4385 141.407Z" fill="#3B4A51"/>
<path d="M0.0012207 164.844C0.0012207 177.766 10.5167 188.281 23.4385 188.281H100L100 147.004C23.9424 141.407 23.669 141.407 23.4385 141.407C10.5167 141.407 0.0012207 151.922 0.0012207 164.844Z" fill="#3B4A51"/>
<path d="M11.7198 164.844C11.7198 171.305 16.9776 176.563 23.4385 176.563L182.421 176.563C185.652 176.563 188.281 173.934 188.281 170.703C188.281 167.809 186.019 165.266 183.179 164.891H182.66L182.23 164.813C148.109 162.297 121.199 160.317 100 158.754C38.9735 154.262 25.2666 153.27 23.1768 153.129C16.8331 153.27 11.7198 158.469 11.7198 164.844Z" fill="#6C63FF"/>
<path d="M11.7198 164.844C11.7198 171.305 16.9776 176.563 23.4384 176.563L100 176.563V158.754C38.9735 154.262 25.2666 153.27 23.1767 153.129C16.833 153.27 11.7198 158.469 11.7198 164.844Z" fill="#5045FF"/>
<path d="M70.0122 55.3698C71.0356 52.2999 69.3763 48.9816 66.3064 47.9582L33.9524 37.1735L23.1494 4.04457C22.1463 0.968033 18.8393 -0.713591 15.7623 0.290696C12.6858 1.29381 11.005 4.6012 12.0085 7.67773L23.7271 43.6149C24.3029 45.3809 25.6822 46.7695 27.4447 47.357L62.6006 59.0757C65.6705 60.0987 68.9888 58.4401 70.0122 55.3698Z" fill="#6C63FF"/>
</g>
<defs>
<clipPath id="clip0">
<rect width="200" height="200" fill="white" transform="matrix(-1 0 0 1 200 0)"/>
</clipPath>
</defs>
</svg>
