<svg width="200" height="159" viewBox="0 0 200 159" fill="none" xmlns="http://www.w3.org/2000/svg">
<rect x="61.3638" y="111.091" width="10.719" height="35.7299" fill="#3B4A51"/>
<rect x="49.9199" y="102.306" width="11.0865" height="45.2698" rx="5.54324" transform="rotate(45 49.9199 102.306)" fill="#74909D"/>
<path d="M198 89.8182V108.5C198 110.709 196.209 112.5 194 112.5H48.0454C45.8363 112.5 44.0454 110.709 44.0454 108.5V89.8182C44.0454 87.6091 45.8363 85.8182 48.0454 85.8182H61.7897H81.534H121.023H194C196.209 85.8182 198 87.6091 198 89.8182Z" fill="#6C63FF" stroke="#3B4A51" stroke-width="4"/>
<rect x="172.727" y="27" width="7.95455" height="123.864" fill="#3B4A51"/>
<rect x="54.1816" y="144.818" width="132.545" height="12.0909" rx="2.5" fill="#74909D" stroke="#3B4A51" stroke-width="3"/>
<path d="M194 17.5C194 22.1413 192.156 26.5925 188.874 29.8744C185.592 33.1563 181.141 35 176.5 35C171.859 35 167.408 33.1563 164.126 29.8744C160.844 26.5925 159 22.1413 159 17.5L168.271 17.5C168.271 19.6825 169.138 21.7756 170.681 23.3188C172.224 24.8621 174.318 25.7291 176.5 25.7291C178.682 25.7291 180.776 24.8621 182.319 23.3188C183.862 21.7756 184.729 19.6825 184.729 17.5H194Z" fill="#3B4A51"/>
<circle cx="19.8633" cy="138.271" r="19.8633" fill="#3B4A51"/>
<circle cx="20.3257" cy="138.733" r="9.23874" fill="#74909D"/>
</svg>
