<svg width="147" height="308" viewBox="0 0 147 308" fill="none" xmlns="http://www.w3.org/2000/svg">
<path d="M120.999 174.964C120.999 159.995 131.638 147.109 147 141.062V48.0497C147 44.9358 143.938 42.4115 140.16 42.4115H6.83969C3.06217 42.4115 0 44.9358 0 48.0497V140.413C16.2477 146.163 27.6344 159.464 27.6344 174.964C27.6344 190.464 16.2485 203.765 0 209.516V298.836C0 303.63 4.71513 307.517 10.5312 307.517H136.468C142.284 307.517 146.999 303.63 146.999 298.836V208.866C131.639 202.819 120.999 189.932 120.999 174.964Z" fill="#E56353"/>
<path d="M140.16 42.4115H6.83969C3.06217 42.4115 0 44.9358 0 48.0504V95.5945H147V48.0504C147 44.9364 143.938 42.4115 140.16 42.4115Z" fill="#5A55AF"/>
<path d="M0 230.238V298.834C0 303.629 4.71514 307.516 10.5312 307.516H136.468C142.284 307.516 146.999 303.629 146.999 298.834V230.238H0Z" fill="#5A55AF"/>
<path d="M102.707 19.6932H43.9053V42.4123H102.707V19.6932Z" fill="#E1E6E9"/>
<path d="M87.9799 0H58.5786V19.6931H87.9799V0Z" fill="#E56353"/>
<path d="M73.2962 8.71626C74.9882 8.71626 76.3599 7.58551 76.3599 6.19065C76.3599 4.79579 74.9882 3.66504 73.2962 3.66504C71.6041 3.66504 70.2324 4.79579 70.2324 6.19065C70.2324 7.58551 71.6041 8.71626 73.2962 8.71626Z" fill="#D5D6DB"/>
<path d="M73.4093 197.606C90.8228 197.606 104.939 184.257 104.939 167.79C104.939 151.323 90.8228 137.974 73.4093 137.974C55.9958 137.974 41.8794 151.323 41.8794 167.79C41.8794 184.257 55.9958 197.606 73.4093 197.606Z" fill="white"/>
<path d="M80.5394 141.464C81.9762 141.464 83.4212 143.418 83.6137 145.503C83.6971 146.401 82.8062 146.899 82.8062 147.991C82.8062 149.418 81.7586 151.214 81.3144 152.287C79.9692 153.983 80.6913 154.339 79.4464 154.339C77.3871 154.338 76.8101 151.595 76.8101 147.99C76.8101 146.209 77.0894 146.678 77.7512 145.503C78.43 144.298 79.5013 141.464 80.5394 141.464Z" fill="#DB5431"/>
<path d="M77.7369 145.42L72.9746 154.744L77.7369 165.192L85.674 175.978V170.926L88.1022 166.99L80.8187 157.89V154.744L83.714 145.42H77.7369Z" fill="#DB5431"/>
<path d="M71.2788 162.863L70.1303 163.475L59.858 158.245L57.9907 159.059H59.858L70.1303 164.493L71.2788 162.863Z" fill="black"/>
<path d="M74.4414 162.863L75.5942 163.474L85.8655 158.244L87.7328 159.059H85.8655L75.5942 164.493L74.4414 162.863Z" fill="black"/>
<path d="M67.9974 155.598L67.0155 156.837L66.1663 161.907L63.9639 166.576L61.8213 170.117L62.1858 171.979C61.8649 172.279 61.5821 172.614 61.3431 172.977C61.2874 173.088 61.4963 173.341 61.505 173.326" stroke="#DB5431" stroke-width="2" stroke-linecap="round"/>
<path d="M73.1881 194.636L72.2517 193.931V193.701L72.0049 193.746L71.1777 193.124L71.6089 192.087L70.7661 192.817V192.423L70.3593 192.509L68.4098 190.561L67.9352 190.69L67.7901 190.293L67.1995 190.346L66.5526 189.469C65.8824 188.653 65.3088 187.769 64.8419 186.835C64.4642 186.108 64.2287 185.322 64.1469 184.515C64.1029 184.135 64.1422 183.751 64.2623 183.386C64.3825 183.02 64.5809 182.683 64.8453 182.393C65.1467 183.342 65.6756 184.211 66.3906 184.935C67.8382 186.454 70.465 186.531 70.977 186.531C71.0529 186.531 71.0963 186.531 71.0963 186.531C71.0997 186.508 71.4503 184.077 70.2711 182.382C71.3419 182.513 72.4203 182.582 73.5 182.586C74.0357 182.586 74.5544 182.567 75.0413 182.527C74.092 184.372 74.8087 186.76 74.8162 186.783C74.846 186.783 77.8878 186.481 79.2412 184.583C79.9172 183.686 80.3258 182.634 80.4244 181.536C80.7967 181.827 80.9804 182.449 80.9709 183.384C80.9367 184.334 80.8068 185.279 80.5831 186.206C80.296 187.46 79.9404 188.701 79.5178 189.921C79.5178 189.921 79.3619 190.018 79.1442 190.177C79.1318 190.186 79.1164 190.191 79.1008 190.19C79.0739 190.188 79.0474 190.183 79.0222 190.174C78.9951 190.165 78.9668 190.159 78.9381 190.157C78.9159 190.157 78.8942 190.164 78.8771 190.177C78.8353 190.228 78.8091 190.289 78.8011 190.353C78.7913 190.429 78.7586 190.501 78.7069 190.559C78.7042 190.56 78.7014 190.56 78.6987 190.559C78.6174 190.535 78.5395 190.502 78.4668 190.459L78.4492 190.45C78.37 190.404 78.2847 190.368 78.1956 190.342C78.1923 190.341 78.1887 190.341 78.1854 190.342C78.1556 190.365 78.2207 190.46 78.2899 190.56C78.359 190.66 78.4336 190.768 78.399 190.795C77.8946 191.187 77.4287 191.541 77.0151 191.849C77.0083 191.854 76.9997 191.858 76.9907 191.858C76.9534 191.858 76.9168 191.8 76.8815 191.744C76.8463 191.689 76.809 191.632 76.771 191.632C76.7615 191.632 76.7524 191.635 76.7452 191.641C76.6944 191.679 76.6863 191.769 76.6774 191.859C76.6686 191.949 76.6612 192.043 76.6096 192.083C76.605 192.086 76.5995 192.087 76.594 192.087C76.4005 191.998 76.2226 191.882 76.0665 191.742C75.9103 191.602 75.7318 191.486 75.5376 191.398C75.532 191.397 75.5265 191.399 75.522 191.402C75.461 191.447 75.6054 191.723 75.7444 191.987C75.8834 192.251 76.0238 192.519 75.9648 192.564L74.7077 193.5C74.7029 193.503 74.6972 193.505 74.6914 193.505C74.6497 193.495 74.6105 193.478 74.5761 193.454C74.5419 193.43 74.5026 193.412 74.4609 193.403C74.4545 193.403 74.4483 193.405 74.4432 193.408C74.4229 193.423 74.4331 193.485 74.4432 193.551C74.4534 193.617 74.4642 193.68 74.4432 193.697L73.1908 194.63L73.1881 194.636Z" fill="black"/>
</svg>
