<svg width="141" height="90" viewBox="0 0 141 90" fill="none" xmlns="http://www.w3.org/2000/svg">
<rect x="2.5" y="1.5" width="137" height="87" rx="13.5" fill="url(#paint0_linear)" stroke="black" stroke-width="3"/>
<path d="M41.2671 30.9375L39 23.3544C31.9806 16.4278 49.3081 6.39873 52.2329 2.25H71.7312C78.7505 10.0424 74.6559 19.5665 71.7312 23.3544L71.2671 30.9375H139V44.4375M41.2671 30.9375H3V44.4375H31H39M41.2671 30.9375C45.0799 35.7404 45.6298 38.5903 39 44.4375M39 44.4375C37.6851 47.1732 37.4117 48.9592 38.2671 52.875M38.2671 52.875H2.5L3 64.3315H38.7671M38.2671 52.875C43.8606 57.344 43.141 59.8538 38.7671 64.3315M38.7671 64.3315L39 64.0913C35.5878 67.5185 44.0436 80.3905 52.2329 87.75H71.7312C74.8184 83.2405 81.9076 69.0935 74.4983 64.3315M74.4983 64.3315L139 64.6875L138.5 52.875H73.9983C71.1494 57.3572 71.1956 59.8607 74.4983 64.3315Z" stroke="black" stroke-width="3"/>
<defs>
<linearGradient id="paint0_linear" x1="71" y1="0" x2="71" y2="90" gradientUnits="userSpaceOnUse">
<stop stop-color="#FFC237"/>
<stop offset="1" stop-color="#6C4B00"/>
</linearGradient>
</defs>
</svg>
