<svg width="206" height="230" viewBox="0 0 206 230" fill="none" xmlns="http://www.w3.org/2000/svg">
<path d="M134.982 6.71965L134.819 6.93798L134.736 7.19494L123.37 42.1381L123.235 42.5555L123.332 42.9684L151.946 164.415L154.863 164.111L158.681 139.591L158.727 139.294L158.66 139.009L135.588 41.0309L143.247 15.6734L143.276 15.575L143.293 15.4743C143.575 13.7814 143.815 11.81 143.898 9.94898C143.979 8.1256 143.919 6.26234 143.521 4.86826C143.324 4.17662 142.998 3.43475 142.414 2.90912C141.757 2.31699 140.889 2.10789 139.951 2.34312C139.111 2.55396 138.307 3.09563 137.546 3.78772C136.765 4.49695 135.915 5.47022 134.982 6.71965Z" fill="#6C63FF" stroke="#455A64" stroke-width="3"/>
<rect x="1.5" y="133.5" width="35" height="15" fill="#6C63FF" stroke="#455A64" stroke-width="3"/>
<path d="M37.1048 125.902C19.2828 136.4 -7.27897 165.325 29.0496 197.049C65.3782 228.774 138.134 196.392 152.959 189.821C167.785 183.25 182.908 159.485 153.131 141.533C123.355 123.581 47.6561 117.615 37.1048 125.902Z" fill="#455A64"/>
<path d="M44.1051 131.521C28.853 140.505 6.12133 165.259 37.2114 192.409C68.3016 219.559 130.566 191.847 143.254 186.223C155.942 180.6 168.884 160.261 143.401 144.898C117.918 129.534 53.1349 124.429 44.1051 131.521Z" fill="#70848D"/>
<circle cx="61.1897" cy="167.887" r="20.8482" stroke="#455A64" stroke-width="6"/>
<path d="M192.82 23.1901L192.811 23.198L192.803 23.206L175.84 40.1737L175.53 40.4835L175.445 40.9186L154.188 149.425L105.26 176.949L104.897 177.153L104.7 177.521C103.935 178.952 102.795 180.518 101.63 182.112L101.561 182.207C100.464 183.707 99.3152 185.279 98.6692 186.613C98.345 187.282 98.0499 188.079 98.0691 188.888C98.0793 189.32 98.1798 189.788 98.4407 190.232C98.7041 190.681 99.0786 191.016 99.5009 191.252C100.289 191.691 101.281 191.807 102.318 191.785C103.397 191.763 104.738 191.584 106.371 191.249L106.568 191.208L106.745 191.117L160.798 163.138L161.402 162.825L161.542 162.153L185.449 47.9286L200.073 35.9119C200.959 35.7096 201.587 35.0222 201.958 34.5093C202.489 33.7741 202.929 32.8044 203.274 31.7786C203.965 29.7219 204.389 27.0947 204.255 24.8165C204.188 23.6814 203.977 22.5272 203.511 21.5499C203.034 20.5485 202.228 19.6256 200.978 19.2697C199.777 18.9278 198.492 19.205 197.212 19.8474C195.919 20.4957 194.465 21.5963 192.82 23.1901Z" fill="#6C63FF" stroke="#455A64" stroke-width="3"/>
<g filter="url(#filter0_d)">
<rect x="56.4199" y="183.15" width="50.5582" height="9.53928" fill="#6C63FF"/>
<rect x="54.9199" y="181.65" width="53.5582" height="12.5393" stroke="#455A64" stroke-width="3"/>
</g>
<path d="M22.5181 225.956L22.1399 227.763H23.9863H32.5717H34.0717V226.263C34.0717 225.652 34.2479 224.823 34.6096 223.815C34.9647 222.825 35.4666 221.75 36.0413 220.673C37.02 218.84 38.1703 217.077 39.0562 215.839H105.07H105.57L105.97 215.539C105.991 215.523 106.008 215.511 106.022 215.502C106.058 215.525 106.112 215.565 106.185 215.633C106.6 216.025 107.107 216.868 107.626 218.155C108.635 220.657 109.4 224.086 109.79 226.502L109.993 227.763H111.271H117.948H119.009L119.363 226.762C120.704 222.963 119.637 218.814 118.017 215.38C116.378 211.906 114.036 208.867 112.357 207.104L111.914 206.638H111.271H38.4633C33.5101 205.565 29.8136 209.184 27.3932 213.138C24.8763 217.25 23.2545 222.437 22.5181 225.956ZM106.073 215.476C106.072 215.476 106.071 215.477 106.067 215.478C106.071 215.476 106.073 215.476 106.073 215.476Z" fill="#6C63FF" stroke="#455A64" stroke-width="3"/>
<defs>
<filter id="filter0_d" x="49.4199" y="180.15" width="64.5582" height="23.5393" filterUnits="userSpaceOnUse" color-interpolation-filters="sRGB">
<feFlood flood-opacity="0" result="BackgroundImageFix"/>
<feColorMatrix in="SourceAlpha" type="matrix" values="0 0 0 0 0 0 0 0 0 0 0 0 0 0 0 0 0 0 127 0"/>
<feOffset dy="4"/>
<feGaussianBlur stdDeviation="2"/>
<feColorMatrix type="matrix" values="0 0 0 0 0 0 0 0 0 0 0 0 0 0 0 0 0 0 0.4 0"/>
<feBlend mode="normal" in2="BackgroundImageFix" result="effect1_dropShadow"/>
<feBlend mode="normal" in="SourceGraphic" in2="effect1_dropShadow" result="shape"/>
</filter>
</defs>
</svg>
