<svg width="215" height="206" viewBox="0 0 215 206" fill="none" xmlns="http://www.w3.org/2000/svg">
<path d="M35.9454 186.527L47.2523 164.153L56.1573 164.319L45.1022 186.344L35.9454 186.527Z" fill="#3B4A51" stroke="#3B4A51" stroke-width="4"/>
<path d="M173.005 187.596L156.928 153.665L167.422 154.259L183.189 187.809L173.005 187.596Z" fill="#3B4A51" stroke="#3B4A51" stroke-width="4"/>
<path d="M57.5189 111.904L176.994 81.0348C211.795 90.7261 214.121 134.462 184.558 157.55L61.3751 150.516C51.673 134.38 51.1825 128.902 57.5189 111.904Z" fill="#6C63FF"/>
<ellipse cx="51.7593" cy="123.845" rx="42.6587" ry="40.3226" fill="#5A55AF"/>
<path d="M3.05197 185.673H211.476C216.343 193.607 216.003 197.818 211.476 205.028H3.05197C-0.962794 197.595 -1.07149 193.364 3.05197 185.673Z" fill="#455A64"/>
<path d="M45.2566 83.891L36.5463 61.7547L44.7706 61.7547L53.1702 83.2894L45.2566 83.891Z" fill="#3B4A51" stroke="#3B4A51" stroke-width="4"/>
<path d="M168.35 81.88L164.215 26.8766L173.359 25.7118L176.712 79.6729L168.35 81.88Z" fill="#3B4A51" stroke="#3B4A51" stroke-width="4"/>
<circle cx="166" cy="121.028" r="16" fill="#3B4A51" stroke="#3B4A51" stroke-width="4"/>
<path d="M69.072 49.1008C69.166 47.7904 67.9225 46.6308 66.2946 46.5107L13.6813 36.4279C12.0534 36.3078 10.6576 37.2728 10.5636 38.5831L11.039 56.7457C10.9451 58.0561 12.1886 59.2157 13.8164 59.3358L65.1036 63.1192C66.7315 63.2393 68.1273 62.2744 68.2213 60.964L69.072 49.1008Z" fill="#6C63FF"/>
<path d="M138.271 24.548C138.457 26.0143 140.127 27.01 142 26.772L203.932 25.9183C205.805 25.6803 207.173 24.2988 206.986 22.8325L202.388 2.91349C202.202 1.44721 200.532 0.451482 198.659 0.689471L139.639 8.18745C137.766 8.42544 136.398 9.80703 136.585 11.2733L138.271 24.548Z" fill="#6C63FF"/>
</svg>
