<svg width="442" height="482" viewBox="0 0 442 482" fill="none" xmlns="http://www.w3.org/2000/svg">
<g clip-path="url(#clip0)">
<path d="M442 434.034C442 448.664 343.055 482 221 482C98.9451 482 0 448.664 0 434.034C0 419.405 98.9451 429.023 221 429.023C343.055 429.023 442 419.405 442 434.034Z" fill="#3F3D56"/>
<path opacity="0.1" d="M442 434.034C442 448.664 343.055 482 221 482C98.9451 482 0 448.664 0 434.034C0 419.405 98.9451 429.023 221 429.023C343.055 429.023 442 419.405 442 434.034Z" fill="black"/>
<path d="M62.9385 239.308C68.0735 239.308 72.2362 235.141 72.2362 230.001C72.2362 224.861 68.0735 220.695 62.9385 220.695C57.8035 220.695 53.6408 224.861 53.6408 230.001C53.6408 235.141 57.8035 239.308 62.9385 239.308Z" fill="#6C63FF"/>
<path d="M103.706 315.91C108.841 315.91 113.003 311.743 113.003 306.603C113.003 301.463 108.841 297.296 103.706 297.296C98.5705 297.296 94.4078 301.463 94.4078 306.603C94.4078 311.743 98.5705 315.91 103.706 315.91Z" fill="#6C63FF"/>
<path d="M72.2362 296.581C77.3712 296.581 81.534 292.414 81.534 287.274C81.534 282.134 77.3712 277.967 72.2362 277.967C67.1012 277.967 62.9385 282.134 62.9385 287.274C62.9385 292.414 67.1012 296.581 72.2362 296.581Z" fill="#6C63FF"/>
<path d="M75.2018 419.374C75.0377 419.105 71.1676 412.637 69.8259 399.205C68.5952 386.883 69.3866 366.111 80.1482 337.138C100.536 282.248 75.4498 237.961 75.1935 237.52L76.4311 236.801C76.496 236.913 82.9692 248.204 86.7932 266.185C91.8459 290.022 90.0061 314.808 81.4892 337.637C61.1365 392.432 76.2676 418.372 76.4227 418.628L75.2018 419.374Z" fill="#CFCCE0"/>
<path d="M67.2298 235.013C65.2494 235.013 63.3135 234.425 61.6669 233.323C60.0203 232.222 58.7369 230.657 57.979 228.825C57.2212 226.994 57.0229 224.979 57.4092 223.035C57.7956 221.09 58.7492 219.305 60.1496 217.903C61.5499 216.501 63.334 215.547 65.2764 215.16C67.2187 214.773 69.2319 214.972 71.0616 215.73C72.8912 216.489 74.455 217.773 75.5552 219.422C76.6555 221.07 77.2427 223.008 77.2427 224.99C77.2397 227.647 76.1839 230.195 74.3067 232.074C72.4296 233.953 69.8845 235.01 67.2298 235.013ZM67.2298 216.399C65.5323 216.399 63.873 216.903 62.4616 217.847C61.0502 218.791 59.9502 220.133 59.3006 221.702C58.651 223.272 58.481 224.999 58.8122 226.666C59.1433 228.332 59.9607 229.863 61.161 231.065C62.3613 232.266 63.8906 233.084 65.5554 233.416C67.2203 233.747 68.9459 233.577 70.5142 232.927C72.0824 232.277 73.4228 231.176 74.3659 229.763C75.3089 228.35 75.8123 226.689 75.8123 224.99C75.8097 222.712 74.9046 220.529 73.2957 218.918C71.6867 217.308 69.5052 216.402 67.2298 216.399Z" fill="#CFCCE0"/>
<path d="M96.5534 268.66C101.688 268.66 105.851 264.493 105.851 259.353C105.851 254.213 101.688 250.047 96.5534 250.047C91.4184 250.047 87.2556 254.213 87.2556 259.353C87.2556 264.493 91.4184 268.66 96.5534 268.66Z" fill="#CFCCE0"/>
<path d="M76.5275 292.285C74.5471 292.285 72.6112 291.697 70.9646 290.596C69.318 289.495 68.0346 287.929 67.2768 286.098C66.5189 284.266 66.3206 282.251 66.707 280.307C67.0933 278.363 68.047 276.577 69.4473 275.175C70.8477 273.774 72.6318 272.819 74.5741 272.432C76.5164 272.046 78.5297 272.244 80.3593 273.003C82.189 273.761 83.7528 275.046 84.853 276.694C85.9532 278.342 86.5405 280.28 86.5405 282.262C86.5375 284.92 85.4816 287.467 83.6045 289.346C81.7273 291.225 79.1822 292.282 76.5275 292.285ZM76.5275 273.672C74.83 273.672 73.1707 274.175 71.7593 275.119C70.3479 276.063 69.2479 277.405 68.5983 278.975C67.9487 280.545 67.7787 282.272 68.1099 283.938C68.4411 285.605 69.2585 287.136 70.4588 288.337C71.659 289.539 73.1883 290.357 74.8531 290.688C76.518 291.02 78.2436 290.85 79.8119 290.199C81.3801 289.549 82.7205 288.448 83.6636 287.035C84.6067 285.622 85.11 283.962 85.11 282.262C85.1075 279.985 84.2024 277.801 82.5934 276.191C80.9845 274.58 78.8029 273.674 76.5275 273.672V273.672Z" fill="#CFCCE0"/>
<path d="M100.845 311.615C98.8643 311.615 96.9284 311.027 95.2818 309.925C93.6352 308.824 92.3518 307.259 91.5939 305.427C90.8361 303.596 90.6378 301.581 91.0241 299.636C91.4105 297.692 92.3641 295.906 93.7645 294.505C95.1648 293.103 96.9489 292.148 98.8913 291.762C100.834 291.375 102.847 291.573 104.676 292.332C106.506 293.091 108.07 294.375 109.17 296.024C110.27 297.672 110.858 299.61 110.858 301.592C110.855 304.249 109.799 306.797 107.922 308.676C106.044 310.555 103.499 311.612 100.845 311.615ZM100.845 293.001C99.1472 293.001 97.4879 293.505 96.0765 294.449C94.6651 295.393 93.5651 296.734 92.9155 298.304C92.2659 299.874 92.0959 301.601 92.4271 303.268C92.7582 304.934 93.5756 306.465 94.7759 307.666C95.9762 308.868 97.5055 309.686 99.1703 310.018C100.835 310.349 102.561 310.179 104.129 309.529C105.697 308.879 107.038 307.777 107.981 306.365C108.924 304.952 109.427 303.291 109.427 301.592C109.425 299.314 108.52 297.131 106.911 295.52C105.302 293.909 103.12 293.004 100.845 293.001Z" fill="#CFCCE0"/>
<path d="M69.3754 340.967C74.5104 340.967 78.6731 336.8 78.6731 331.66C78.6731 326.52 74.5104 322.353 69.3754 322.353C64.2404 322.353 60.0777 326.52 60.0777 331.66C60.0777 336.8 64.2404 340.967 69.3754 340.967Z" fill="#CFCCE0"/>
<path d="M80.8188 419.716C80.8188 419.716 71.5211 396.807 99.4142 379.626L80.8188 419.716Z" fill="#CFCCE0"/>
<path d="M69.384 419.301C69.384 419.301 65.1525 394.939 32.4016 395.148L69.384 419.301Z" fill="#CFCCE0"/>
<path d="M405.051 428.307H246.793C246.793 428.307 243.585 381.212 262.565 380.677C281.546 380.142 279.407 401.548 303.199 372.114C326.991 342.679 355.862 344.285 359.605 361.678C363.348 379.071 352.387 392.986 372.437 388.704C392.486 384.423 421.357 395.662 405.051 428.307Z" fill="#6C63FF"/>
<path d="M323.25 428.318L322.716 428.296C323.962 397.289 330.45 377.367 335.673 366.114C341.344 353.896 346.808 348.95 346.863 348.901L347.218 349.301C347.165 349.35 341.763 354.247 336.138 366.382C330.944 377.587 324.492 397.428 323.25 428.318Z" fill="#F2F2F2"/>
<path d="M380.528 428.382L380.015 428.232C386.195 406.998 400.749 393.592 400.895 393.459L401.254 393.855C401.109 393.987 386.664 407.299 380.528 428.382Z" fill="#F2F2F2"/>
<path d="M271.719 428.344L271.19 428.27C273.287 413.133 269.499 401.388 265.952 394.202C262.112 386.42 257.73 382.17 257.686 382.128L258.056 381.742C258.101 381.784 262.55 386.1 266.431 393.965C270.011 401.219 273.835 413.072 271.719 428.344Z" fill="#F2F2F2"/>
<path d="M426.529 429.023H229.724L229.678 428.356C229.565 426.696 227.054 387.538 239.73 373.566C242.563 370.443 245.977 368.803 249.875 368.694C258.137 368.458 263.329 371.556 267.517 374.043C275.411 378.73 280.625 381.827 299.585 358.37C320.124 332.96 342.285 327.493 355.025 330.532C363.256 332.497 368.929 338.049 370.59 345.765C372.162 353.072 371.661 359.937 371.259 365.454C370.828 371.356 370.488 376.018 372.91 378.131C374.932 379.894 378.967 380.054 385.609 378.636C399.118 375.751 417.967 378.219 427.428 390.455C432.519 397.038 436.528 409.005 426.727 428.627L426.529 429.023ZM231.067 427.591H425.643C432.947 412.758 433.175 400.227 426.297 391.332C417.618 380.107 399.409 377.152 385.907 380.036C378.691 381.577 374.392 381.323 371.971 379.211C369.009 376.628 369.373 371.651 369.832 365.35C370.228 359.924 370.721 353.173 369.192 346.067C367.652 338.911 362.368 333.757 354.693 331.926C342.36 328.98 320.818 334.378 300.697 359.271C280.96 383.688 275.015 380.159 266.788 375.274C262.548 372.757 257.735 369.903 249.915 370.125C246.421 370.223 243.351 371.705 240.789 374.529C229.397 387.086 230.788 422.297 231.067 427.591Z" fill="#CFCCE0"/>
<path d="M221 460.523C343.055 460.523 442 448.664 442 434.034C442 419.405 343.055 407.546 221 407.546C98.9451 407.546 0 419.405 0 434.034C0 448.664 98.9451 460.523 221 460.523Z" fill="#3F3D56"/>
<path d="M225.86 87.5185C225.86 87.5185 214.811 83.5687 207.708 99.3677C200.606 115.167 189.557 132.545 189.557 132.545L195.871 134.125C195.871 134.125 197.449 123.066 201.395 121.486L199.817 135.705C199.817 135.705 247.167 152.294 268.475 134.125L267.686 128.596C267.686 128.596 270.843 129.386 270.843 134.125L273.21 131.756C273.21 131.756 270.843 127.016 263.74 120.696C259.078 116.548 257.476 108.657 256.926 103.723C256.513 99.6034 254.867 95.7046 252.202 92.5381C247.482 87.0625 238.881 81.2428 225.86 87.5185Z" fill="#2F2E41"/>
<path d="M214.205 149.462L202.762 135.144L194.18 105.792L227.079 70.7123C227.079 70.7123 234.231 43.5079 227.794 44.9397C221.358 46.3715 219.927 66.4169 219.927 66.4169L178.445 98.6326C178.445 98.6326 182.736 143.735 194.895 159.485L204.193 188.837L214.205 149.462Z" fill="#FFB9B9"/>
<path d="M245.675 149.462L257.118 135.144L265.701 105.792L232.801 70.7123C232.801 70.7123 225.649 43.5079 232.086 44.9397C238.523 46.3715 239.953 66.4169 239.953 66.4169L281.435 98.6326C281.435 98.6326 277.144 143.735 264.986 159.485L255.688 188.837L245.675 149.462Z" fill="#FFB9B9"/>
<path d="M229.94 137.292C240.21 137.292 248.536 128.958 248.536 118.678C248.536 108.398 240.21 100.064 229.94 100.064C219.67 100.064 211.345 108.398 211.345 118.678C211.345 128.958 219.67 137.292 229.94 137.292Z" fill="#FFB9B9"/>
<path d="M221.358 128.701C221.358 128.701 222.073 143.735 217.782 148.746C213.49 153.757 209.199 179.53 229.94 180.246C250.681 180.962 248.536 158.769 248.536 158.769L244.244 146.598C244.244 146.598 237.807 137.292 239.953 128.701H221.358Z" fill="#FFB9B9"/>
<path d="M202.047 295.507L217.424 300.16C217.424 300.16 229.94 292.643 229.94 299.802C229.94 306.961 225.649 316.268 227.079 322.711C228.51 329.154 231.371 344.904 227.079 344.904C222.788 344.904 214.205 316.984 214.205 316.984L199.901 309.109L202.047 295.507Z" fill="#FFB9B9"/>
<path d="M221.358 395.733L215.636 417.926C215.636 417.926 210.629 424.37 215.636 427.233C217.985 428.577 219.704 431.339 220.868 433.893C221.882 436.193 223.578 438.125 225.727 439.427C227.876 440.728 230.373 441.336 232.879 441.167C235.32 440.964 237.377 439.998 237.877 437.488C238.015 436.7 237.988 435.892 237.798 435.115C237.607 434.338 237.257 433.61 236.769 432.976C231.494 425.84 230.298 421.148 230.298 421.148L232.443 396.091L221.358 395.733Z" fill="#FFB9B9"/>
<path d="M207.508 121.984C207.508 121.984 213.822 113.294 219.346 111.714C224.87 110.135 225.66 102.235 225.66 102.235C225.66 102.235 239.865 118.034 248.546 118.824C257.227 119.614 249.335 99.8652 249.335 99.8652L233.551 95.9155L218.557 97.4954L206.719 105.395L207.508 121.984Z" fill="#2F2E41"/>
<path d="M195.61 241.098L192.749 246.825C192.749 246.825 123.374 269.018 129.095 289.779C134.817 310.541 167.002 304.813 167.002 304.813L202.762 311.257L206.338 295.507L181.306 289.063L224.218 273.314L225.649 346.336L219.927 398.597L234.231 400.029C234.231 400.029 249.966 352.063 247.82 332.018C247.82 332.018 274.283 250.405 259.264 238.234C244.244 226.064 195.61 241.098 195.61 241.098Z" fill="#2F2E41"/>
<path d="M230.779 158.779L219.619 145.278L212.06 148.746L204.193 173.803C204.193 173.803 197.756 185.973 205.623 198.859C205.623 198.859 207.053 207.45 204.908 209.598C202.762 211.746 202.047 225.348 202.047 225.348L192.749 243.246C192.749 243.246 245.675 252.552 261.409 239.666C261.409 239.666 253.153 209.196 258.159 199.889C263.166 190.583 263.881 176.315 258.159 169.872C252.438 163.429 246.39 146.598 246.39 146.598L242.926 144.381L230.779 158.779Z" fill="#CFCCE0"/>
<path d="M272.501 51.8922H265.642V45.026H265.019V51.8922H258.159V52.516H265.019V59.3822H265.642V52.516H272.501V51.8922Z" fill="#CFCCE0"/>
<path d="M207.31 37.536H200.45V30.6699H199.827V37.536H192.967V38.1599H199.827V45.026H200.45V38.1599H207.31V37.536Z" fill="#CFCCE0"/>
<path d="M238.601 6.86613H231.743V0H231.119V6.86613H224.259V7.49H231.119V14.3561H231.743V7.49H238.601V6.86613Z" fill="#CFCCE0"/>
</g>
<defs>
<clipPath id="clip0">
<rect width="442" height="482" fill="white"/>
</clipPath>
</defs>
</svg>
