<svg width="200" height="188" viewBox="0 0 200 188" fill="none" xmlns="http://www.w3.org/2000/svg">
<path d="M197.212 38.5508L159.711 13.5503C158.686 12.8628 157.486 12.5002 156.248 12.5002H43.7462C42.5087 12.5002 41.3086 12.8628 40.2836 13.5503L2.78289 38.5508C0.432845 40.1133 -0.567174 43.0508 0.320343 45.7259L12.8206 83.2266C13.3831 84.9392 14.6831 86.3267 16.3582 87.0267C18.0332 87.7142 19.9207 87.6517 21.5458 86.8392L37.4961 78.864V181.254C37.4961 184.704 40.2961 187.504 43.7462 187.504H156.248C159.698 187.504 162.499 184.704 162.499 181.254V78.864L178.449 86.8392C180.074 87.6517 181.936 87.7142 183.636 87.0267C185.311 86.3267 186.599 84.9392 187.174 83.2266L199.674 45.7259C200.574 43.0508 199.562 40.1133 197.212 38.5508Z" fill="#6C63FF"/>
<path d="M135.673 14.3253L123.173 1.82504C121.998 0.662513 120.41 0 118.748 0H81.247C79.5845 0 77.997 0.662513 76.8219 1.82504L64.3217 14.3253C63.0717 15.5878 62.4092 17.3253 62.5092 19.1004C62.6092 20.8754 63.4592 22.5254 64.8467 23.638L96.0973 48.6384C97.2348 49.5385 98.6224 50.001 99.9974 50.001C101.372 50.001 102.76 49.5385 103.91 48.6384L135.161 23.638C136.548 22.5254 137.398 20.8754 137.498 19.1004C137.586 17.3253 136.923 15.5878 135.673 14.3253ZM99.9974 35.7507L78.1095 18.2254L83.8346 12.5002H116.16L121.885 18.2254L99.9974 35.7507Z" fill="#DB5431"/>
<path d="M131.248 150.003H106.247C102.797 150.003 99.9971 147.203 99.9971 143.753V93.7518C99.9971 90.3018 102.797 87.5017 106.247 87.5017H131.248C134.698 87.5017 137.498 90.3018 137.498 93.7518V143.753C137.498 147.203 134.698 150.003 131.248 150.003ZM112.497 137.503H124.998V100.002H112.497V137.503Z" fill="#FAFAFA"/>
<path d="M81.2469 150.003C77.7969 150.003 74.9968 147.203 74.9968 143.753V100.002H68.7467C65.2966 100.002 62.4966 97.2019 62.4966 93.7518C62.4966 90.2893 65.2966 87.5017 68.7467 87.5017H81.2469C84.697 87.5017 87.4971 90.3018 87.4971 93.7518V143.753C87.4971 147.203 84.697 150.003 81.2469 150.003Z" fill="#FAFAFA"/>
</svg>
