<svg width="308" height="304" viewBox="0 0 308 304" fill="none" xmlns="http://www.w3.org/2000/svg">
<path d="M154 303.73C239.052 303.73 308 235.738 308 151.865C308 67.9923 239.052 0 154 0C68.9482 0 0 67.9923 0 151.865C0 235.738 68.9482 303.73 154 303.73Z" fill="white"/>
<path d="M154 302.098C238.137 302.098 306.344 234.836 306.344 151.865C306.344 68.8943 238.137 1.63306 154 1.63306C69.8628 1.63306 1.65598 68.8943 1.65598 151.865C1.65598 234.836 69.8628 302.098 154 302.098Z" stroke="#707070"/>
<path d="M188.823 17.7751C195.841 17.7751 202.899 27.7296 203.839 38.3504C204.247 42.9226 199.895 45.457 199.895 51.0221C199.895 58.292 194.778 67.4365 192.609 72.9036C186.038 81.542 189.565 83.3545 183.485 83.3545C173.427 83.348 170.608 69.3765 170.608 51.0188C170.608 41.9429 171.973 44.3335 175.205 38.3504C178.52 32.2105 183.753 17.7751 188.823 17.7751Z" fill="#DB5431"/>
<path d="M175.136 37.9226L151.876 85.4155L175.136 138.633L213.903 193.566V167.834L225.763 147.788L190.188 101.438V85.4155L204.33 37.9226H175.136Z" fill="#DB5431"/>
<path d="M143.594 126.774L137.984 129.887L87.8121 103.247L78.6916 107.398H87.8121L137.984 135.076L143.594 126.774Z" fill="black"/>
<path d="M159.04 126.774L164.671 129.887L214.838 103.247L223.959 107.398H214.838L164.671 135.076L159.04 126.774Z" fill="black"/>
<path d="M127.567 89.7653L122.771 96.0759L118.624 121.901L107.867 145.682L97.4017 163.719L99.1819 173.199C97.6146 174.731 96.2333 176.437 95.0658 178.283C94.7939 178.849 95.8144 180.136 95.8568 180.06" stroke="#DB5431" stroke-width="2" stroke-linecap="round"/>
<path d="M152.92 288.604L148.346 285.012V283.839L147.141 284.068L143.1 280.9L145.207 275.619L141.09 279.335V277.33L139.103 277.771L129.582 267.849L127.263 268.502L126.555 266.481L123.67 266.752L120.51 262.284C117.237 258.127 114.435 253.629 112.155 248.871C110.31 245.166 109.16 241.163 108.76 237.055C108.545 235.119 108.737 233.161 109.324 231.301C109.911 229.442 110.88 227.722 112.171 226.248C113.644 231.078 116.227 235.507 119.719 239.191C126.79 246.931 139.62 247.323 142.12 247.323C142.491 247.323 142.703 247.323 142.703 247.323C142.72 247.205 144.432 234.824 138.673 226.189C143.903 226.858 149.17 227.206 154.443 227.231C157.06 227.231 159.593 227.13 161.971 226.931C157.335 236.327 160.835 248.486 160.872 248.603C161.017 248.603 175.874 247.068 182.485 237.401C185.786 232.832 187.782 227.472 188.264 221.882C190.082 223.364 190.979 226.532 190.933 231.294C190.766 236.132 190.132 240.944 189.039 245.664C187.636 252.056 185.9 258.372 183.836 264.587C183.836 264.587 183.074 265.083 182.011 265.893C181.95 265.938 181.875 265.961 181.799 265.958C181.668 265.95 181.538 265.922 181.415 265.877C181.283 265.829 181.145 265.801 181.004 265.792C180.896 265.788 180.79 265.824 180.706 265.893C180.502 266.152 180.374 266.462 180.335 266.788C180.287 267.175 180.128 267.54 179.875 267.839C179.862 267.844 179.848 267.844 179.835 267.839C179.438 267.717 179.057 267.545 178.703 267.33L178.616 267.284C178.229 267.049 177.813 266.863 177.378 266.732C177.362 266.727 177.344 266.727 177.328 266.732C177.182 266.85 177.5 267.333 177.838 267.843C178.176 268.352 178.54 268.904 178.371 269.038C175.907 271.034 173.632 272.84 171.612 274.407C171.579 274.435 171.537 274.451 171.493 274.453C171.311 274.453 171.132 274.159 170.96 273.875C170.787 273.591 170.605 273.3 170.42 273.3C170.373 273.302 170.329 273.319 170.294 273.349C170.045 273.542 170.006 274.002 169.963 274.459C169.92 274.917 169.883 275.397 169.631 275.599C169.609 275.614 169.582 275.621 169.555 275.619C168.61 275.168 167.741 274.577 166.979 273.865C166.216 273.15 165.344 272.558 164.395 272.108C164.368 272.107 164.341 272.115 164.319 272.131C164.021 272.359 164.727 273.764 165.406 275.109C166.084 276.455 166.77 277.82 166.482 278.049L160.342 282.817C160.319 282.833 160.291 282.841 160.262 282.84C160.059 282.793 159.867 282.705 159.699 282.582C159.532 282.458 159.34 282.37 159.136 282.324C159.105 282.323 159.075 282.332 159.05 282.35C158.951 282.425 159 282.742 159.05 283.078C159.1 283.415 159.153 283.731 159.05 283.82L152.933 288.571L152.92 288.604Z" fill="black"/>
</svg>
