<svg width="200" height="176" viewBox="0 0 200 176" fill="none" xmlns="http://www.w3.org/2000/svg">
<path d="M78.5001 60.8872L69.4849 55.0913L14.6189 140.434L23.6342 146.23L78.5001 60.8872Z" fill="#B3B3BA"/>
<path d="M23.2398 158.243L3.8504 145.778C2.9379 145.191 2.67384 143.976 3.26055 143.063L6.53242 137.974C7.11914 137.062 8.33437 136.798 9.24687 137.385L28.6359 149.849C29.5484 150.436 29.8125 151.651 29.2257 152.564L25.9539 157.653C25.3675 158.565 24.1523 158.829 23.2398 158.243Z" fill="#B3B3BA"/>
<path d="M54.2932 100.04C60.4152 100.04 65.378 95.0769 65.378 88.955C65.378 82.833 60.4152 77.8702 54.2932 77.8702C48.1713 77.8702 43.2085 82.833 43.2085 88.955C43.2085 95.0769 48.1713 100.04 54.2932 100.04Z" fill="#6C63FF"/>
<path d="M56.4717 99.5221C51.3963 100.54 46.4389 97.9155 44.3018 93.4569C46.1049 94.0815 48.0928 94.2502 50.0959 93.8459C56.0982 92.644 59.9912 86.8026 58.7853 80.7999C58.5967 79.869 58.3021 78.9889 57.9052 78.1718C61.4998 79.4132 64.3595 82.4733 65.1607 86.4725C66.363 92.4748 62.474 98.3162 56.4717 99.5221Z" fill="#5045FF"/>
<path d="M33.7034 131.739C39.8253 131.739 44.7881 126.776 44.7881 120.654C44.7881 114.532 39.8253 109.569 33.7034 109.569C27.5815 109.569 22.6187 114.532 22.6187 120.654C22.6187 126.776 27.5815 131.739 33.7034 131.739Z" fill="#6C63FF"/>
<path d="M35.8838 131.524C30.8084 132.542 25.851 129.918 23.7139 125.459C25.517 126.084 27.5049 126.253 29.508 125.848C35.5103 124.646 39.4033 118.805 38.1974 112.802C38.0088 111.871 37.7142 110.991 37.3174 110.174C40.9119 111.415 43.7716 114.476 44.5728 118.475C45.7752 124.477 41.8861 130.319 35.8838 131.524Z" fill="#5045FF"/>
<path d="M54.2932 92.6593C56.339 92.6593 57.9974 91.0008 57.9974 88.955C57.9974 86.9092 56.339 85.2507 54.2932 85.2507C52.2473 85.2507 50.5889 86.9092 50.5889 88.955C50.5889 91.0008 52.2473 92.6593 54.2932 92.6593Z" fill="#3B4A51"/>
<path d="M33.7033 124.358C35.7491 124.358 37.4076 122.7 37.4076 120.654C37.4076 118.608 35.7491 116.95 33.7033 116.95C31.6575 116.95 29.999 118.608 29.999 120.654C29.999 122.7 31.6575 124.358 33.7033 124.358Z" fill="#3B4A51"/>
<path d="M83.9481 57.4629H73.2466V157.963H83.9481V57.4629Z" fill="#B3B3BA"/>
<path d="M83.9484 57.4629H78.5977V157.963H83.9484V57.4629Z" fill="#A0A0A5"/>
<path d="M60.479 170.414V159.929C60.479 158.845 61.3583 157.965 62.4431 157.965H195.089C196.174 157.965 197.053 158.845 197.053 159.929V170.414C197.053 171.499 196.174 172.378 195.089 172.378H62.4434C61.3587 172.378 60.479 171.499 60.479 170.414Z" fill="#455A64"/>
<path d="M185.392 172.378V157.965H195.09C196.174 157.965 197.054 158.845 197.054 159.929V170.414C197.054 171.499 196.174 172.378 195.09 172.378H185.392Z" fill="#57D5EA"/>
<path d="M184.287 26.3926H173.586V157.963H184.287V26.3926Z" fill="#B3B3BA"/>
<path d="M184.288 26.3926H178.938V157.963H184.288V26.3926Z" fill="#A0A0A5"/>
<path d="M184.835 5.07315C180.617 1.71495 174.474 2.41222 171.116 6.63096L116.539 75.1906C114.915 77.2308 111.944 77.5683 109.903 75.9441L80.2692 52.3535C76.0504 48.9953 69.9079 49.6926 66.5497 53.9113L66.5465 53.9152C63.1883 58.134 63.8856 64.2765 68.1043 67.6347L109.136 100.298C113.295 103.609 119.352 102.923 122.665 98.7648L186.39 18.7966C189.752 14.5782 189.055 8.43291 184.835 5.07315Z" fill="#6C63FF"/>
<path d="M186.39 18.7977L122.664 98.7662C119.353 102.922 113.295 103.61 109.135 100.298L68.1038 67.6343C63.9476 64.3265 63.2093 58.3163 66.4069 54.105C66.8823 54.7413 67.4519 55.3304 68.1038 55.8491L109.135 88.5131C113.295 91.8248 119.353 91.1373 122.664 86.9772L186.39 7.01252C186.441 6.94963 186.491 6.88284 186.539 6.81604C189.175 10.2887 189.234 15.2305 186.39 18.7977Z" fill="#5045FF"/>
<path d="M178.937 39.3378C186.087 39.3378 191.883 33.542 191.883 26.3926C191.883 19.2431 186.087 13.4473 178.937 13.4473C171.788 13.4473 165.992 19.2431 165.992 26.3926C165.992 33.542 171.788 39.3378 178.937 39.3378Z" fill="#3B4A51"/>
<path d="M191.881 26.3949C191.881 33.5445 186.087 39.3386 178.937 39.3386C174.125 39.3386 169.922 36.7105 167.694 32.8136C169.462 33.7211 171.465 34.2316 173.587 34.2316C180.736 34.2316 186.531 28.4375 186.531 21.2879C186.531 18.9504 185.91 16.7586 184.83 14.8652C189.017 17.0102 191.881 21.3668 191.881 26.3949Z" fill="#A0A0A5"/>
<path d="M195.089 155.019H187.233V39.941C191.785 37.143 194.828 32.1176 194.828 26.3938C194.828 22.4578 193.386 18.8543 191.007 16.0758C191.431 14.5356 191.568 12.9157 191.383 11.2809C191.001 7.9063 189.327 4.88326 186.67 2.76803C184.013 0.65397 180.694 -0.301107 177.32 0.0832672C173.947 0.466079 170.925 2.1399 168.81 4.79615L132.843 49.9781L116.709 37.6879C114.508 36.0105 111.711 35.4566 109.036 36.1676C106.362 36.8785 104.21 38.7476 103.131 41.2961L97.6885 54.1605C97.0545 55.6593 97.7553 57.3878 99.2537 58.0218C100.753 58.6546 102.481 57.955 103.115 56.4566L108.558 43.5918C108.922 42.732 109.648 42.1015 110.55 41.8617C111.454 41.6226 112.396 41.8094 113.138 42.3746L129.172 54.589L114.233 73.3554C113.938 73.7261 113.516 73.9605 113.045 74.0136C112.573 74.0691 112.11 73.9339 111.738 73.6386L82.1038 50.048C76.6214 45.684 68.6097 46.5933 64.2409 52.08C62.1269 54.7363 61.1729 58.0566 61.5562 61.4296C61.5729 61.5792 61.5956 61.7269 61.6179 61.8749L53.1995 74.9694C52.6441 75.014 52.0878 75.0874 51.5331 75.1983C47.8585 75.9351 44.691 78.0589 42.6132 81.1784C40.5359 84.2975 39.7976 88.0389 40.5343 91.7139C40.6761 92.4206 40.8699 93.1077 41.1113 93.7725L32.832 106.651C32.2031 106.692 31.5726 106.771 30.9441 106.897C27.2695 107.633 24.1019 109.757 22.0242 112.877C19.9469 115.996 19.2086 119.738 19.9457 123.413C20.1019 124.192 20.3242 124.947 20.6015 125.676L13.5484 136.647L10.8395 134.906C9.73595 134.196 8.42345 133.958 7.14103 134.238C5.85939 134.516 4.76252 135.277 4.05353 136.381L0.781667 141.469C0.0722931 142.572 -0.164816 143.886 0.113699 145.168C0.392605 146.449 1.15315 147.546 2.25666 148.255L21.6457 160.72C22.448 161.236 23.3605 161.502 24.2914 161.502C24.6414 161.502 24.9937 161.465 25.3441 161.388C26.6258 161.11 27.7226 160.349 28.4316 159.245L31.7035 154.157C32.4129 153.054 32.65 151.74 32.3714 150.458C32.0925 149.177 31.332 148.08 30.2285 147.371L27.5191 145.629L34.5726 134.657C35.2015 134.617 35.832 134.538 36.4605 134.411C40.1351 133.675 43.3027 131.551 45.3804 128.432C47.4577 125.312 48.196 121.571 47.4589 117.896C47.3027 117.116 47.0804 116.361 46.8027 115.633L54.9417 102.974C55.6437 102.94 56.3483 102.854 57.0503 102.713C60.7249 101.977 63.8925 99.8526 65.9702 96.7335C68.0475 93.6143 68.7858 89.8725 68.0491 86.1975C67.878 85.3444 67.6292 84.5206 67.3136 83.7292L70.2987 79.0854V155.018H62.4429C59.7351 155.018 57.5323 157.221 57.5323 159.929V170.413C57.5323 173.121 59.7351 175.324 62.4429 175.324H140.266C141.893 175.324 143.212 174.005 143.212 172.377C143.212 170.75 141.893 169.431 140.266 169.431H63.4253V160.911H194.107V169.431H158.729C157.102 169.431 155.783 170.75 155.783 172.377C155.783 174.005 157.102 175.324 158.729 175.324H195.089C197.797 175.324 200 173.121 200 170.413V159.929C200 157.222 197.797 155.019 195.089 155.019ZM176.532 155.019V42.1004C177.316 42.2207 178.119 42.2855 178.936 42.2855C179.754 42.2855 180.557 42.223 181.341 42.1035V155.019H176.532ZM173.421 8.46567C174.555 7.04107 176.176 6.14341 177.985 5.93794C179.796 5.7313 181.576 6.2438 183 7.37817C184.425 8.51177 185.322 10.1317 185.528 11.9395C183.518 11.0196 181.287 10.5024 178.936 10.5024C175.193 10.5024 171.75 11.8067 169.031 13.9805L173.421 8.46567ZM178.936 16.395C184.45 16.395 188.936 20.8801 188.936 26.3938C188.936 31.9074 184.45 36.393 178.936 36.393C173.423 36.393 168.938 31.9074 168.938 26.3938C168.938 20.8801 173.423 16.395 178.936 16.395ZM164.595 19.5531C163.602 21.6262 163.045 23.9461 163.045 26.3938C163.045 30.7508 164.809 34.7027 167.658 37.5762L148.358 61.796L137.533 53.5496L164.595 19.5531ZM24.0066 155.233L6.26994 143.83L8.4797 140.394L26.2168 151.797L24.0066 155.233ZM22.7508 142.152L18.6926 139.543L24.1992 130.978C24.7344 131.469 25.3101 131.923 25.9261 132.333C26.6711 132.829 27.4543 133.24 28.2609 133.582L22.7508 142.152ZM40.4769 125.166C39.2718 126.975 37.4347 128.207 35.3031 128.634C33.1722 129.063 31.0015 128.633 29.1918 127.428C27.3824 126.223 26.1508 124.386 25.7234 122.255C25.2961 120.123 25.7242 117.953 26.9293 116.143C28.1343 114.334 29.9714 113.102 32.1031 112.675C32.6418 112.567 33.1832 112.513 33.7203 112.513C35.3089 112.513 36.8621 112.98 38.2144 113.88C40.0234 115.085 41.2554 116.922 41.6828 119.054C42.1101 121.186 41.682 123.356 40.4769 125.166ZM43.207 110.331C42.6718 109.841 42.096 109.387 41.4804 108.976C40.7359 108.48 39.9554 108.063 39.1492 107.722L44.6566 99.1549C45.2288 99.6932 45.8472 100.19 46.5144 100.635C47.2081 101.097 47.9359 101.484 48.6835 101.812L43.207 110.331ZM55.8917 96.9358C53.7605 97.362 51.5902 96.935 49.7808 95.7296C47.9714 94.5245 46.7394 92.687 46.312 90.5557C45.8847 88.4245 46.3132 86.2542 47.5183 84.4448C48.7234 82.6354 50.5609 81.4034 52.6921 80.9761C53.2308 80.8683 53.7718 80.8147 54.3085 80.8147C55.8968 80.8147 57.4507 81.2812 58.8026 82.1819C60.612 83.387 61.844 85.2245 62.2714 87.3557C63.1538 91.7561 60.2917 96.0538 55.8917 96.9358ZM63.6632 78.512C63.1655 78.0675 62.6343 77.6542 62.069 77.278C61.2737 76.7483 60.4374 76.3069 59.5726 75.9534L64.5218 68.255C65.0444 68.864 65.6276 69.4292 66.2694 69.9402L68.1909 71.4695L63.6632 78.512ZM69.9393 65.3296C68.5151 64.1956 67.6167 62.5749 67.4116 60.7652C67.2061 58.9558 67.7175 57.175 68.8546 55.746C70.1991 54.0574 72.1882 53.1777 74.1956 53.1777C75.6842 53.1777 77.1823 53.6613 78.4346 54.6585L108.069 78.2487C109.672 79.5245 111.675 80.0999 113.71 79.8687C115.745 79.6378 117.569 78.628 118.845 77.0253L133.862 58.1605L144.685 66.405L120.362 96.9284C118.066 99.8092 113.854 100.288 110.971 97.9921L69.9393 65.3296ZM83.9471 120.351C82.3198 120.351 81.001 121.67 81.001 123.297V155.019H76.1917V77.8386L81.0006 81.6667V104.442C81.0006 106.069 82.3194 107.388 83.9467 107.388C85.5741 107.388 86.8928 106.069 86.8928 104.442V86.3573L107.301 102.603C109.61 104.442 112.374 105.334 115.12 105.334C118.821 105.334 122.49 103.713 124.969 100.601L170.639 43.2894V155.019H86.8932V123.297C86.8932 121.67 85.5745 120.351 83.9471 120.351Z" fill="#3B4A51"/>
</svg>
