<svg width="200" height="184" viewBox="0 0 200 184" fill="none" xmlns="http://www.w3.org/2000/svg">
<path d="M132.917 140.625H19.6357V179.688H132.917V140.625Z" fill="#7B69E6"/>
<path d="M117.292 101.562H19.6357V140.625H117.292V101.562Z" fill="#6C63FF"/>
<path d="M89.9482 62.5H19.6357V101.562H89.9482V62.5Z" fill="#6C63FF"/>
<path d="M140.353 105.393L91.1424 19.6066C85.5713 9.89531 75.2311 3.90625 64.0353 3.90625H4.01074V62.5H29.0439C40.2107 62.5 50.5287 68.4586 56.1104 78.1301L105.698 164.057C111.28 173.729 121.598 179.687 132.765 179.687H180.573C189.203 179.687 196.198 172.691 196.198 164.062V136.718C196.198 128.089 189.203 121.093 180.573 121.093H167.459C156.263 121.094 145.923 115.105 140.353 105.393Z" fill="#F0F0F0"/>
<path d="M180.573 117.188H167.459C157.69 117.188 148.602 111.923 143.741 103.45L94.5305 17.6633C88.2809 6.76797 76.5957 0 64.0352 0H4.01055C1.85313 0 0 1.74922 0 3.90625V62.5C0 64.657 1.85313 66.4062 4.01055 66.4062H15.625V179.688C15.625 181.845 17.4781 183.594 19.6355 183.594H180.573C191.343 183.594 200 174.832 200 164.062V136.719C200 125.949 191.343 117.188 180.573 117.188ZM7.8125 58.5938V27.3438H29.3465C31.4988 27.3438 33.2527 25.5898 33.2527 23.4375C33.2527 21.2852 31.4988 19.5312 29.3465 19.5312H7.8125V7.8125H64.0352C73.8043 7.8125 82.8926 13.0766 87.7535 21.5504L136.964 107.337C143.214 118.232 154.898 125 167.459 125H180.573C187.034 125 192.291 130.257 192.291 136.719H172.76C170.608 136.719 168.854 138.473 168.854 140.625C168.854 142.777 170.608 144.531 172.76 144.531H192.188V159.375H107.506L59.4934 76.1781C53.2344 65.3316 41.5668 58.5938 29.0437 58.5938H7.8125ZM67.3773 105.469L85.4117 136.719H23.4375V105.469H67.3773ZM23.4375 97.6562V66.4062H29.0437C38.7836 66.4062 47.8586 71.6469 52.727 80.0828L62.8688 97.6562H23.4375ZM23.4375 175.781V144.531H89.9199L102.315 166.009C104.508 169.809 107.366 173.103 110.691 175.781H23.4375ZM180.573 175.781H132.764C125.168 175.781 117.977 172.593 112.869 167.188H191.865C190.494 172.136 185.953 175.781 180.573 175.781Z" fill="#455A64"/>
<path d="M180.573 175.781H132.764C125.168 175.781 117.977 172.593 112.869 167.188H191.865C190.494 172.136 185.953 175.781 180.573 175.781Z" fill="#455A64"/>
<path d="M44.9717 19.5312C42.8193 19.5312 41.0654 21.2852 41.0654 23.4375C41.0654 25.5898 42.8193 27.3438 44.9717 27.3438C47.124 27.3438 48.8779 25.5898 48.8779 23.4375C48.8779 21.2852 47.124 19.5312 44.9717 19.5312Z" fill="#819DAA"/>
<path d="M155.741 136.719C145.972 136.719 136.882 131.453 132.022 122.98L82.8115 37.1953C80.4873 33.1445 77.4326 29.6484 73.7334 26.8086C70.0772 24 65.9678 21.9648 61.5225 20.7578C61.1865 20.6641 60.8428 20.6211 60.4951 20.6211C58.7412 20.6211 57.1904 21.8043 56.7295 23.5039C56.167 25.582 57.3975 27.7305 59.4756 28.2969C66.5225 30.2109 72.4053 34.7504 76.0342 41.082L125.245 126.867C128.319 132.227 132.772 136.699 138.12 139.797C143.468 142.895 149.562 144.531 155.741 144.531C157.894 144.531 159.647 142.777 159.647 140.625C159.647 138.473 157.894 136.719 155.741 136.719Z" fill="#5045FF"/>
</svg>
