<svg width="200" height="200" viewBox="0 0 200 200" fill="none" xmlns="http://www.w3.org/2000/svg">
<path d="M169.92 200C173.156 200 175.779 197.377 175.779 194.141V183.594C175.779 180.358 173.156 177.735 169.92 177.735C166.684 177.735 164.061 180.358 164.061 183.594V194.141C164.061 197.377 166.684 200 169.92 200Z" fill="#596C76"/>
<path d="M28.5151 200C31.7511 200 34.3745 197.377 34.3745 194.141L34.3745 183.594C34.3745 180.358 31.7511 177.735 28.5151 177.735C25.2792 177.735 22.6558 180.358 22.6558 183.594L22.6558 194.141C22.6558 197.377 25.2788 200 28.5151 200Z" fill="#3B4A51"/>
<path d="M17.6136 146.619L29.3322 41.1512L58.5933 49.6109L58.5933 147.266L17.6136 146.619Z" fill="#3B4A51"/>
<path d="M23.4373 141.407C23.6678 141.407 23.9412 141.407 99.999 147.004C121.366 148.575 148.717 150.59 183.729 153.172C183.733 153.172 183.733 153.172 183.733 153.172C192.854 153.852 199.998 161.551 199.998 170.703C199.998 180.395 192.111 188.281 182.42 188.281L23.4373 188.281C10.5155 188.281 2.4604e-05 177.766 2.4604e-05 164.844C2.4604e-05 151.922 10.5155 141.407 23.4373 141.407Z" fill="#3B4A51"/>
<path d="M3.22098e-05 164.844C3.22098e-05 177.766 10.5156 188.281 23.4373 188.281H99.999L99.999 147.004C23.9412 141.407 23.6678 141.407 23.4373 141.407C10.5156 141.407 3.22098e-05 151.922 3.22098e-05 164.844Z" fill="#3B4A51"/>
<path d="M11.7185 164.844C11.7185 171.305 16.9763 176.563 23.4372 176.563L182.42 176.563C185.65 176.563 188.279 173.934 188.279 170.703C188.279 167.809 186.018 165.266 183.178 164.891H182.658L182.229 164.813C148.108 162.297 121.198 160.317 99.9989 158.754C38.9722 154.262 25.2653 153.27 23.1755 153.129C16.8318 153.27 11.7185 158.469 11.7185 164.844Z" fill="#6C63FF"/>
<path d="M11.7186 164.844C11.7186 171.305 16.9764 176.563 23.4373 176.563L99.999 176.563V158.754C38.9723 154.262 25.2654 153.27 23.1755 153.129C16.8319 153.27 11.7186 158.469 11.7186 164.844Z" fill="#5045FF"/>
<path d="M70.0112 55.3698C71.0346 52.2999 69.3752 48.9816 66.3054 47.9582L33.9514 37.1735L23.1483 4.04457C22.1452 0.968033 18.8382 -0.713591 15.7613 0.290696C12.6848 1.29381 11.0039 4.6012 12.0074 7.67773L23.7261 43.6149C24.3018 45.3809 25.6811 46.7695 27.4436 47.357L62.5995 59.0757C65.6694 60.0987 68.9877 58.4401 70.0112 55.3698Z" fill="#6C63FF"/>
</svg>
