<svg width="206" height="166" viewBox="0 0 206 166" fill="none" xmlns="http://www.w3.org/2000/svg">
<path d="M135.304 124.413H134.592L134.142 124.964C121.564 140.377 102.613 149.461 82.6119 149.461C78.5663 149.461 75.2866 152.741 75.2866 156.786C75.2866 160.832 78.5663 164.112 82.6119 164.112H139.893H141.393V162.612V125.913V124.413H139.893H135.304Z" fill="#6C63FF" stroke="#3B4A51" stroke-width="3"/>
<path d="M197.149 124.665L196.771 124.413H196.317H139.893H138.393V125.913V162.612V164.112H139.893H185.524C186.97 164.112 188.384 163.684 189.587 162.881L201.238 155.114C203.276 153.756 204.5 151.469 204.5 149.019V133.485C204.5 131.036 203.276 128.749 201.238 127.39L197.149 124.665Z" fill="#4641A0" stroke="#3B4A51" stroke-width="3"/>
<path d="M148.247 93.5038L148.247 93.5038C146.662 103.509 142.706 113.183 136.81 121.473L136.81 121.473C135.861 122.807 135.409 124.389 135.461 125.962L135.509 127.413H136.96H195.735H196.189L196.567 127.161L201.238 124.046L200.406 122.798L201.239 124.046C203.276 122.688 204.501 120.401 204.501 117.951V102.417V102.417C204.5 99.9682 203.276 97.6809 201.238 96.3224L189.588 88.5555C189.588 88.5554 189.588 88.5554 189.588 88.5554C188.384 87.7529 186.97 87.3252 185.525 87.3252H155.482C151.879 87.3252 148.811 89.9452 148.247 93.5038Z" fill="#282556" stroke="#3B4A51" stroke-width="3"/>
<path d="M82.6117 78.6755H84.1117V77.1755V43V3.38831V1.88831H82.6117C37.8854 1.88831 1.5 38.2733 1.5 83C1.5 127.727 37.8854 164.112 82.6117 164.112H84.1117V162.612V130.5V88.826V87.326H82.6117C80.2229 87.326 78.2864 85.3897 78.2864 83.0007C78.2864 80.6121 80.223 78.6755 82.6117 78.6755Z" fill="#6C63FF" stroke="#3B4A51" stroke-width="3"/>
<path d="M82.6118 1.88831H81.1118V3.38831V77.1755V78.6755H82.6118C85.0005 78.6755 86.9371 80.6121 86.9371 83.0007C86.9371 85.3894 85.0005 87.326 82.6118 87.326H81.1118V88.826V162.612V164.112H82.6118C127.338 164.112 163.723 127.727 163.723 83C163.723 38.2733 127.338 1.88831 82.6118 1.88831Z" fill="#4641A0" stroke="#3B4A51" stroke-width="3"/>
<path d="M45.0765 44.5988L45.0765 44.5992C44.9593 46.6823 45.7358 48.7161 47.2104 50.1913L47.2106 50.1915L65.3015 68.282C65.3016 68.2821 65.3017 68.2822 65.3018 68.2823C67.6937 70.6753 71.4148 71.1175 74.301 69.3531C76.7936 67.8301 79.667 67.0238 82.6114 67.0238H83.8409L84.0823 65.8182L87.9689 46.4007L88.031 46.09L87.9622 45.7807L84.0756 28.3053L83.8145 27.131H82.6114C70.0158 27.131 57.6645 31.445 47.8264 39.2822C46.1944 40.5821 45.1942 42.5159 45.0765 44.5988Z" fill="#E7E6FF" stroke="#3B4A51" stroke-width="3"/>
<path d="M120.147 44.5992L120.147 44.5988C120.029 42.5162 119.029 40.5819 117.397 39.2822C107.559 31.445 95.2075 27.131 82.6118 27.131H81.1118V28.631V65.5242V67.0242H82.6118C85.5563 67.0242 88.4299 67.8306 90.9225 69.3537L90.9226 69.3537C92.104 70.0754 93.4265 70.4285 94.7396 70.4285C96.6315 70.4285 98.5083 69.6958 99.921 68.2827C99.9211 68.2827 99.9211 68.2826 99.9212 68.2825L118.012 50.1918L116.998 49.1773L118.012 50.1918C119.488 48.7166 120.264 46.6823 120.147 44.5992Z" fill="#B6B2FF" stroke="#3B4A51" stroke-width="3"/>
<path d="M66.6381 82.6255V82.6256C66.5654 85.546 67.3036 88.4377 68.7762 90.9882C70.2485 93.538 72.3834 95.6233 74.9491 97.0205C77.9205 98.6385 79.3966 102.081 78.521 105.349L78.521 105.349L71.8989 130.062L71.8988 130.062C71.3588 132.077 69.9852 133.767 68.1225 134.706L68.1223 134.706C67.088 135.228 65.9565 135.491 64.8232 135.491C63.9158 135.491 63.0068 135.322 62.1436 134.983C50.4372 130.381 40.5255 121.842 34.2279 110.934C27.9298 100.026 25.4901 87.1725 27.3585 74.7333L27.3585 74.7331C27.6686 72.6704 28.8434 70.8373 30.5882 69.6941L66.6381 82.6255ZM66.6381 82.6255C66.7221 79.2433 64.4791 76.2438 61.2115 75.3681L60.8232 76.817M66.6381 82.6255L60.8232 76.817M60.8232 76.817L61.2115 75.3681L36.4988 68.746L36.4988 68.746M60.8232 76.817L36.4988 68.746M36.4988 68.746C34.4816 68.2056 32.333 68.5506 30.5883 69.694L36.4988 68.746ZM28.84 74.9558L28.8418 74.9561L28.84 74.9558Z" fill="#E7E6FF" stroke="#3B4A51" stroke-width="3"/>
<path d="M137.865 74.7337L137.865 74.7335C137.555 72.6703 136.38 70.8376 134.635 69.6944C132.89 68.5513 130.74 68.2053 128.724 68.7466L104.012 75.3682L104.012 75.3682C100.744 76.2438 98.5013 79.2438 98.5853 82.6256C98.6576 85.5461 97.9193 88.4378 96.4474 90.988C94.9748 93.5381 92.8402 95.6229 90.2742 97.0205C87.3029 98.6385 85.8267 102.081 86.7023 105.349L86.7023 105.349L93.3245 130.062L93.3245 130.062C93.8646 132.077 95.2382 133.767 97.1009 134.706L97.1011 134.706C98.1354 135.228 99.2668 135.491 100.4 135.491C101.307 135.491 102.217 135.323 103.08 134.983C114.787 130.382 124.698 121.842 130.995 110.934C137.294 100.027 139.733 87.1729 137.865 74.7337Z" fill="#B6B2FF" stroke="#3B4A51" stroke-width="3"/>
</svg>
