<svg width="200" height="200" viewBox="0 0 200 200" fill="none" xmlns="http://www.w3.org/2000/svg">
<path d="M195.927 116.645C187.257 130.018 177.821 142.907 167.669 155.25C158.855 165.784 148.858 175.325 137.866 183.696L137.798 183.762C132.011 188.283 126.292 192.217 121.247 195.559C109.833 203.012 94.4925 200.891 85.6564 190.645L6.33204 98.4245C-1.55235 89.3426 -2.13136 76.2163 4.9184 66.5043C13.428 54.2721 22.7291 42.58 32.7725 31.5059C33.0004 31.2269 33.2498 30.9658 33.5147 30.7198C45.1011 19.5287 58.0487 9.75673 72.0651 1.61993C76.8204 -0.909323 82.6628 -0.447278 86.9345 2.79904L189.74 82.2349C200.516 90.4857 203.183 105.319 195.927 116.645V116.645Z" fill="#5A55AF"/>
<path d="M177.426 132.703C168.757 146.099 159.323 159.01 149.169 171.374C145.602 175.7 141.768 179.829 137.866 183.696L137.798 183.762C132.011 188.284 126.292 192.217 121.247 195.559C109.833 203.012 94.4925 200.891 85.6564 190.645L6.33204 98.4246C-1.55235 89.3427 -2.13136 76.2164 4.9184 66.5044C13.428 54.2722 22.7291 42.58 32.7725 31.5059C39.2586 26.2914 46.216 21.662 53.5645 17.6776C58.3382 15.1993 64.1622 15.6884 68.4309 18.9227L171.236 98.2926C182.037 106.528 184.707 121.38 177.426 132.703V132.703Z" fill="#5A55AF"/>
<path d="M195.927 116.645C187.257 130.018 177.821 142.907 167.67 155.25C158.815 165.772 148.796 175.31 137.798 183.696C137.746 183.801 137.647 183.873 137.53 183.891C131.811 188.415 126.227 192.283 121.247 195.559C109.833 203.012 94.4926 200.891 85.6566 190.645L81.4834 185.793L81.2832 185.532C83.3683 183.828 90.2301 178.124 98.8414 170.72C99.1032 170.537 99.3495 170.342 99.5836 170.129C111.155 160.231 125.688 147.581 136.117 137.422C148.251 124.761 159.385 111.221 169.419 96.9182C177.562 85.7751 183.214 77.1882 183.214 77.1882L189.74 82.2347C200.516 90.4856 203.183 105.319 195.927 116.645V116.645Z" fill="#A0452E"/>
<path d="M100.39 13.2191C94.4709 18.3976 25.2392 79.2196 13.3294 106.552L9.02383 101.572L6.33204 98.4245C-1.55235 89.3426 -2.13136 76.2163 4.9184 66.5044C13.4311 54.2541 22.7353 42.541 32.7725 31.4399L33.5147 30.7198C45.1011 19.5287 58.0487 9.75673 72.0651 1.61993C76.8204 -0.909323 82.6628 -0.447278 86.9346 2.79904L100.39 13.2191Z" fill="#A0452E"/>
<path d="M177.427 132.703C168.754 146.075 159.32 158.964 149.169 171.308C145.609 175.631 141.811 179.768 137.798 183.696C137.746 183.801 137.647 183.873 137.53 183.891C131.811 188.415 126.227 192.283 121.247 195.559C109.833 203.012 94.4926 200.89 85.6566 190.644L81.4834 185.793C86.9347 181.205 92.9219 176.027 98.8414 170.719C99.1032 170.536 99.3495 170.341 99.5836 170.128C106.042 164.362 112.365 158.592 117.613 153.48C134.931 134.656 154.443 117.274 168.472 96.0076L169.419 96.9181L171.236 98.2923C182.016 106.543 184.683 121.377 177.427 132.703Z" fill="#DB5431"/>
<path d="M81.8867 29.2768C55.9791 51.7729 31.636 75.9252 9.02382 101.572L6.33204 98.4243C-1.55235 89.3425 -2.13136 76.2162 4.9184 66.5043C13.4311 54.2541 22.7353 42.541 32.7725 31.44C39.2586 26.2465 46.2191 21.638 53.5645 17.6777C58.3167 15.1484 64.1591 15.6105 68.4309 18.8568L81.8867 29.2768Z" fill="#DB5431"/>
<path d="M13.9473 104.223C25.3835 88.1673 58.9523 46.2252 97.7011 14.7686" stroke="black" stroke-width="2"/>
<path d="M82.5649 183.848C109.474 160.255 170.989 105.342 181.483 75.4578" stroke="black" stroke-width="2"/>
</svg>
