<svg width="200" height="155" viewBox="0 0 200 155" fill="none" xmlns="http://www.w3.org/2000/svg">
<path d="M131.386 94.0895C131.386 111.088 117.58 124.863 100.582 124.863H32.481C49.5057 124.863 63.2859 111.088 63.2859 94.0895C63.2859 77.0647 49.509 63.2861 32.481 63.2861H100.582C106.996 63.2861 112.96 65.2448 117.885 68.6072C126.037 74.1525 131.386 83.4739 131.386 94.0895Z" fill="#3B4A51"/>
<path d="M58.3552 68.6072C64.6298 75.2722 68.464 84.2331 68.464 94.0895C68.464 106.858 62.0233 118.145 52.2218 124.863H32.4775C49.5023 124.863 63.2825 111.088 63.2825 94.0895C63.2825 77.0647 49.5056 63.2861 32.4775 63.2861H100.578C106.991 63.2861 112.956 65.2448 117.882 68.6072H58.3552Z" fill="#FFC8BB"/>
<path d="M63.2895 94.0795C63.2895 111.088 49.5026 124.874 32.4945 124.874C15.4881 124.874 1.70117 111.088 1.70117 94.0795C1.70117 77.073 15.4881 63.2861 32.4945 63.2861C49.5026 63.2861 63.2895 77.073 63.2895 94.0795V94.0795Z" fill="#F9DD9D"/>
<path d="M32.4945 126.576C14.5793 126.576 0 111.996 0 94.0796C0 76.1627 14.5793 61.5851 32.4945 61.5851C50.4113 61.5851 64.9873 76.1627 64.9873 94.0796C64.9873 111.996 50.4113 126.576 32.4945 126.576ZM32.4945 64.9874C16.4532 64.9874 3.40229 78.0383 3.40229 94.0796C3.40229 110.121 16.4532 123.173 32.4945 123.173C48.5374 123.173 61.585 110.121 61.585 94.0796C61.585 78.0383 48.5374 64.9874 32.4945 64.9874Z" fill="#3B4A51"/>
<path d="M32.4943 115.844C20.4949 115.844 10.73 106.079 10.73 94.0795C10.73 82.0801 20.4949 72.3185 32.4943 72.3185C44.4954 72.3185 54.2553 82.0834 54.2553 94.0795C54.2603 106.079 44.4954 115.844 32.4943 115.844ZM32.4943 75.7174C22.3705 75.7174 14.1323 83.954 14.1323 94.0762C14.1323 104.202 22.3705 112.438 32.4943 112.438C42.6198 112.438 50.853 104.202 50.853 94.0762C50.858 83.954 42.6198 75.7174 32.4943 75.7174Z" fill="#3B4A51"/>
<path d="M41.5864 94.0795C41.5864 99.0999 37.5163 103.17 32.4943 103.17C27.4739 103.17 23.4038 99.0999 23.4038 94.0795C23.4038 89.0591 27.4739 84.989 32.4943 84.989C37.5163 84.989 41.5864 89.0591 41.5864 94.0795Z" fill="#F9DD9D"/>
<path d="M32.4943 104.871C26.5436 104.871 21.7026 100.03 21.7026 94.0795C21.7026 88.1288 26.5436 83.2878 32.4943 83.2878C38.4449 83.2878 43.2876 88.1288 43.2876 94.0795C43.2876 100.03 38.4449 104.871 32.4943 104.871ZM32.4943 86.6901C28.4192 86.6901 25.1049 90.0044 25.1049 94.0795C25.1049 98.1562 28.4225 101.469 32.4943 101.469C36.5677 101.469 39.8853 98.1529 39.8853 94.0795C39.8853 90.0077 36.571 86.6901 32.4943 86.6901Z" fill="#3B4A51"/>
<path d="M100.582 126.576H32.4946C31.556 126.576 30.7935 125.813 30.7935 124.875C30.7935 123.934 31.556 123.173 32.4946 123.173C48.5375 123.173 61.5885 110.121 61.5885 94.0796C61.5885 78.0383 48.5375 64.9874 32.4946 64.9874C31.556 64.9874 30.7935 64.2248 30.7935 63.2862C30.7935 62.3459 31.556 61.5851 32.4946 61.5851H100.582C118.499 61.5851 133.076 76.1627 133.076 94.0796C133.076 111.996 118.499 126.576 100.582 126.576V126.576ZM46.9659 123.173H100.585C116.626 123.173 129.679 110.121 129.679 94.0796C129.679 78.0383 116.626 64.9874 100.585 64.9874H46.9659C57.6413 70.3184 64.9908 81.3559 64.9908 94.0796C64.9908 106.805 57.6413 117.841 46.9659 123.173Z" fill="#3B4A51"/>
<path d="M55.8251 114.143C50.1767 120.703 41.8305 124.875 32.4941 124.875H163.51V114.143H55.8251Z" fill="#DB785A"/>
<path d="M163.511 126.576H32.4946C31.556 126.576 30.7935 125.813 30.7935 124.874C30.7935 123.934 31.556 123.173 32.4946 123.173C40.9538 123.173 48.9894 119.477 54.5347 113.035C54.8587 112.659 55.3288 112.442 55.8255 112.442H163.511C164.449 112.442 165.212 113.204 165.212 114.143V124.874C165.212 125.813 164.449 126.576 163.511 126.576V126.576ZM46.9444 123.173H161.81V115.844H56.593C53.827 118.902 50.5477 121.376 46.9444 123.173V123.173Z" fill="#3B4A51"/>
<path d="M192.97 94.0895C192.97 111.088 179.165 124.863 162.167 124.863H94.0664C111.091 124.863 124.871 111.088 124.871 94.0895C124.871 77.0647 111.094 63.2861 94.0664 63.2861H162.167C168.579 63.2861 174.543 65.2448 179.471 68.6072C187.623 74.1525 192.97 83.4739 192.97 94.0895Z" fill="#6C63FF"/>
<path d="M119.941 68.6072C126.215 75.2722 130.049 84.2331 130.049 94.0895C130.049 106.858 123.609 118.145 113.807 124.863H94.063C111.088 124.863 124.868 111.088 124.868 94.0895C124.868 77.0647 111.091 63.2861 94.063 63.2861H162.164C168.576 63.2861 174.54 65.2448 179.467 68.6072H119.941Z" fill="#CAF4FF"/>
<path d="M124.874 94.0795C124.874 111.088 111.088 124.874 94.0795 124.874C77.073 124.874 63.2861 111.088 63.2861 94.0795C63.2861 77.073 77.073 63.2861 94.0795 63.2861C111.088 63.2861 124.874 77.073 124.874 94.0795V94.0795Z" fill="#6C63FF"/>
<path d="M94.0795 126.576C76.1643 126.576 61.585 111.996 61.585 94.0796C61.585 76.1627 76.1643 61.5851 94.0795 61.5851C111.996 61.5851 126.576 76.1627 126.576 94.0796C126.576 111.996 111.996 126.576 94.0795 126.576ZM94.0795 64.9874C78.0382 64.9874 64.9872 78.0383 64.9872 94.0796C64.9872 110.121 78.0382 123.173 94.0795 123.173C110.122 123.173 123.173 110.121 123.173 94.0796C123.173 78.0383 110.126 64.9874 94.0795 64.9874Z" fill="#3B4A51"/>
<path d="M94.0794 115.844C82.08 115.844 72.3184 106.079 72.3184 94.0795C72.3184 82.0801 82.0833 72.3185 94.0794 72.3185C106.077 72.3185 115.844 82.0834 115.844 94.0795C115.844 106.079 106.08 115.844 94.0794 115.844ZM94.0794 75.7174C83.9539 75.7174 75.7206 83.954 75.7206 94.0762C75.7206 104.202 83.9572 112.438 94.0794 112.438C104.205 112.438 112.441 104.202 112.441 94.0762C112.441 83.954 104.205 75.7174 94.0794 75.7174Z" fill="#3B4A51"/>
<path d="M103.172 94.0795C103.172 99.0999 99.1018 103.17 94.0797 103.17C89.0594 103.17 84.9893 99.0999 84.9893 94.0795C84.9893 89.0591 89.0594 84.989 94.0797 84.989C99.1018 84.989 103.172 89.0591 103.172 94.0795Z" fill="#F9DD9D"/>
<path d="M94.0797 104.871C88.129 104.871 83.2881 100.03 83.2881 94.0795C83.2881 88.1288 88.129 83.2878 94.0797 83.2878C100.03 83.2878 104.873 88.1288 104.873 94.0795C104.873 100.03 100.03 104.871 94.0797 104.871ZM94.0797 86.6901C90.0046 86.6901 86.6904 90.0044 86.6904 94.0795C86.6904 98.1562 90.0046 101.469 94.0797 101.469C98.1565 101.469 101.471 98.1529 101.471 94.0795C101.471 90.0077 98.1565 86.6901 94.0797 86.6901Z" fill="#3B4A51"/>
<path d="M162.167 126.576H94.0796C93.1409 126.576 92.3784 125.813 92.3784 124.875C92.3784 123.934 93.1409 123.173 94.0796 123.173C110.122 123.173 123.173 110.121 123.173 94.0796C123.173 78.0383 110.122 64.9874 94.0796 64.9874C93.1409 64.9874 92.3784 64.2248 92.3784 63.2862C92.3784 62.3459 93.1409 61.5851 94.0796 61.5851H162.167C180.087 61.5851 194.661 76.1627 194.661 94.0796C194.661 111.996 180.087 126.576 162.167 126.576ZM108.549 123.173H162.17C178.211 123.173 191.262 110.121 191.262 94.0796C191.262 78.0383 178.211 64.9874 162.17 64.9874H108.549C119.23 70.3184 126.579 81.3559 126.579 94.0796C126.579 106.805 119.226 117.841 108.549 123.173Z" fill="#3B4A51"/>
<path d="M117.396 114.143C111.749 120.703 103.403 124.875 94.0664 124.875H138.416V114.143H117.396Z" fill="#52B8D9"/>
<path d="M138.419 126.576H94.0664C93.1278 126.576 92.3652 125.813 92.3652 124.874C92.3652 123.934 93.1278 123.173 94.0664 123.173C102.524 123.173 110.558 119.477 116.106 113.035C116.43 112.659 116.899 112.442 117.396 112.442H138.419C139.358 112.442 140.12 113.204 140.12 114.143V124.874C140.12 125.813 139.358 126.576 138.419 126.576V126.576ZM108.516 123.173H136.718V115.844H118.165C115.399 118.902 112.119 121.376 108.516 123.173Z" fill="#3B4A51"/>
<path d="M1.70117 124.875H138.416V152.385H1.70117V124.875Z" fill="#3B4A51"/>
<path d="M138.419 154.083H1.70114C0.762524 154.083 0 153.32 0 152.382V124.874C0 123.934 0.762524 123.173 1.70114 123.173H138.419C139.358 123.173 140.12 123.934 140.12 124.874V152.382C140.12 153.32 139.358 154.083 138.419 154.083ZM3.40229 150.681H136.718V126.576H3.40229V150.681Z" fill="#3B4A51"/>
<path d="M138.419 124.875H198.3V152.385H138.419V124.875Z" fill="#6C63FF"/>
<path d="M198.299 154.083H138.419C137.48 154.083 136.718 153.32 136.718 152.382V124.874C136.718 123.934 137.48 123.173 138.419 123.173H198.299C199.238 123.173 200.001 123.934 200.001 124.874V152.382C200.001 153.32 199.238 154.083 198.299 154.083V154.083ZM140.12 150.681H196.598V126.576H140.12V150.681Z" fill="#3B4A51"/>
<path d="M138.419 114.143H198.3V124.875H138.419V114.143Z" fill="#84DBFF"/>
<path d="M198.299 126.576H138.419C137.48 126.576 136.718 125.813 136.718 124.874V114.143C136.718 113.204 137.48 112.442 138.419 112.442H198.299C199.238 112.442 200.001 113.204 200.001 114.143V124.874C200.001 125.813 199.238 126.576 198.299 126.576V126.576ZM140.12 123.173H196.598V115.844H140.12V123.173Z" fill="#3B4A51"/>
<path d="M155.963 32.5012C155.963 49.4993 142.158 63.2763 125.16 63.2763H57.0596C74.0843 63.2763 87.8645 49.4993 87.8645 32.5012C87.8645 15.4765 74.0876 1.69788 57.0596 1.69788H125.16C131.573 1.69788 137.537 3.65652 142.464 7.01893C150.616 12.5643 155.963 21.8906 155.963 32.5012Z" fill="#DB5431"/>
<path d="M82.9343 7.02223C89.2089 13.6873 93.0431 22.6482 93.0431 32.5045C93.0431 45.2747 86.6024 56.5597 76.8009 63.2796H57.0566C74.0814 63.2796 87.8616 49.5026 87.8616 32.5045C87.8616 15.4798 74.0847 1.70117 57.0566 1.70117H125.157C131.57 1.70117 137.534 3.65981 142.461 7.02223H82.9343Z" fill="#FFEECF"/>
<path d="M87.8682 32.4945C87.8682 49.5026 74.0812 63.2895 57.0731 63.2895C40.0667 63.2895 26.2798 49.5026 26.2798 32.4945C26.2798 15.4881 40.0667 1.70117 57.0731 1.70117C74.0812 1.70117 87.8682 15.4881 87.8682 32.4945Z" fill="#DB5431"/>
<path d="M57.0731 64.9873C39.1563 64.9873 24.5786 50.4113 24.5786 32.4945C24.5786 14.5777 39.1563 0 57.0731 0C74.9899 0 89.5693 14.5777 89.5693 32.4945C89.5693 50.4113 74.9899 64.9873 57.0731 64.9873ZM57.0731 3.40229C41.0319 3.40229 27.9809 16.4532 27.9809 32.4945C27.9809 48.5374 41.0319 61.585 57.0731 61.585C73.116 61.585 86.167 48.5374 86.167 32.4945C86.167 16.4532 73.116 3.40229 57.0731 3.40229Z" fill="#3B4A51"/>
<path d="M57.0729 54.2556C45.0736 54.2556 35.3086 44.4923 35.3086 32.4946C35.3086 20.4952 45.0736 10.7302 57.0729 10.7302C69.0723 10.7302 78.8339 20.4952 78.8339 32.4946C78.8339 44.4956 69.0723 54.2556 57.0729 54.2556ZM57.0729 14.1325C46.9475 14.1325 38.7109 22.3691 38.7109 32.4946C38.7109 42.62 46.9475 50.8533 57.0729 50.8533C67.1984 50.8533 75.4316 42.6167 75.4316 32.4946C75.4316 22.3691 67.1951 14.1325 57.0729 14.1325Z" fill="#3B4A51"/>
<path d="M66.1634 32.4945C66.1634 37.5166 62.0933 41.5867 57.0729 41.5867C52.0525 41.5867 47.9824 37.5166 47.9824 32.4945C47.9824 27.4742 52.0525 23.4041 57.0729 23.4041C62.0933 23.4041 66.1634 27.4742 66.1634 32.4945Z" fill="#DB785A"/>
<path d="M57.0729 43.2878C51.1222 43.2878 46.2812 38.4452 46.2812 32.4945C46.2812 26.5438 51.1222 21.7029 57.0729 21.7029C63.0236 21.7029 67.8645 26.5438 67.8645 32.4945C67.8645 38.4452 63.0236 43.2878 57.0729 43.2878ZM57.0729 25.1018C52.9978 25.1018 49.6835 28.4194 49.6835 32.4912C49.6835 36.5646 53.0011 39.8805 57.0729 39.8805C61.1463 39.8805 64.4622 36.5679 64.4622 32.4912C64.4622 28.4161 61.1496 25.1018 57.0729 25.1018Z" fill="#3B4A51"/>
<path d="M125.163 64.9873H57.0727C56.1341 64.9873 55.3716 64.2248 55.3716 63.2862C55.3716 62.3459 56.1341 61.585 57.0727 61.585C73.1156 61.585 86.1666 48.5374 86.1666 32.4945C86.1666 16.4532 73.1156 3.40229 57.0727 3.40229C56.1341 3.40229 55.3716 2.63976 55.3716 1.70114C55.3716 0.762524 56.1341 0 57.0727 0H125.163C143.083 0 157.658 14.5777 157.658 32.4945C157.658 50.4113 143.08 64.9873 125.163 64.9873ZM71.5391 61.585H125.16C141.201 61.585 154.252 48.5374 154.252 32.4945C154.252 16.4532 141.201 3.40229 125.16 3.40229H71.5391C82.2161 8.73331 89.5656 19.7708 89.5656 32.4945C89.5689 45.2165 82.2161 56.2524 71.5391 61.585Z" fill="#3B4A51"/>
<path d="M80.3888 52.5543C74.7405 59.1147 66.3959 63.2861 57.0596 63.2861H101.409V52.5543H80.3888Z" fill="#EFC36A"/>
<path d="M101.409 64.9874H57.0561C56.1175 64.9874 55.355 64.2249 55.355 63.2862C55.355 62.346 56.1175 61.5851 57.0561 61.5851C65.517 61.5851 73.5509 57.8904 79.0962 51.4463C79.4185 51.0709 79.8887 50.8533 80.3854 50.8533H101.409C102.347 50.8533 103.11 51.6158 103.11 52.5544V63.2862C103.11 64.2249 102.347 64.9874 101.409 64.9874ZM71.5059 61.5851H99.7076V54.2556H81.1545C78.3885 57.3173 75.1125 59.7876 71.5059 61.5851Z" fill="#3B4A51"/>
<path d="M101.409 52.5543H161.288V63.2861H101.409V52.5543Z" fill="#F9DD9D"/>
<path d="M161.288 64.9874H101.409C100.469 64.9874 99.708 64.2249 99.708 63.2862V52.5544C99.708 51.6158 100.469 50.8533 101.409 50.8533H161.288C162.228 50.8533 162.989 51.6158 162.989 52.5544V63.2862C162.989 64.2249 162.228 64.9874 161.288 64.9874ZM103.11 61.5851H159.587V54.2556H103.11V61.5851Z" fill="#3B4A51"/>
</svg>
