<svg xmlns="http://www.w3.org/2000/svg" width="49.752" height="40.432" viewBox="0 0 49.752 40.432">
  <path id="iconmonstr-twitter-1" d="M49.752,7.035A20.379,20.379,0,0,1,43.89,8.641a10.224,10.224,0,0,0,4.488-5.647A20.448,20.448,0,0,1,41.9,5.472,10.214,10.214,0,0,0,24.5,14.779,28.977,28.977,0,0,1,3.464,4.116,10.221,10.221,0,0,0,6.621,17.744,10.164,10.164,0,0,1,2,16.467,10.215,10.215,0,0,0,10.187,26.6a10.231,10.231,0,0,1-4.61.174,10.215,10.215,0,0,0,9.536,7.088A20.523,20.523,0,0,1,0,38.095,28.9,28.9,0,0,0,15.647,42.68c18.952,0,29.659-16.006,29.012-30.361a20.781,20.781,0,0,0,5.093-5.284Z" transform="translate(0 -2.248)" fill="#fff"/>
</svg>
