<svg xmlns="http://www.w3.org/2000/svg" width="40.432" height="40.432" viewBox="0 0 40.432 40.432">
  <path id="iconmonstr-instagram-11" d="M20.216,3.644c5.4,0,6.038.02,8.171.118,5.479.249,8.038,2.849,8.287,8.287.1,2.131.116,2.771.116,8.169s-.02,6.038-.116,8.169c-.251,5.433-2.8,8.038-8.287,8.287-2.133.1-2.77.118-8.171.118s-6.038-.02-8.169-.118c-5.492-.251-8.038-2.862-8.287-8.289-.1-2.131-.118-2.77-.118-8.169s.022-6.036.118-8.169c.251-5.436,2.8-8.038,8.287-8.287,2.133-.1,2.771-.116,8.169-.116Zm0-3.644c-5.49,0-6.178.024-8.334.121C4.54.458.46,4.532.123,11.88.024,14.038,0,14.726,0,20.216S.024,26.4.121,28.552c.337,7.342,4.41,11.422,11.759,11.759,2.158.1,2.845.121,8.336.121s6.179-.024,8.336-.121c7.335-.337,11.425-4.41,11.757-11.759.1-2.156.123-2.845.123-8.336s-.024-6.178-.121-8.334C39.981,4.547,35.9.46,28.554.123,26.4.024,25.706,0,20.216,0Zm0,9.835A10.382,10.382,0,1,0,30.6,20.216,10.381,10.381,0,0,0,20.216,9.835Zm0,17.12a6.739,6.739,0,1,1,6.739-6.739A6.738,6.738,0,0,1,20.216,26.955ZM31.008,7a2.426,2.426,0,1,0,2.424,2.426A2.427,2.427,0,0,0,31.008,7Z" fill="#fff"/>
</svg>
