<svg xmlns="http://www.w3.org/2000/svg" width="541" height="285" viewBox="0 0 541 285">
  <g id="kratos_full" data-name="kratos full" transform="translate(-262 -321)">
    <g id="Ellipse_23" data-name="Ellipse 23" transform="translate(262 321)" fill="#fff" stroke="#707070" stroke-width="1">
      <circle cx="142.5" cy="142.5" r="142.5" stroke="none"/>
      <circle cx="142.5" cy="142.5" r="142" fill="none"/>
    </g>
    <g id="Kratos-logo" transform="translate(339.808 341.974)">
      <g id="scar-2" transform="translate(64.222 0)">
        <path id="Path_21" data-name="Path 21" d="M16,0c6.158,0,12.35,8.858,13.176,18.305.357,4.083-3.461,6.325-3.461,11.275,0,6.469-4.489,14.6-6.4,19.482-5.765,7.686-2.67,9.288-8.006,9.288C2.473,58.35,0,45.917,0,29.58c0-8.087,1.2-5.947,4.035-11.275C6.942,12.846,11.536,0,16,0Z" transform="translate(16.437)" fill="#db5431"/>
        <path id="Path_20" data-name="Path 20" d="M-4646.873,2588.884l-20.41,42.262,20.41,47.354,34.019,48.882v-22.9l10.406-17.838-31.217-41.244v-14.257l12.408-42.262Z" transform="translate(4667.283 -2570.958)" fill="#db5431"/>
      </g>
      <g id="Eyes" transform="translate(0 76.059)">
        <path id="Path_18" data-name="Path 18" d="M-4692.167,3289.859l-4.925,2.771-44.025-23.705-8,3.695h8l44.025,24.628Z" transform="translate(4749.121 -3268.924)"/>
        <path id="Path_17" data-name="Path 17" d="M-4749.121,3289.859l4.926,2.771,44.024-23.705,8,3.695h-8l-44.024,24.628Z" transform="translate(4819.631 -3268.924)"/>
      </g>
      <path id="scar" d="M15.864,0,12.585,6.2V29.471L6.574,51.851.016,69.135l2.86,8.088a24.965,24.965,0,0,0-2.86,5.035c-.157.534.906,1.527.932,1.464" transform="translate(27.223 61.578) rotate(9)" fill="none" stroke="#db5431" stroke-linecap="round" stroke-width="2"/>
      <g id="Group_3" data-name="Group 3" transform="translate(26.348 181.622)">
        <path id="Subtraction_4" data-name="Subtraction 4" d="M38.789,59.37h0l-4.012-3.187V55.14l-1.056.2-3.548-2.818,1.849-4.7-3.615,3.3V49.337l-1.752.394L18.312,40.9l-2.03.593-.623-1.8-2.529.242-2.774-3.976A64.389,64.389,0,0,1,3.015,24.013,30.447,30.447,0,0,1,.037,13.5a12.608,12.608,0,0,1,3-9.616A29.166,29.166,0,0,0,9.655,15.409c6.2,6.889,17.464,7.238,19.658,7.238.327,0,.509-.007.511-.007a35.011,35.011,0,0,0,.155-6.478c-.222-3.4-1.042-8.3-3.69-12.326a111.842,111.842,0,0,0,13.836.925c2.3,0,4.519-.09,6.606-.267C44.6,8.863,44.455,13.874,44.7,17.308a34.552,34.552,0,0,0,1.061,6.469,35.534,35.534,0,0,0,7.3-1.744c3.662-1.288,8.658-3.76,11.669-8.223C67.8,9.261,69.649,4.227,69.8,0c1.595,1.319,2.382,4.137,2.341,8.377A67.851,67.851,0,0,1,70.48,21.171a167.841,167.841,0,0,1-4.566,16.836c-.005,0-.666.442-1.6,1.163a.29.29,0,0,1-.184.057,1.193,1.193,0,0,1-.329-.07l-.011,0a1.273,1.273,0,0,0-.358-.074.391.391,0,0,0-.261.09,1.6,1.6,0,0,0-.326.8,1.8,1.8,0,0,1-.4.937.053.053,0,0,1-.034.009,4.643,4.643,0,0,1-1.033-.474l-.035-.019a4.718,4.718,0,0,0-1.091-.492.066.066,0,0,0-.043.011c-.129.106.151.534.447.988s.616.943.469,1.063c-2.161,1.773-4.157,3.38-5.932,4.778a.17.17,0,0,1-.106.04c-.158,0-.315-.259-.467-.51l0,0c-.153-.252-.312-.513-.475-.513a.178.178,0,0,0-.111.043c-.217.171-.252.585-.285.986s-.069.837-.3,1.017a.1.1,0,0,1-.066.019,9.006,9.006,0,0,1-2.261-1.563,8.932,8.932,0,0,0-2.265-1.563.106.106,0,0,0-.067.02c-.261.206.356,1.451.953,2.655.588,1.186,1.195,2.411.942,2.61l-3.635,2.863-.3.238-1.45,1.142a.112.112,0,0,1-.071.021,1.323,1.323,0,0,1-.492-.229,1.319,1.319,0,0,0-.5-.229.119.119,0,0,0-.075.023c-.086.068-.042.36,0,.644s.089.593,0,.664l-5.37,4.229Z"/>
      </g>
    </g>
    <text id="Kratos" transform="translate(558 493)" fill="#fff" font-size="79" font-family="Papyrus-Regular, Papyrus"><tspan x="0" y="0">Kratos</tspan></text>
  </g>
</svg>
