<svg xmlns="http://www.w3.org/2000/svg" width="220" height="93" viewBox="0 0 220 93">
  <g id="Logo" transform="translate(11039 -1449)">
    <g id="Ellipse_32" data-name="Ellipse 32" transform="translate(-11039 1449)" fill="#fff" stroke="#707070" stroke-width="1">
      <circle cx="46.5" cy="46.5" r="46.5" stroke="none"/>
      <circle cx="46.5" cy="46.5" r="46" fill="none"/>
    </g>
    <g id="Kratos-logo" transform="translate(-11015.239 1453.916)">
      <g id="scar-2" transform="translate(22.099 0)">
        <path id="Path_21" data-name="Path 21" d="M5.5,0c2.119,0,4.25,3.048,4.534,6.3.123,1.4-1.191,2.176-1.191,3.88,0,2.226-1.545,5.026-2.2,6.7-1.984,2.645-.919,3.2-2.755,3.2C.851,20.078,0,15.8,0,10.179,0,7.4.412,8.132,1.388,6.3,2.389,4.42,3.969,0,5.5,0Z" transform="translate(5.656)" fill="#db5431"/>
        <path id="Path_20" data-name="Path 20" d="M-4660.259,2588.884l-7.023,14.542,7.023,16.295,11.706,16.82v-7.879l3.581-6.138-10.742-14.192v-4.906l4.27-14.542Z" transform="translate(4667.282 -2582.715)" fill="#db5431"/>
      </g>
      <g id="Eyes" transform="translate(0 26.172)">
        <path id="Path_18" data-name="Path 18" d="M-4729.522,3276.127l-1.694.953-15.149-8.157-2.754,1.271h2.754l15.149,8.475Z" transform="translate(4749.12 -3268.924)"/>
        <path id="Path_17" data-name="Path 17" d="M-4749.12,3276.127l1.7.953,15.148-8.157,2.754,1.271h-2.754l-15.148,8.475Z" transform="translate(4773.382 -3268.924)"/>
      </g>
      <path id="scar" d="M5.459,0,4.331,2.135v8.006l-2.069,7.7L.005,23.79.99,26.573a8.591,8.591,0,0,0-.984,1.732c-.054.184.312.525.321.5" transform="translate(9.367 21.189) rotate(9)" fill="none" stroke="#db5431" stroke-linecap="round" stroke-width="2"/>
      <g id="Group_3" data-name="Group 3" transform="translate(9.067 62.496)">
        <path id="Subtraction_5" data-name="Subtraction 5" d="M13.347,20.43h0l-1.381-1.1v-.359l-.364.07-1.22-.97.636-1.617L9.775,17.592v-.614l-.6.135L6.3,14.075l-.7.2-.214-.619-.871.083-.954-1.368A22.074,22.074,0,0,1,1.038,8.264,10.477,10.477,0,0,1,.013,4.646a4.339,4.339,0,0,1,1.03-3.309A10.034,10.034,0,0,0,3.322,5.3c2.135,2.37,6.009,2.49,6.764,2.49.112,0,.176,0,.176,0,.005-.036.522-3.827-1.217-6.471a38.481,38.481,0,0,0,4.762.319c.79,0,1.555-.031,2.273-.092-1.4,2.877-.343,6.6-.332,6.636.044,0,4.53-.47,6.526-3.43A9.586,9.586,0,0,0,24.019,0c.549.454.82,1.424.806,2.882a23.338,23.338,0,0,1-.572,4.4,58.075,58.075,0,0,1-1.571,5.794s-.23.152-.551.4a.1.1,0,0,1-.064.02.409.409,0,0,1-.116-.025.445.445,0,0,0-.124-.026.134.134,0,0,0-.09.031.552.552,0,0,0-.112.274.622.622,0,0,1-.139.322.019.019,0,0,1-.012,0,1.518,1.518,0,0,1-.342-.156l-.026-.014a1.6,1.6,0,0,0-.374-.169.023.023,0,0,0-.015,0c-.044.036.052.184.154.34s.212.325.161.366c-.744.611-1.431,1.164-2.041,1.644a.059.059,0,0,1-.036.014c-.055,0-.109-.09-.161-.177s-.107-.176-.163-.176a.061.061,0,0,0-.038.015c-.075.059-.087.2-.1.34s-.024.287-.1.349a.036.036,0,0,1-.023.006,3.081,3.081,0,0,1-.778-.537,3.055,3.055,0,0,0-.78-.538.037.037,0,0,0-.023.007c-.09.07.123.5.328.912s.412.83.325.9l-1.854,1.46a.039.039,0,0,1-.024.007.459.459,0,0,1-.17-.079.448.448,0,0,0-.17-.079.041.041,0,0,0-.026.008c-.03.023-.015.12,0,.223s.031.2,0,.227l-1.847,1.455Z"/>
      </g>
    </g>
    <text id="Kratos" transform="translate(-10925 1505)" fill="#fff" font-size="34" font-family="Papyrus-Regular, Papyrus"><tspan x="0" y="0">Kratos</tspan></text>
  </g>
</svg>
