<svg id="undraw_working_out_6psf" xmlns="http://www.w3.org/2000/svg" width="858.513" height="468.396" viewBox="0 0 858.513 468.396">
  <path id="Path_24" data-name="Path 24" d="M1100.009,695.866c0-25.57-12.975-46.3-28.98-46.3-10.06,0-18.919,8.192-24.116,20.625a14.537,14.537,0,0,0-5.538-1.111c-4.845,0-9.324,2.482-12.977,6.684-4.684-15.5-14.617-26.2-26.113-26.2-10.749,0-20.124,9.357-25.127,23.243a15.831,15.831,0,0,0-9.918-3.73c-12.283,0-22.24,15.908-22.24,35.531a51.786,51.786,0,0,0,3.5,19.132h145.661A65.866,65.866,0,0,0,1100.009,695.866Z" transform="translate(-241.496 -256.689)" fill="#fb9d15"/>
  <path id="Path_25" data-name="Path 25" d="M828.069,334.38c-22.822-49.37-67.485-91.487-121.441-98.352-14.266-1.815-29.161-1.087-42.4,4.535-17.375,7.38-30.179,22.278-43.121,36.02a519.963,519.963,0,0,1-91.385,76.986c-16.445,10.887-34.083,21.045-53.607,23.831-39.146,5.585-77.867-21.11-95.719-56.393-11.152-22.04-16.306-47.917-25.321-70.842-10.383-.02-22.753-.016-36.061.045-36.786.17-66.729.713-66.729.713s35.591-47.145,66.6-29.678c9.908,5.582,20.285,10.563,29.822,14.759-5.418-10.422-12.252-19.8-21.654-27.339-18.539-14.867-43.647-19.037-67.384-17.929-24.926,1.163-50.081,7.836-70.336,22.411C153.25,239.11,138.35,284.811,125.6,327.395l30.825,15.453c13.222-11.431,32.557-22.739,50.378-12.7,31,17.467,66.619,29.064,66.619,29.064s-29.7-.269-66.486-.1c-6.178.028-12.156.068-17.839.113L531.326,530.792c112.878,1.59,197.989-4.514,305.249,0,5.594.235,18.176-29.088,18.218-36.8C855.089,439.6,850.892,383.75,828.069,334.38Zm-109.605,14.8c-36.786.17-66.729.713-66.729.713s35.591-47.145,66.6-29.678,66.619,29.064,66.619,29.064-29.7-.268-66.487-.1Z" transform="translate(-73.453 -162.557)" fill="#e4e4e4"/>
  <path id="Path_26" data-name="Path 26" d="M956.521,584.382c0-18.592-11.511-33.664-25.71-33.664-8.925,0-16.785,5.956-21.395,15a15.391,15.391,0,0,0-4.913-.808,16.74,16.74,0,0,0-11.513,4.86c-4.156-11.271-12.967-19.048-23.167-19.048-9.536,0-17.854,6.8-22.292,16.9a15.982,15.982,0,0,0-8.8-2.712c-10.9,0-19.731,11.567-19.731,25.835a31.74,31.74,0,0,0,3.109,13.911H951.336a40.7,40.7,0,0,0,5.185-20.27Z" transform="translate(-215.656 -236.417)" fill="#7b69e6" opacity="0.3"/>
  <path id="Path_27" data-name="Path 27" d="M875.329,588.827H82v-1.59H874.534Z" transform="translate(-16.817 -120.431)" fill="#fff"/>
  <path id="Path_28" data-name="Path 28" d="M793.329,464.827H0v-1.59H792.534Z" transform="translate(0 -95.001)" fill="#fff"/>
  <path id="Path_57" data-name="Path 57" d="M218.521,584.382c0-18.592-11.511-33.664-25.71-33.664-8.925,0-16.785,5.956-21.395,15a15.391,15.391,0,0,0-4.913-.808,16.74,16.74,0,0,0-11.513,4.86c-4.156-11.271-12.967-19.048-23.167-19.048-9.536,0-17.854,6.8-22.292,16.9a15.983,15.983,0,0,0-8.8-2.712c-10.9,0-19.731,11.567-19.731,25.835a31.739,31.739,0,0,0,3.109,13.911H213.336a40.7,40.7,0,0,0,5.185-20.27Z" transform="translate(-64.307 -236.417)" fill="#db5431" opacity="0.3"/>
  <g id="Man" transform="translate(-48 -26)">
    <path id="Path_29" data-name="Path 29" d="M483.63,429.147s5-36.641,13.324-26.648,0,24.982,0,24.982l-6.662,8.327-6.662-5Z" transform="translate(-146.878 -205.666)" fill="#ffb8b8"/>
    <path id="Path_30" data-name="Path 30" d="M457.2,447.161s16.655-18.32,19.986-14.989,13.324,5,11.658,11.658S452.2,472.144,452.2,472.144Z" transform="translate(-141.433 -211.022)" fill="#6c63ff"/>
    <path id="Path_32" data-name="Path 32" d="M339.037,449.038v13.324s-1.666,29.979,8.327,28.313,5-26.648,5-26.648L350.7,449.038Z" transform="translate(-118.204 -224.564)" fill="#ffb8b8"/>
    <path id="Path_31" data-name="Path 31" d="M457.2,447.161s16.655-18.32,19.986-14.989,13.324,5,11.658,11.658S452.2,472.144,452.2,472.144Z" transform="translate(-140.433 -212.022)" fill="#fb9d15" stroke="#fb9d15" stroke-width="1" opacity="0.1"/>
    <path id="Path_33" data-name="Path 33" d="M325.154,570.557s-14.989,23.317-19.986,24.982-31.644,16.655-34.975,31.644l-23.317,29.979,11.658,14.989s53.3-56.626,68.285-61.623S356.8,580.55,356.8,580.55Z" transform="translate(-98.325 -240.486)" fill="#ffb8b8"/>
    <path id="Path_34" data-name="Path 34" d="M479.926,522.369s31.644,5,26.648,24.982-53.295,61.623-53.295,61.623l-1.665,9.993-18.32,3.331-8.327-8.327,1.665-5s19.986-18.32,21.651-24.982,19.986-33.31,28.313-34.975l-11.658-6.661Z" transform="translate(-134.847 -230.603)" fill="#ffb8b8"/>
    <path id="Path_35" data-name="Path 35" d="M248.006,677.309s6.662-9.993-3.331-8.327-16.655,3.331-16.655,9.993,8.327,53.3,18.32,49.964,1.665-18.32,1.665-18.32,5-13.324,8.327-14.989,3.331-9.993,0-9.993S246.341,680.64,248.006,677.309Z" transform="translate(-94.458 -260.632)" fill="#2f2e41"/>
    <path id="Path_36" data-name="Path 36" d="M427.736,632.457s0-8.327-6.662,0-9.993,14.989-3.331,19.986S447.722,669.1,447.722,669.1s24.982,5,21.651-6.662c0,0-16.655-8.328-16.655-14.989s0-18.32-5-14.989S427.736,637.454,427.736,632.457Z" transform="translate(-132.622 -252.421)" fill="#2f2e41"/>
    <path id="Path_37" data-name="Path 37" d="M379.894,476.275s-23.317,3.331-21.651,36.641c0,0-29.979,29.979-21.651,39.972S363.239,581.2,369.9,576.2s26.648-43.3,26.648-43.3,46.633,16.655,54.961,8.327,16.655-28.313,16.655-28.313l-41.637-21.651Z" transform="translate(-116.424 -221.15)" fill="#2f2e41"/>
    <circle id="Ellipse_24" data-name="Ellipse 24" cx="19.986" cy="19.986" r="19.986" transform="translate(308.438 120.221)" fill="#ffb8b8"/>
    <path id="Path_38" data-name="Path 38" d="M450.356,333.8s-11.658,18.32-14.989,19.986,23.317,18.32,23.317,18.32,0-21.651,8.327-26.648Z" transform="translate(-136.921 -191.932)" fill="#ffb8b8"/>
    <path id="Path_39" data-name="Path 39" d="M438.341,356.188s-26.648-8.327-31.644,5-16.655,38.306-14.989,54.961,5,13.324,0,18.32-8.327,1.665-6.662,8.327,3.331,6.662,1.665,9.993,19.986,14.99,38.306,16.655l18.32,1.665s0-29.979,3.331-36.641,9.993-19.986,9.993-24.982v-13.22A50.563,50.563,0,0,0,450,371.177h0S440.006,356.188,438.341,356.188Z" transform="translate(-126.572 -195.995)" fill="#db5431"/>
    <path id="Path_40" data-name="Path 40" d="M407.647,365.232s-61.623,5-68.285,21.651-9.993,49.964-3.331,49.964,14.989,3.331,16.655,0,8.327-36.641,9.993-36.641,51.63-5,51.63-5S435.96,368.563,407.647,365.232Z" transform="translate(-115.864 -198.377)" fill="#7b69e6"/>
    <path id="Path_41" data-name="Path 41" d="M468.185,320.89s5.3-9.217,11.933-1.211,17.415-6.706,15.759-9.845-7.5.141-17.522-3.134-29.32-9.948-32.553,11.818S450.268,338,450.268,338s3.529-19.287,6.718-13.747l3.189,5.54,2.766.681Z" transform="translate(-138.958 -185.638)" fill="#2f2e41"/>
  </g>
  <circle id="Ellipse_25" data-name="Ellipse 25" cx="24.384" cy="24.384" r="24.384" transform="translate(493.354 35.485)" fill="#2f2e41"/>
  <path id="Path_42" data-name="Path 42" d="M701.117,251.705s1.262,22.712-1.262,22.712,15.772,10.725,15.772,10.725l11.356-6.309v-7.571s-15.142-1.893-8.833-18.3S701.117,251.705,701.117,251.705Z" transform="translate(-191.173 -173.789)" fill="#9f616a"/>
  <path id="Path_43" data-name="Path 43" d="M574.347,411.517l-1.893,18.927,6.309,1.893,5.047-5.047,1.893-15.773Z" transform="translate(-117.399 -84.394)" fill="#9f616a"/>
  <path id="Path_44" data-name="Path 44" d="M689.124,423.708l3.154,11.987,8.832,5.678,9.464-5.047L699.849,418.66Z" transform="translate(-141.326 -85.859)" fill="#9f616a"/>
  <circle id="Ellipse_26" data-name="Ellipse 26" cx="18.296" cy="18.296" r="18.296" transform="translate(497.641 51.103)" fill="#9f616a"/>
  <path id="Path_45" data-name="Path 45" d="M691.888,318.818l-4.416-1.893s-7.571-4.416-8.2-13.249,6.309-20.189,6.309-20.189l10.094-3.155,11.86,9.653.127,15.583Z" transform="translate(-186.992 -180.966)" fill="#9f616a"/>
  <path id="Path_46" data-name="Path 46" d="M679.451,285.563l-2.524-1.262s-12.618-.631-13.88,14.511-5.678,40.378-5.678,40.378-10.094,17.665-9.464,36.592l-5.047,16.4s-6.94,23.974,1.262,23.974,7.571-25.867,7.571-25.867,15.142-36.592,16.4-42.9,11.987-35.961,8.833-44.163S679.451,285.563,679.451,285.563Z" transform="translate(-178.971 -181.779)" fill="#9f616a"/>
  <path id="Path_47" data-name="Path 47" d="M701.178,335.89v6.94s4.416,5.047,2.524,8.2-3.785,9.464-3.785,9.464l8.833,13.88L738.4,376.9l5.9-39.507Z" transform="translate(-191.235 -192.36)" fill="#9f616a"/>
  <path id="Path_48" data-name="Path 48" d="M736.425,256.519,741.472,254s10.725-7.571,19.558-8.833l27.129-18.3,17.665-42.27s-.631-22.712,4.416-20.189,4.416,22.082,4.416,22.082-9.464,39.116-17.665,49.841-37.854,28.391-37.854,28.391-8.2,9.464-7.571,13.88S736.425,256.519,736.425,256.519Z" transform="translate(-198.722 -157.152)" fill="#9f616a"/>
  <path id="Path_49" data-name="Path 49" d="M691.49,366.513s-6.94-4.416-11.356,3.155-12.618,9.464-17.665,32.176-17.034,58.674-20.189,61.2-16.4,29.022-8.833,66.245h12.618l10.726-53.627s34.7-42.9,37.223-60.567l11.356,66.245s.631,25.236,10.094,37.223l10.094,23.974,13.249-6.309-15.142-60.567s7.571-61.2,2.524-78.232l-.725-22.332S704.739,375.976,691.49,366.513Z" transform="translate(-177.131 -198.377)" fill="#7b69e6"/>
  <path id="Path_50" data-name="Path 50" d="M636.361,585.894H628.79c-1.262,0-11.356,8.2-6.94,12.618s11.356,12.618,11.356,12.618,24.605,3.129,25.236-1.287-10.725-13.855-10.725-13.855l-3.154-10.094S638.254,578.954,636.361,585.894Z" transform="translate(-174.997 -242.998)" fill="#2f2e41"/>
  <path id="Path_51" data-name="Path 51" d="M762.555,593.665s-10.725-.631-12.618-1.262-5.678,16.4,0,17.665,29.022,3.155,29.022,3.155,18.3-.631,17.034-5.678S770.126,592.4,770.126,592.4,766.972,586.094,762.555,593.665Z" transform="translate(-200.878 -244.46)" fill="#2f2e41"/>
  <path id="Path_52" data-name="Path 52" d="M700.955,278.563l-3.154-1.893-3.785,3.155s11.356,7.571,8.833,14.511S689.6,315.787,689.6,315.787s9.464,10.725,9.464,14.511c0,0,24.605-8.833,42.9,0,0,0,0-12.618,2.524-15.142s3.785-11.356-2.524-18.927a138.318,138.318,0,0,1-11.987-17.665l-6.309-3.785-3.25,1.031s6.4,7.171.1,7.8S704.109,282.349,700.955,278.563Z" transform="translate(-189.119 -179.827)" fill="#fb9d15"/>
  <path id="Path_53" data-name="Path 53" d="M730.873,178.347a13.329,13.329,0,0,1-8.267,4.33c-5.511.787-1.181,9.448-1.181,9.448A4.977,4.977,0,0,1,723,186.22C726.149,183.465,730.873,181.89,730.873,178.347Z" transform="translate(-195.314 -160.051)" fill="#2f2e41"/>
  <circle id="Ellipse_27" data-name="Ellipse 27" cx="6.795" cy="6.795" r="6.795" transform="translate(518.137 27.09)" fill="#2f2e41"/>
  <path id="Path_54" data-name="Path 54" d="M725.418,203.955c-5.25-2.742-14.281-4.9-19.079-4.745l1.214-4.641c4.248,2.886,13.232,5.083,19.079,4.745Z" transform="translate(-192.552 -163.378)" fill="#6c63ff"/>
  <path id="Path_55" data-name="Path 55" d="M708.126,206.89s-8.273,10.636-24.818,13-3.545,28.363-3.545,28.363-4.727-9.454,4.727-17.727S708.126,217.526,708.126,206.89Z" transform="translate(-186.106 -165.904)" fill="#2f2e41"/>
  <path id="Path_56" data-name="Path 56" d="M717.372,206.1S722.1,222.641,729.19,225s3.545,27.181-8.273,29.545c0,0,10.045-13.591,4.136-24.227S715.6,211.414,717.372,206.1Z" transform="translate(-194.721 -165.742)" fill="#2f2e41"/>
  <rect id="Rectangle_37" data-name="Rectangle 37" width="43.532" height="5.047" transform="translate(590.383 12.618)" fill="#606060"/>
  <ellipse id="Ellipse_28" data-name="Ellipse 28" cx="3.785" cy="15.142" rx="3.785" ry="15.142" transform="translate(630.131 0)" fill="#606060"/>
  <ellipse id="Ellipse_29" data-name="Ellipse 29" cx="3.785" cy="15.142" rx="3.785" ry="15.142" transform="translate(586.598 0)" fill="#606060"/>
  <rect id="Rectangle_38" data-name="Rectangle 38" width="43.532" height="5.047" transform="translate(612.465 352.055)" fill="#242424"/>
  <ellipse id="Ellipse_30" data-name="Ellipse 30" cx="3.785" cy="15.142" rx="3.785" ry="15.142" transform="translate(652.212 339.438)" fill="#242424"/>
  <ellipse id="Ellipse_31" data-name="Ellipse 31" cx="3.785" cy="15.142" rx="3.785" ry="15.142" transform="translate(608.68 339.438)" fill="#242424"/>
</svg>
